<svg xmlns="http://www.w3.org/2000/svg" xml:space="preserve" id="logo__x26__colors" x="0" y="0" style="enable-background:new 0 0 473.97815 132.85254" version="1.1" viewBox="0 0 473.978 132.853"><style>.st0{fill:#fff}</style><path d="M149.861 68.503h-9.72v15.06h-8.58V40.485h17.1c10.199 0 17.1 4.26 17.1 14.04 0 5.878-2.34 9.718-6.84 11.578v.36c4.92 3.72 7.26 9.06 7.26 17.16h-9.84c0-6.6-1.92-11.64-6.48-15.12zm-.18-7.74c4.2 0 6.66-2.16 6.66-6.239 0-4.2-3-5.94-7.26-5.94h-8.94v12.18h9.54zM171.401 68.503c0-9.84 6.42-15.959 16.56-15.959 10.08 0 16.499 6.12 16.499 15.96 0 9.659-6.3 15.959-16.5 15.959s-16.559-6.3-16.559-15.96zm24.24 0c0-5.16-3.06-8.28-7.8-8.28-4.56 0-7.62 3.12-7.62 8.28 0 5.28 3.3 8.28 7.74 8.28 4.62 0 7.68-3 7.68-8.28zM209.502 68.503c0-9.84 6.42-15.959 16.56-15.959.9.06 5.82.12 9.599 2.64v8.1a17.656 17.656 0 0 0-9.72-2.94c-4.56 0-7.62 3-7.62 8.16 0 5.279 3.3 8.159 7.74 8.159 2.94 0 6.6-1.02 9.12-2.82v8.1c-2.76 1.98-7.74 2.52-9.12 2.52-10.2 0-16.56-6.3-16.56-15.96zM242.86 39.465h8.58v24.959h3.06l7.08-11.1h9.84l-10.44 14.88 11.28 15.359H262l-8.1-11.64h-2.46v11.64h-8.58V39.465zM273.941 68.323c0-9.48 6.36-15.839 15.36-15.839 9.18 0 14.279 5.94 14.279 14.16 0 2.22-.24 3.779-.42 4.799h-20.34c0 2.28 2.16 5.88 8.94 5.88 2.58 0 6.6-.36 10.02-1.62v6.72c-3.54 1.44-6.48 2.1-10.62 2.1-11.34 0-17.219-6.54-17.219-16.2zm20.879-2.7c.06-.24.06-.66.06-.9 0-2.52-1.56-5.04-5.76-5.04-3.54 0-6.36 2.58-6.36 5.94h12.06zM328.36 76.843v6.66c-1.2.48-4.14.96-5.58.96-3.6 0-10.68-.96-10.68-10.86v-12.72h-3.36v-7.5h3.78c.54-3.299 1.44-5.879 1.8-6.899h6.36v6.9h6.9v7.5h-6.9v11.519c0 4.68 2.46 4.74 4.86 4.74.42 0 2.4-.24 2.82-.3zM335.74 40.364h15.42c11.219 0 14.4 4.8 14.4 11.1 0 4.8-1.741 8.16-6.12 9.6v.36c4.74 1.44 7.799 4.32 7.799 10.019 0 8.88-6.54 12.12-16.5 12.12h-15V40.364zm14.88 35.7c4.86 0 7.8-.841 7.8-5.28 0-3.72-2.46-5.58-7.32-5.58h-6.78v10.86h6.3zm.12-18.18c3.6 0 5.999-1.74 5.999-5.1 0-3.48-2.16-4.92-6.54-4.92h-5.82v10.02h6.36zM372.7 68.683c0-9.54 5.82-16.139 14.52-16.139 4.38 0 7.86 1.98 9.54 4.8h.36c.36-1.26.9-2.46 1.44-3.96h5.52v19.62c0 4.079.659 4.859 2.22 4.859.42 0 .84-.06 1.26-.12v5.88c-1.201.48-2.94.84-4.38.84-3.6 0-5.7-1.62-6.06-4.68h-.42c-1.68 3.12-5.46 4.74-10.02 4.74-8.46 0-13.98-6.54-13.98-15.84zm23.4-.12c0-5.28-2.82-8.46-7.32-8.46-4.2 0-7.26 3.18-7.26 8.46 0 5.16 3 8.46 7.32 8.46 4.62 0 7.26-3.3 7.26-8.46zM413.02 81.523l.06-7.5c2.88 1.8 8.999 3.6 13.079 3.6 2.4 0 4.26-.66 4.26-2.34 0-2.04-2.88-2.7-6.48-3.54-5.1-1.2-10.98-3.06-10.98-9.66 0-5.52 4.68-9.599 12.84-9.599 3.84 0 8.28.66 11.34 1.68v7.5c-2.82-1.2-7.56-2.4-11.04-2.4-2.4 0-4.08.6-4.08 2.28 0 2.1 2.52 2.52 6.78 3.48 4.56 1.02 10.68 2.7 10.68 9.419 0 5.16-3.36 10.02-13.5 10.02-6.48 0-11.88-2.28-12.96-2.94zM444.34 68.323c0-9.48 6.359-15.839 15.359-15.839 9.18 0 14.28 5.94 14.28 14.16 0 2.22-.241 3.779-.42 4.799h-20.34c0 2.28 2.16 5.88 8.94 5.88 2.58 0 6.6-.36 10.02-1.62v6.72c-3.54 1.44-6.48 2.1-10.62 2.1-11.34 0-17.22-6.54-17.22-16.2zm20.878-2.7c.06-.24.06-.66.06-.9 0-2.52-1.56-5.04-5.759-5.04-3.54 0-6.36 2.58-6.36 5.94h12.06zM111.114 126.853H80.871c.026-.242.042-10.093.042-10.093h22.532a6.736 6.736 0 0 0 6.737-6.736V95.06c0-2.742-1.068-5.32-3.007-7.258L80.573 61.2c.115-4.316.206-8.634.281-12.952.736-13.172-3.003-26.756-11.75-36.837-2.25-2.589-4.754-5.015-7.761-6.845-1.409-.794-2.74-1.524-4.536-1.557-1.798.048-3.117.78-4.519 1.583-2.987 1.853-5.462 4.296-7.683 6.9-.306.363-.598.737-.892 1.109V3a3 3 0 0 0-3-3h-29.32a3 3 0 0 0-3 3v82.85L6.44 87.801a10.193 10.193 0 0 0-3.006 7.258v14.965a6.732 6.732 0 0 0 4.96 6.49v10.338H2.5a2.5 2.5 0 0 0-2.5 2.5v1a2.5 2.5 0 0 0 2.5 2.5h108.614a2.5 2.5 0 0 0 2.5-2.5v-1a2.5 2.5 0 0 0-2.5-2.5zM33.78 35.32c-.151.901-.28 1.806-.384 2.715l-7.219 6.303L15.85 35.32H33.78zm-15.257-6 7.496-8.573 7.497 8.573H18.523zm14.78 29.112.004.208h-15.03l7.604-8.708 7.422 8.5zm-.14-7.995-4.382-3.826 4.326-4.954c-.003.07-.01.138-.013.207.006 2.858.032 5.716.068 8.573zm4.642-28.203c-.328.71-.637 1.43-.932 2.154l-7.955-6.956 8.795-10.059v14.155c0 .245.037.479.092.706zM36.195 6l-10.176 8.897L15.844 6h20.35zM14.393 7.451l8.726 9.98-8.726 7.632V7.45zm0 29.326 8.844 10.128-8.844 7.723V36.777zm0 27.863h15.209l-15.21 15.21V64.64zm0 52.12h18.308s.016 9.85.042 10.093h-18.35V116.76zm45.425 10.093c.03-3.241.019-6.482-.049-9.722-.05-3.907-.158-7.815-.305-11.722-.285-7.814-.674-15.629-1.744-23.443a.924.924 0 0 0-1.827 0c-1.07 7.814-1.46 15.629-1.744 23.443a474.214 474.214 0 0 0-.305 11.722 326.73 326.73 0 0 0-.05 9.722H39.438a.738.738 0 0 1-.735-.736V113.26a2.5 2.5 0 0 0-2.5-2.5H10.169a.738.738 0 0 1-.735-.735V95.06c0-1.131.449-2.216 1.249-3.015l2.83-2.83c0-.002.003-.004.004-.005L33.58 69.147c.312 9.655.763 19.308 1.32 28.96a.803.803 0 0 0 1.603 0c1.102-17.656 1.545-35.315 1.852-52.976.088-10.73 3.898-21.508 10.96-29.6 2.171-2.366 4.537-4.82 7.482-6.032 2.924 1.253 5.267 3.721 7.41 6.112 2.5 2.911 4.56 6.23 6.244 9.717 3.484 7.079 4.64 15.078 4.521 22.92.289 16.637.795 33.258 2.17 49.86a.775.775 0 0 0 1.543 0c.791-9.555 1.29-19.116 1.629-28.682l22.619 22.619c.8.8 1.249 1.884 1.249 3.015v14.964c0 .407-.33.736-.737.736H77.413a2.5 2.5 0 0 0-2.5 2.5v12.857c0 .405-.33.736-.735.736H59.819z" class="st0"/></svg>