<?xml version="1.0" encoding="UTF-8" standalone="no"?><!DOCTYPE svg PUBLIC "-//W3C//DTD SVG 1.1//EN" "http://www.w3.org/Graphics/SVG/1.1/DTD/svg11.dtd"><svg width="100%" height="100%" viewBox="0 0 900 400" version="1.1" xmlns="http://www.w3.org/2000/svg" xmlns:xlink="http://www.w3.org/1999/xlink" xml:space="preserve" xmlns:serif="http://www.serif.com/" style="fill-rule:evenodd;clip-rule:evenodd;stroke-linejoin:round;stroke-miterlimit:1.41421;"><g><path d="M527.209,160.16l-31.969,0l0,-19.728c0,-1.144 -0.927,-2.072 -2.072,-2.072l-101.432,0c-1.144,0 -2.071,0.928 -2.071,2.072l0,53.42l-9.623,8.545l-18.891,0c-1.145,0 -2.072,0.928 -2.072,2.072c0,1.143 0.927,2.071 2.072,2.071l14.343,0c-1.725,1.938 -2.67,4.385 -2.67,6.995l0,80.149c0,2.831 1.1,5.486 3.097,7.479l0.002,0.004l0.004,0.004l0.003,0.002c1.994,1.994 4.65,3.092 7.475,3.092l117.741,0c2.835,0 5.499,-1.108 7.501,-3.121l0.001,0l0,-0.001l0.001,-0.001l0.001,0c1.986,-1.995 3.08,-4.644 3.08,-7.458l0,-80.149c0,-2.931 -1.19,-5.664 -3.349,-7.695l-0.018,-0.011l-0.026,-0.03l-13.097,-11.628l0,-29.868l31.969,0c1.145,0 2.071,-0.927 2.071,-2.071c0,-1.144 -0.926,-2.072 -2.071,-2.072Z" style="fill:#c1c1c1;fill-rule:nonzero;"/><path d="M885.682,286.688l0,-106.288c1.307,0 2.369,-1.06 2.369,-2.368c0,-1.307 -1.062,-2.367 -2.369,-2.367l-18.504,0c-1.307,0 -2.368,1.06 -2.368,2.367l0,11.426l-135.99,-24.257l-0.001,0l-20.668,-3.683l0,-9.84c0,-9.808 -7.977,-17.787 -17.784,-17.787l-28.014,0c-9.807,0 -17.787,7.979 -17.787,17.787l0,18.473l-80.324,0c-3.249,0 -6.361,1.242 -8.76,3.497l-0.002,0.001c-2.614,2.458 -4.053,5.768 -4.053,9.317l0,101.162c0,3.423 1.333,6.641 3.753,9.063l0.005,0.005c2.419,2.415 5.635,3.747 9.057,3.747l80.324,0l0,17.286c0,9.806 7.98,17.785 17.787,17.785l28.014,0c9.807,0 17.784,-7.979 17.784,-17.785l0,-8.913l20.64,-3.419l82.376,-13.643l0,44.154c0,1.307 1.062,2.367 2.369,2.367l30.061,0c1.315,0 2.368,-1.06 2.368,-2.367l0,-49.917l18.845,-3.12l0,9.685c0,1.308 1.061,2.368 2.368,2.368l18.504,0c1.307,0 2.369,-1.06 2.369,-2.368c0,-1.308 -1.062,-2.368 -2.369,-2.368Z" style="fill:#c1c1c1;fill-rule:nonzero;"/><g id="mail-fly"><g><path d="M369.033,107.755l-0.001,-0.001c-1.002,-1.002 -1.554,-2.336 -1.554,-3.755l0,-36.083c0,-1.475 0.597,-2.847 1.68,-3.864c0.006,-0.005 0.011,-0.011 0.018,-0.017c-0.007,0.006 -0.014,0.013 -0.02,0.02c-0.306,0.287 -0.474,0.69 -0.465,1.109c0.009,0.419 0.196,0.814 0.512,1.088l1.298,1.12c-0.042,0.176 -0.064,0.358 -0.064,0.544l0,36.083c0,0.083 0.004,0.164 0.013,0.246l11.04,-11.042l-12.458,12.459c-0.277,0.277 -0.433,0.654 -0.433,1.046c0,0.393 0.156,0.769 0.434,1.047Zm21.231,-23.324l-0.97,-0.837l0.97,0.837Zm-2.625,-6.176l-14.705,-12.691l14.705,12.691Z" style="fill:#a8a8a8;fill-rule:nonzero;"/><path d="M422.372,101.964c-0.382,0 -0.763,-0.146 -1.053,-0.439c0.29,0.293 0.671,0.439 1.053,0.439c0.094,0 0.188,-0.008 0.28,-0.027c-0.092,0.019 -0.186,0.027 -0.28,0.027Z" style="fill:#a8a8a8;fill-rule:nonzero;"/><path d="M443.606,109.311l-70.817,0c-1.418,0 -2.752,-0.553 -3.756,-1.556c-0.278,-0.278 -0.434,-0.654 -0.434,-1.047c0,-0.392 0.156,-0.769 0.433,-1.046l12.458,-12.459l8.774,-8.772l2.246,1.939l-19.968,19.968c0.081,0.009 0.164,0.013 0.247,0.013l70.817,0c0.818,0 1.48,0.662 1.48,1.48c0,0.817 -0.662,1.48 -1.48,1.48Zm-21.234,-7.347c-0.382,0 -0.763,-0.146 -1.053,-0.439l-15.097,-15.284l-5.964,5.148l7.011,-6.051l1.198,-1.034l14.958,15.141c0.282,0.286 0.424,0.659 0.427,1.031c0.002,0.385 -0.145,0.77 -0.44,1.061c-0.216,0.214 -0.482,0.347 -0.76,0.4c-0.092,0.019 -0.186,0.027 -0.28,0.027Zm-23.081,-10.216c-0.229,0 -0.458,-0.053 -0.668,-0.158c0.037,0.018 0.074,0.035 0.111,0.05c0.002,0.001 0.003,0.001 0.005,0.001c0.003,0.002 0.005,0.003 0.008,0.004c0.004,0.001 0.008,0.003 0.011,0.004c0.159,0.061 0.326,0.095 0.494,0.099c0,0 0.001,0 0.002,0c0.002,0 0.005,0 0.008,0l0.03,0c0.252,0 0.504,-0.064 0.732,-0.194c0,0 0.001,-0.001 0.002,-0.001c0.004,-0.002 0.008,-0.004 0.012,-0.007c0.004,-0.002 0.009,-0.004 0.013,-0.008l0,0c0.072,-0.043 0.141,-0.093 0.207,-0.149c-0.278,0.24 -0.623,0.359 -0.967,0.359Zm-0.669,-0.159c-0.002,-0.001 -0.004,-0.002 -0.008,-0.004c0.004,0.002 0.006,0.003 0.008,0.004Zm-0.019,-0.01c0,0 -0.001,-0.001 -0.002,-0.001c0.001,0 0.002,0.001 0.002,0.001Z" style="fill:#a8a8a8;fill-rule:nonzero;"/><path d="M399.291,91.748l-0.001,0l0.001,0Zm-0.013,0c-0.001,0 -0.004,0 -0.005,0c0.001,0 0.004,0 0.005,0Zm-0.016,0c-0.003,0 -0.006,0 -0.008,0c0.002,0 0.005,0 0.008,0Zm-0.01,0c-0.168,-0.004 -0.335,-0.038 -0.494,-0.099c0.158,0.061 0.326,0.095 0.494,0.099Zm-0.494,-0.099c-0.003,-0.001 -0.007,-0.003 -0.011,-0.004c0.004,0.001 0.008,0.003 0.011,0.004Zm-0.019,-0.008c-0.002,0 -0.003,0 -0.005,-0.001c0.002,0.001 0.003,0.001 0.005,0.001Zm1.285,-0.087c0,0 0.001,-0.001 0.002,-0.001c-0.001,0 -0.002,0.001 -0.002,0.001Zm0.014,-0.008c0.004,-0.002 0.009,-0.004 0.013,-0.008c-0.004,0.004 -0.009,0.006 -0.013,0.008Zm0.013,-0.008c0.072,-0.043 0.141,-0.093 0.207,-0.149c-0.066,0.056 -0.135,0.106 -0.207,0.149Zm-1.731,-0.152l-5.81,-5.016l-2.246,-1.939l-0.97,-0.837l-18.793,-16.222l-1.298,-1.12c-0.316,-0.274 -0.503,-0.669 -0.512,-1.088c-0.009,-0.419 0.159,-0.822 0.465,-1.109c0.006,-0.007 0.013,-0.014 0.02,-0.02c0.991,-0.923 2.272,-1.431 3.613,-1.431l79.518,0c0.817,0 1.479,0.663 1.479,1.48c0,0.817 -0.662,1.48 -1.479,1.48l-79.373,0l14.705,12.691l11.652,10.059l-0.967,0.835c-0.339,0.292 -0.513,0.705 -0.513,1.12c0,0.343 0.118,0.686 0.36,0.967c0.047,0.054 0.096,0.104 0.149,0.15Zm2.473,-4.368l20.612,-17.791c0.279,-0.241 0.623,-0.359 0.966,-0.359c0.415,0 0.829,0.173 1.121,0.512c-0.292,-0.339 -0.706,-0.512 -1.121,-0.512c-0.343,0 -0.687,0.118 -0.966,0.359l-16.07,13.87l-4.542,3.921Zm22.559,-15.562c0.001,-0.001 0.001,-0.001 0.002,-0.002c-0.001,0.001 -0.001,0.001 -0.002,0.002Zm0.013,-0.012c0.002,-0.002 0.003,-0.003 0.003,-0.003c0,0 -0.001,0.001 -0.003,0.003Zm0.014,-0.013c0.002,-0.002 0.003,-0.003 0.004,-0.004c-0.001,0.001 -0.002,0.002 -0.004,0.004Zm0.015,-0.013c0.001,-0.002 0.002,-0.004 0.004,-0.004c-0.002,0 -0.003,0.002 -0.004,0.004Zm0.012,-0.012c0.002,-0.003 0.004,-0.004 0.006,-0.007c-0.002,0.003 -0.004,0.004 -0.006,0.007Zm0.012,-0.013c0.003,-0.002 0.006,-0.005 0.008,-0.008c-0.002,0.003 -0.005,0.006 -0.008,0.008Zm0.014,-0.013c0.002,-0.003 0.005,-0.006 0.008,-0.008c-0.003,0.002 -0.006,0.005 -0.008,0.008Zm0.013,-0.014c0.002,-0.002 0.004,-0.004 0.006,-0.006c-0.002,0.002 -0.004,0.004 -0.006,0.006Zm0.014,-0.014c0.001,-0.002 0.004,-0.005 0.005,-0.006c-0.001,0.001 -0.004,0.004 -0.005,0.006Zm0.009,-0.011c0.003,-0.003 0.007,-0.007 0.01,-0.011c-0.003,0.004 -0.007,0.008 -0.01,0.011Zm0.013,-0.014c0.003,-0.004 0.007,-0.008 0.01,-0.012c-0.003,0.004 -0.007,0.008 -0.01,0.012Zm0.013,-0.014c0.003,-0.005 0.007,-0.009 0.01,-0.013c-0.003,0.004 -0.007,0.008 -0.01,0.013Zm0.012,-0.015c0.004,-0.005 0.008,-0.01 0.012,-0.015c-0.004,0.005 -0.008,0.01 -0.012,0.015Zm0.012,-0.015c0.006,-0.008 0.013,-0.016 0.019,-0.024c-0.006,0.008 -0.013,0.016 -0.019,0.024Zm0.02,-0.025c0.004,-0.004 0.008,-0.009 0.011,-0.014c-0.003,0.005 -0.007,0.01 -0.011,0.014Zm0.013,-0.016c0.003,-0.004 0.006,-0.009 0.009,-0.013c-0.003,0.004 -0.006,0.009 -0.009,0.013Zm0.012,-0.016c0.003,-0.005 0.006,-0.009 0.009,-0.013c-0.003,0.004 -0.006,0.008 -0.009,0.013Zm0.011,-0.016c0.003,-0.005 0.007,-0.009 0.01,-0.013c-0.003,0.004 -0.007,0.008 -0.01,0.013Zm0.011,-0.016c0.002,-0.002 0.004,-0.005 0.006,-0.008c-0.002,0.003 -0.004,0.006 -0.006,0.008Zm0.006,-0.008c0.004,-0.005 0.007,-0.01 0.011,-0.016c-0.004,0.006 -0.007,0.011 -0.011,0.016Zm0.013,-0.02c0.003,-0.003 0.005,-0.007 0.008,-0.011c-0.003,0.004 -0.005,0.008 -0.008,0.011Zm0.011,-0.016c0.003,-0.003 0.004,-0.007 0.007,-0.01c-0.003,0.003 -0.004,0.007 -0.007,0.01Zm0.01,-0.016c0.002,-0.003 0.005,-0.006 0.006,-0.009c-0.001,0.003 -0.004,0.006 -0.006,0.009Zm0.01,-0.017c0.002,-0.001 0.003,-0.004 0.004,-0.006c-0.001,0.002 -0.002,0.005 -0.004,0.006Zm0.011,-0.016c0,-0.002 0.002,-0.003 0.003,-0.006c-0.001,0.003 -0.003,0.004 -0.003,0.006Zm0.009,-0.017c0.001,-0.001 0.002,-0.003 0.003,-0.005c-0.001,0.002 -0.002,0.004 -0.003,0.005Zm0.01,-0.016c0,-0.001 0.001,-0.002 0.002,-0.004c-0.001,0.002 -0.002,0.003 -0.002,0.004Zm0.008,-0.015c0,-0.001 0.001,-0.002 0.001,-0.003c0,0.001 -0.001,0.002 -0.001,0.003Zm0.008,-0.016c0.001,-0.001 0.001,-0.002 0.002,-0.003c-0.001,0.001 -0.001,0.002 -0.002,0.003Zm0.009,-0.017c0.001,-0.001 0.001,-0.002 0.002,-0.002c-0.001,0 -0.001,0.001 -0.002,0.002Zm0.009,-0.016c0,-0.001 0,-0.002 0,-0.002c0,0 0,0.001 0,0.002Zm0.153,-0.69c0,-0.002 -0.001,-0.005 -0.001,-0.008c0,0.003 0.001,0.006 0.001,0.008Zm-0.001,-0.016c0,-0.004 0,-0.008 0,-0.012c0,0.004 0,0.008 0,0.012Zm-0.001,-0.016c0,-0.004 0,-0.009 -0.001,-0.013c0.001,0.004 0.001,0.009 0.001,0.013Zm-0.001,-0.016c0,-0.005 0,-0.01 -0.001,-0.014c0.001,0.004 0.001,0.009 0.001,0.014Zm-0.001,-0.016c0,-0.005 0,-0.01 0,-0.015c0,0.005 0,0.01 0,0.015Zm0,-0.015c-0.008,-0.107 -0.028,-0.214 -0.06,-0.318c0.032,0.104 0.052,0.211 0.06,0.318Zm-0.06,-0.318c-0.001,-0.004 -0.003,-0.01 -0.005,-0.015c0.002,0.005 0.004,0.011 0.005,0.015Zm-0.005,-0.016c-0.001,-0.005 -0.003,-0.01 -0.004,-0.014c0.001,0.005 0.003,0.009 0.004,0.014Zm-0.005,-0.016c-0.002,-0.005 -0.003,-0.009 -0.005,-0.014c0.002,0.005 0.003,0.009 0.005,0.014Zm-0.006,-0.016c-0.001,-0.005 -0.003,-0.009 -0.004,-0.014c0.001,0.005 0.003,0.009 0.004,0.014Zm-0.004,-0.014c-0.005,-0.013 -0.01,-0.026 -0.015,-0.038c0.005,0.012 0.01,0.025 0.015,0.038Zm-0.018,-0.046c-0.001,-0.003 -0.001,-0.005 -0.002,-0.007c0.001,0.002 0.001,0.004 0.002,0.007Zm-0.006,-0.017c-0.001,-0.002 -0.002,-0.004 -0.003,-0.006c0.001,0.002 0.002,0.004 0.003,0.006Zm-0.007,-0.016c0,-0.002 -0.001,-0.004 -0.002,-0.006c0.001,0.002 0.002,0.004 0.002,0.006Zm-0.007,-0.017c0,-0.002 -0.001,-0.003 -0.002,-0.004c0.001,0.001 0.002,0.002 0.002,0.004Zm-0.008,-0.017c0,-0.001 0,-0.002 -0.001,-0.003c0.001,0.001 0.001,0.002 0.001,0.003Zm-0.007,-0.018c0,0 0,-0.001 -0.001,-0.001c0.001,0 0.001,0.001 0.001,0.001Zm-0.186,-0.299l-0.001,-0.001c0,0 0.001,0 0.001,0.001Zm-0.012,-0.015c0,0 -0.001,0 -0.001,-0.001c0,0.001 0.001,0.001 0.001,0.001Zm-0.012,-0.015c0,0 0,0 0,0c0,0 0,0 0,0Z" style="fill:#a8a8a8;fill-rule:nonzero;"/><path d="M407.269,85.338c0.339,-0.293 0.513,-0.705 0.513,-1.12c0,-0.343 -0.118,-0.688 -0.36,-0.968c-0.292,-0.339 -0.705,-0.512 -1.12,-0.512c-0.342,0 -0.687,0.118 -0.967,0.359l16.07,-13.87c0.279,-0.241 0.623,-0.359 0.966,-0.359c0.415,0 0.829,0.173 1.121,0.512c0.004,0.005 0.009,0.01 0.013,0.015c0,0 0,0 0,0c0.004,0.005 0.008,0.01 0.011,0.014c0,0.001 0.001,0.001 0.001,0.001c0.004,0.004 0.007,0.009 0.011,0.014l0.001,0.001c0.004,0.004 0.007,0.009 0.011,0.014c0.07,0.089 0.128,0.185 0.174,0.284c0.001,0 0.001,0.001 0.001,0.001c0.002,0.005 0.004,0.01 0.006,0.015c0.001,0.001 0.001,0.002 0.001,0.003c0.003,0.004 0.004,0.008 0.006,0.013c0.001,0.001 0.002,0.002 0.002,0.004l0.007,0.017c0.002,0.003 0.003,0.007 0.004,0.01c0.001,0.002 0.002,0.004 0.003,0.006c0.001,0.003 0.002,0.007 0.004,0.01c0.001,0.002 0.001,0.004 0.002,0.007c0.002,0.002 0.003,0.005 0.003,0.008c0.005,0.012 0.01,0.025 0.015,0.038c0,0 0,0 0,0c0.001,0.005 0.003,0.009 0.004,0.014c0.001,0.001 0.001,0.002 0.001,0.002c0.002,0.005 0.003,0.009 0.005,0.014l0.005,0.016c0,0.001 0,0.001 0,0.001c0.002,0.005 0.004,0.011 0.005,0.015c0.032,0.104 0.052,0.211 0.06,0.318c0,0.005 0,0.01 0,0.015c0,0.001 0,0.001 0,0.002c0.001,0.004 0.001,0.009 0.001,0.014c0,0.001 0,0.001 0,0.003c0.001,0.004 0.001,0.009 0.001,0.013c0,0.001 0,0.003 0.001,0.004l0,0.02c0,0.003 0.001,0.006 0.001,0.008c0,0.011 0,0.022 0,0.033c0,0.225 -0.052,0.45 -0.153,0.655c0,0 0,0.001 0,0.002c-0.003,0.005 -0.005,0.009 -0.007,0.014c-0.001,0 -0.001,0.001 -0.002,0.002c-0.002,0.005 -0.005,0.009 -0.007,0.014c-0.001,0.001 -0.001,0.002 -0.002,0.003c-0.002,0.004 -0.004,0.008 -0.007,0.013c0,0.001 -0.001,0.002 -0.001,0.003c-0.002,0.003 -0.004,0.007 -0.006,0.011l-0.009,0.015c-0.001,0.002 -0.002,0.004 -0.003,0.005c-0.002,0.004 -0.004,0.008 -0.006,0.011c-0.001,0.003 -0.003,0.004 -0.003,0.006c-0.003,0.004 -0.004,0.007 -0.007,0.01c-0.001,0.002 -0.002,0.005 -0.004,0.006c-0.001,0.003 -0.002,0.005 -0.004,0.008c-0.001,0.003 -0.004,0.006 -0.006,0.009c-0.001,0.002 -0.002,0.003 -0.003,0.006c-0.003,0.003 -0.004,0.007 -0.007,0.01c-0.001,0.001 -0.002,0.004 -0.003,0.005c-0.003,0.004 -0.005,0.008 -0.008,0.011c0,0.002 -0.001,0.003 -0.002,0.004l-0.017,0.024c0,0.001 0,0.002 -0.001,0.003c-0.003,0.004 -0.007,0.008 -0.01,0.013c0,0.001 -0.001,0.002 -0.002,0.003c-0.003,0.004 -0.006,0.008 -0.009,0.013c-0.001,0.001 -0.001,0.001 -0.003,0.003c-0.003,0.004 -0.006,0.009 -0.009,0.013c-0.001,0.001 -0.001,0.001 -0.002,0.002c-0.003,0.005 -0.007,0.01 -0.011,0.014l-0.001,0.001c-0.006,0.008 -0.013,0.016 -0.019,0.024c-0.004,0.005 -0.008,0.01 -0.012,0.015c-0.001,0.001 -0.001,0.002 -0.002,0.002c-0.003,0.004 -0.007,0.008 -0.01,0.013c-0.001,0.001 -0.002,0.002 -0.003,0.002c-0.003,0.004 -0.007,0.008 -0.01,0.012c-0.001,0.001 -0.003,0.003 -0.003,0.003c-0.003,0.004 -0.007,0.008 -0.01,0.011c-0.001,0.001 -0.002,0.003 -0.004,0.005c-0.001,0.001 -0.004,0.004 -0.005,0.006c-0.003,0.002 -0.006,0.005 -0.008,0.008c-0.002,0.002 -0.004,0.004 -0.006,0.006c-0.002,0.002 -0.004,0.004 -0.005,0.006c-0.003,0.002 -0.006,0.005 -0.008,0.008c-0.002,0.002 -0.004,0.004 -0.006,0.005c-0.002,0.003 -0.005,0.006 -0.008,0.008c-0.001,0.002 -0.004,0.004 -0.006,0.006c-0.002,0.003 -0.004,0.004 -0.006,0.007c-0.003,0.002 -0.005,0.004 -0.008,0.008c-0.002,0 -0.003,0.002 -0.004,0.004c-0.003,0.003 -0.007,0.006 -0.011,0.009c-0.001,0.001 -0.002,0.002 -0.004,0.004c-0.003,0.003 -0.007,0.006 -0.011,0.01c0,0 -0.001,0.001 -0.003,0.003c-0.003,0.003 -0.007,0.007 -0.011,0.01c-0.001,0.001 -0.001,0.001 -0.002,0.002c-0.004,0.004 -0.009,0.008 -0.013,0.011l-14.872,12.837l-1.198,1.034Z" style="fill:#a8a8a8;fill-rule:nonzero;"/><path d="M399.292,91.748l-0.001,0l-0.001,0l-0.028,0c-0.003,0 -0.006,0 -0.008,0c-0.001,0 -0.002,0 -0.002,0c-0.168,-0.004 -0.336,-0.038 -0.494,-0.099c-0.003,-0.001 -0.007,-0.003 -0.011,-0.004c-0.003,-0.001 -0.005,-0.002 -0.008,-0.004c-0.002,0 -0.003,0 -0.005,-0.001c-0.037,-0.015 -0.074,-0.032 -0.111,-0.05c0,-0.001 0,-0.001 -0.001,-0.001c-0.002,-0.001 -0.004,-0.002 -0.008,-0.004c-0.004,-0.002 -0.008,-0.004 -0.011,-0.006c0,0 -0.001,-0.001 -0.002,-0.001c-0.099,-0.052 -0.194,-0.116 -0.281,-0.192c-0.053,-0.046 -0.102,-0.096 -0.149,-0.15c-0.242,-0.281 -0.36,-0.624 -0.36,-0.967c0,-0.415 0.174,-0.828 0.513,-1.12l0.967,-0.835l1.502,-1.296l4.542,-3.921c0.28,-0.241 0.625,-0.359 0.967,-0.359c0.415,0 0.828,0.173 1.12,0.512c0.242,0.28 0.36,0.625 0.36,0.968c0,0.415 -0.174,0.827 -0.513,1.12l-7.011,6.051c-0.066,0.056 -0.135,0.106 -0.207,0.149l0,0c-0.004,0.004 -0.009,0.006 -0.013,0.008c-0.004,0.003 -0.008,0.005 -0.012,0.007c-0.001,0 -0.002,0.001 -0.002,0.001c-0.228,0.13 -0.48,0.194 -0.732,0.194Z" style="fill:#a8a8a8;fill-rule:nonzero;"/><path d="M445.841,75.026l-18.201,0c-0.817,0 -1.48,-0.662 -1.48,-1.48c0,-0.817 0.663,-1.48 1.48,-1.48l18.201,0c0.817,0 1.48,0.663 1.48,1.48c0,0.818 -0.663,1.48 -1.48,1.48Z" style="fill:#a8a8a8;fill-rule:nonzero;"/><path d="M461.719,83.938l-30.248,0c-0.817,0 -1.48,-0.663 -1.48,-1.48c0,-0.817 0.663,-1.479 1.48,-1.479l30.248,0c0.817,0 1.479,0.662 1.479,1.479c0,0.817 -0.662,1.48 -1.479,1.48Z" style="fill:#a8a8a8;fill-rule:nonzero;"/><path d="M441.051,91.889l-16.601,0c-0.817,0 -1.479,-0.663 -1.479,-1.48c0,-0.818 0.662,-1.48 1.479,-1.48l16.601,0c0.817,0 1.48,0.662 1.48,1.48c0,0.817 -0.663,1.48 -1.48,1.48Z" style="fill:#a8a8a8;fill-rule:nonzero;"/><path d="M454.462,101.209l-21.712,0c-0.816,0 -1.479,-0.662 -1.479,-1.479c0,-0.818 0.663,-1.48 1.479,-1.48l21.712,0c0.818,0 1.48,0.662 1.48,1.48c0,0.817 -0.662,1.479 -1.48,1.479Z" style="fill:#a8a8a8;fill-rule:nonzero;"/></g><g><path d="M347.649,369.398c-0.006,-0.006 -0.013,-0.012 -0.019,-0.018c-1.003,-1.002 -1.555,-2.336 -1.555,-3.756l0,-36.083c0,-1.474 0.597,-2.846 1.68,-3.863c0.003,-0.003 0.007,-0.006 0.01,-0.009c-0.004,0.004 -0.007,0.007 -0.011,0.011c-0.306,0.287 -0.474,0.691 -0.465,1.109c0.008,0.419 0.195,0.814 0.512,1.089l1.298,1.12c-0.042,0.176 -0.064,0.357 -0.064,0.543l0,36.083c0,0.083 0.004,0.165 0.013,0.246l11.041,-11.041l-12.459,12.458c-0.277,0.278 -0.433,0.654 -0.433,1.047c0,0.392 0.156,0.769 0.434,1.047c0.006,0.005 0.012,0.011 0.018,0.017Zm14.469,-33.072l-10.585,-9.137l10.585,9.137Z" style="fill:#a8a8a8;fill-rule:nonzero;"/><path d="M400.969,363.59c-0.381,0 -0.762,-0.147 -1.052,-0.439c0.29,0.292 0.671,0.439 1.052,0.439c0.007,0 0.012,0 0.019,0c-0.007,0 -0.012,0 -0.019,0Zm0.188,-0.012c0.002,-0.001 0.004,-0.001 0.006,-0.001c-0.002,0 -0.004,0 -0.006,0.001Zm0.008,-0.001c0.308,-0.041 0.606,-0.179 0.844,-0.414c-0.238,0.235 -0.536,0.373 -0.844,0.414Zm1.284,-1.475c-0.002,-0.373 -0.144,-0.746 -0.427,-1.032l-14.958,-15.141l14.958,15.141c0.283,0.286 0.425,0.659 0.427,1.032Z" style="fill:#a8a8a8;fill-rule:nonzero;"/><path d="M422.204,370.936l-70.818,0c-1.409,0 -2.736,-0.546 -3.737,-1.538c-0.006,-0.006 -0.012,-0.012 -0.018,-0.017c-0.278,-0.278 -0.434,-0.655 -0.434,-1.047c0,-0.393 0.156,-0.769 0.433,-1.047l12.459,-12.458l8.772,-8.773l2.247,1.94l-19.969,19.967c0.082,0.009 0.164,0.013 0.247,0.013l70.818,0c0.817,0 1.48,0.663 1.48,1.48c0,0.817 -0.663,1.48 -1.48,1.48Zm-21.235,-7.346c-0.381,0 -0.762,-0.147 -1.052,-0.439l-15.097,-15.284l-5.964,5.147l7.01,-6.051l1.198,-1.034l14.958,15.141c0.283,0.286 0.425,0.659 0.427,1.032c0.002,0.384 -0.144,0.77 -0.44,1.061c-0.238,0.235 -0.536,0.373 -0.844,0.414c-0.001,0 -0.002,0 -0.002,0c-0.002,0 -0.004,0 -0.006,0.001c-0.056,0.007 -0.113,0.011 -0.169,0.012c-0.007,0 -0.012,0 -0.019,0Zm-23.081,-10.216c-0.238,0 -0.476,-0.058 -0.693,-0.173c0.001,0.001 0.002,0.001 0.003,0.002c0.001,0.001 0.002,0.002 0.004,0.002c0.002,0.002 0.006,0.004 0.01,0.005c0.002,0.002 0.006,0.003 0.008,0.004c0.001,0.001 0.001,0.001 0.002,0.002c0.19,0.096 0.399,0.149 0.609,0.157l0,0c0.004,0 0.011,0 0.016,0l0.012,0c0.004,0 0.007,0 0.011,0.001l0.019,0c0.224,0 0.451,-0.051 0.659,-0.155c0.001,0 0.003,-0.001 0.004,-0.002c0.003,-0.001 0.007,-0.004 0.011,-0.005c0.004,-0.002 0.007,-0.004 0.011,-0.006c0.001,-0.001 0.002,-0.001 0.003,-0.001c0.098,-0.052 0.191,-0.115 0.279,-0.191c-0.278,0.241 -0.623,0.36 -0.968,0.36Zm-0.697,-0.175c-0.004,-0.002 -0.005,-0.002 -0.008,-0.004c0.003,0.002 0.004,0.002 0.008,0.004Z" style="fill:#a8a8a8;fill-rule:nonzero;"/><path d="M377.888,353.374l0.001,0l-0.001,0Zm-0.012,0c-0.002,0 -0.003,0 -0.006,0c0.003,0 0.004,0 0.006,0Zm-0.017,-0.001c-0.003,0 -0.005,0 -0.007,0c0.002,0 0.004,0 0.007,0Zm-0.012,0c-0.005,0 -0.012,0 -0.016,0c0.004,0 0.011,0 0.016,0Zm-0.016,0c-0.21,-0.008 -0.419,-0.061 -0.609,-0.157c0.19,0.096 0.399,0.149 0.609,0.157Zm0.717,-0.154c0.001,0 0.003,-0.001 0.004,-0.002c-0.001,0.001 -0.003,0.002 -0.004,0.002Zm-1.328,-0.005c-0.002,-0.001 -0.006,-0.002 -0.008,-0.004c0.002,0.002 0.006,0.003 0.008,0.004Zm1.343,-0.002c0.004,-0.002 0.007,-0.004 0.011,-0.006c-0.004,0.002 -0.007,0.004 -0.011,0.006Zm-1.361,-0.007c-0.002,0 -0.003,-0.001 -0.004,-0.002c0.001,0.001 0.002,0.002 0.004,0.002Zm1.375,0c0.098,-0.052 0.191,-0.115 0.279,-0.191c-0.088,0.076 -0.181,0.139 -0.279,0.191Zm-1.664,-0.198l-5.805,-5.011l-2.247,-1.94l-19.762,-17.058l-1.298,-1.12c-0.317,-0.275 -0.504,-0.67 -0.512,-1.089c-0.009,-0.418 0.159,-0.822 0.465,-1.109c0.004,-0.004 0.007,-0.007 0.011,-0.011c0.992,-0.929 2.277,-1.44 3.621,-1.44l79.519,0c0.816,0 1.479,0.663 1.479,1.481c0,0.817 -0.663,1.479 -1.479,1.479l-79.372,0l10.585,9.137l15.77,13.613l-0.966,0.835c-0.339,0.293 -0.512,0.705 -0.512,1.12c0,0.343 0.117,0.687 0.358,0.967c0.046,0.052 0.094,0.101 0.145,0.146Zm2.509,-4.391l20.58,-17.764c0.281,-0.24 0.625,-0.358 0.967,-0.358c0.415,0 0.828,0.173 1.12,0.511c-0.292,-0.338 -0.705,-0.511 -1.12,-0.511c-0.342,0 -0.686,0.118 -0.967,0.358l-16.069,13.871l-4.511,3.893Zm22.528,-15.535l0.001,-0.001l-0.001,0.001Zm0.014,-0.012c0,-0.001 0.001,-0.002 0.002,-0.003c-0.001,0.001 -0.002,0.002 -0.002,0.003Zm0.014,-0.014c0.001,-0.001 0.001,-0.001 0.002,-0.001c-0.001,0 -0.001,0 -0.002,0.001Zm0.014,-0.012c0.001,-0.001 0.002,-0.002 0.002,-0.003c0,0.001 -0.001,0.002 -0.002,0.003Zm0.014,-0.015l0.001,0l-0.001,0Zm0.013,-0.012c0.001,0 0.001,-0.001 0.001,-0.001c0,0 0,0.001 -0.001,0.001Zm0.013,-0.013c0,-0.001 0.001,-0.002 0.002,-0.002c-0.001,0 -0.002,0.001 -0.002,0.002Zm0.012,-0.013c0.001,-0.001 0.002,-0.002 0.003,-0.003c-0.001,0.001 -0.002,0.002 -0.003,0.003Zm0.014,-0.015c0.001,-0.001 0.001,-0.001 0.002,-0.002c-0.001,0.001 -0.001,0.001 -0.002,0.002Zm0.012,-0.013c0.001,-0.001 0.002,-0.002 0.003,-0.003c-0.001,0.001 -0.002,0.002 -0.003,0.003Zm0.013,-0.015c0.001,0 0.001,-0.001 0.002,-0.002c-0.001,0.001 -0.001,0.002 -0.002,0.002Zm0.011,-0.013c0.001,-0.001 0.002,-0.002 0.003,-0.002c-0.001,0 -0.002,0.001 -0.003,0.002Zm0.012,-0.013c0.001,-0.002 0.002,-0.003 0.002,-0.004c0,0.001 -0.001,0.002 -0.002,0.004Zm0.012,-0.015c0.001,-0.001 0.002,-0.003 0.003,-0.004c-0.001,0.001 -0.002,0.003 -0.003,0.004Zm0.012,-0.015c0.001,-0.001 0.002,-0.002 0.003,-0.004c-0.001,0.002 -0.002,0.003 -0.003,0.004Zm0.011,-0.014c0.002,-0.002 0.002,-0.003 0.004,-0.005c-0.002,0.002 -0.002,0.003 -0.004,0.005Zm0.01,-0.013c0.002,-0.003 0.003,-0.004 0.005,-0.007c-0.002,0.003 -0.003,0.004 -0.005,0.007Zm0.011,-0.015c0.002,-0.002 0.003,-0.004 0.004,-0.005c-0.001,0.001 -0.002,0.003 -0.004,0.005Zm0.011,-0.015c0.001,-0.002 0.003,-0.004 0.004,-0.005c-0.001,0.001 -0.003,0.003 -0.004,0.005Zm0.011,-0.016c0.001,-0.001 0.003,-0.004 0.004,-0.005c-0.001,0.001 -0.003,0.004 -0.004,0.005Zm0.011,-0.015c0.001,-0.002 0.002,-0.004 0.004,-0.006c-0.002,0.002 -0.003,0.004 -0.004,0.006Zm0.009,-0.013c0.001,-0.003 0.003,-0.006 0.005,-0.009c-0.002,0.003 -0.004,0.006 -0.005,0.009Zm0.009,-0.014c0.002,-0.004 0.005,-0.008 0.007,-0.011c-0.002,0.003 -0.005,0.007 -0.007,0.011Zm0.01,-0.016c0.002,-0.004 0.005,-0.008 0.007,-0.012c-0.002,0.004 -0.004,0.008 -0.007,0.012Zm0.01,-0.016c0.003,-0.005 0.006,-0.01 0.009,-0.015c-0.004,0.005 -0.006,0.01 -0.009,0.015Zm0.009,-0.017c0.002,-0.002 0.003,-0.004 0.005,-0.008c-0.002,0.004 -0.003,0.006 -0.005,0.008Zm0.007,-0.011c0.003,-0.004 0.005,-0.008 0.008,-0.013c-0.003,0.005 -0.005,0.009 -0.008,0.013Zm0.009,-0.016c0.003,-0.004 0.006,-0.009 0.009,-0.015c-0.003,0.006 -0.006,0.011 -0.009,0.015Zm0.01,-0.016c0.003,-0.006 0.005,-0.011 0.008,-0.017c-0.003,0.006 -0.005,0.011 -0.008,0.017Zm0.008,-0.017c0.115,-0.215 0.173,-0.455 0.173,-0.695c0,-0.178 -0.032,-0.357 -0.097,-0.527c0.065,0.171 0.098,0.351 0.097,0.53c0,0.239 -0.059,0.477 -0.173,0.692Zm0.072,-1.234c0,-0.001 -0.001,-0.002 -0.001,-0.002c0,0 0.001,0.001 0.001,0.002Zm-0.007,-0.017c0,0 0,0 0,-0.001c0,0.001 0,0.001 0,0.001Z" style="fill:#a8a8a8;fill-rule:nonzero;"/><path d="M385.866,346.963c0.34,-0.292 0.513,-0.705 0.513,-1.12c0,-0.343 -0.117,-0.687 -0.359,-0.967c-0.293,-0.339 -0.705,-0.512 -1.12,-0.512c-0.344,0 -0.687,0.118 -0.967,0.359l16.069,-13.871c0.281,-0.24 0.625,-0.358 0.967,-0.358c0.415,0 0.828,0.173 1.12,0.511c0.109,0.126 0.193,0.265 0.252,0.41c0,0.001 0,0.001 0,0.001c0.002,0.005 0.004,0.01 0.006,0.015c0,0 0.001,0.001 0.001,0.002c0.001,0.004 0.003,0.008 0.004,0.012c0.065,0.17 0.097,0.349 0.097,0.527c0,0.24 -0.058,0.48 -0.173,0.695c-0.003,0.006 -0.005,0.011 -0.008,0.017c0,0.001 -0.001,0.001 -0.001,0.001c-0.003,0.006 -0.006,0.011 -0.009,0.015c0,0.001 -0.001,0.002 -0.001,0.003c-0.003,0.005 -0.005,0.009 -0.008,0.013c0,0.002 -0.001,0.003 -0.002,0.003c-0.002,0.004 -0.003,0.006 -0.005,0.008c0,0.001 0,0.002 0,0.002c-0.003,0.005 -0.006,0.01 -0.009,0.015c-0.001,0.002 -0.002,0.002 -0.003,0.004c-0.002,0.004 -0.005,0.008 -0.007,0.012c-0.001,0.001 -0.002,0.003 -0.003,0.005c-0.002,0.003 -0.005,0.007 -0.007,0.011c-0.002,0.001 -0.002,0.003 -0.004,0.005c-0.002,0.003 -0.004,0.006 -0.005,0.009c-0.002,0.002 -0.004,0.005 -0.005,0.007c-0.002,0.002 -0.003,0.004 -0.004,0.006c-0.003,0.004 -0.005,0.007 -0.007,0.01c-0.001,0.001 -0.003,0.004 -0.004,0.005c-0.003,0.004 -0.005,0.008 -0.007,0.011c-0.001,0.001 -0.003,0.003 -0.004,0.005c-0.002,0.003 -0.004,0.007 -0.007,0.01c-0.001,0.001 -0.002,0.003 -0.004,0.005c-0.002,0.003 -0.004,0.006 -0.006,0.008l-0.011,0.015c-0.002,0.002 -0.002,0.003 -0.004,0.005c-0.002,0.003 -0.005,0.006 -0.008,0.01c-0.001,0.002 -0.002,0.003 -0.003,0.004l-0.012,0.015c-0.003,0.004 -0.006,0.007 -0.01,0.011c0,0.001 -0.001,0.002 -0.002,0.004c-0.003,0.004 -0.006,0.007 -0.009,0.011c-0.001,0 -0.002,0.001 -0.003,0.002c-0.003,0.004 -0.006,0.008 -0.009,0.011c-0.001,0.001 -0.001,0.002 -0.002,0.002c-0.003,0.004 -0.007,0.008 -0.01,0.012c-0.001,0.001 -0.002,0.002 -0.003,0.003c-0.003,0.003 -0.007,0.007 -0.01,0.011c-0.001,0.001 -0.001,0.001 -0.002,0.002c-0.003,0.004 -0.007,0.008 -0.011,0.012c-0.001,0.001 -0.002,0.002 -0.003,0.003c-0.003,0.004 -0.007,0.007 -0.01,0.011l-0.027,0.027l-0.001,0c-0.004,0.004 -0.008,0.008 -0.012,0.012c0,0.001 -0.001,0.002 -0.002,0.003c-0.004,0.003 -0.008,0.007 -0.012,0.011c-0.001,0 -0.001,0 -0.002,0.001c-0.004,0.004 -0.008,0.008 -0.012,0.011c-0.001,0.001 -0.002,0.002 -0.002,0.003c-0.004,0.003 -0.008,0.007 -0.013,0.011l-0.001,0.001c-0.005,0.004 -0.009,0.008 -0.013,0.012l-14.873,12.836l-1.198,1.034Z" style="fill:#a8a8a8;fill-rule:nonzero;"/><path d="M377.889,353.374l-0.001,0l-0.018,0c-0.004,-0.001 -0.007,-0.001 -0.011,-0.001l-0.012,0c-0.005,0 -0.012,0 -0.016,0l0,0c-0.21,-0.008 -0.419,-0.061 -0.609,-0.157c-0.001,-0.001 -0.001,-0.001 -0.002,-0.002c-0.002,-0.001 -0.006,-0.002 -0.008,-0.004c-0.004,-0.001 -0.008,-0.003 -0.01,-0.005c-0.002,0 -0.003,-0.001 -0.004,-0.002c-0.001,-0.001 -0.002,-0.001 -0.003,-0.002c-0.001,0 -0.004,-0.001 -0.004,-0.002c-0.004,-0.002 -0.005,-0.002 -0.008,-0.004c-0.095,-0.051 -0.187,-0.115 -0.27,-0.188c-0.051,-0.045 -0.099,-0.094 -0.145,-0.146c-0.241,-0.28 -0.358,-0.624 -0.358,-0.967c0,-0.415 0.173,-0.827 0.512,-1.12l0.966,-0.835l1.534,-1.323l4.511,-3.893c0.28,-0.241 0.623,-0.359 0.967,-0.359c0.415,0 0.827,0.173 1.12,0.512c0.242,0.28 0.359,0.624 0.359,0.967c0,0.415 -0.173,0.828 -0.513,1.12l-7.01,6.051c-0.088,0.076 -0.181,0.139 -0.279,0.191c-0.001,0 -0.002,0 -0.003,0.001c-0.004,0.002 -0.007,0.004 -0.011,0.006c-0.004,0.001 -0.008,0.004 -0.011,0.005c-0.001,0.001 -0.003,0.002 -0.004,0.002c-0.208,0.104 -0.435,0.155 -0.659,0.155Z" style="fill:#a8a8a8;fill-rule:nonzero;"/><path d="M424.439,336.651l-18.201,0c-0.818,0 -1.48,-0.662 -1.48,-1.48c0,-0.817 0.662,-1.48 1.48,-1.48l18.201,0c0.817,0 1.479,0.663 1.479,1.48c0,0.818 -0.662,1.48 -1.479,1.48Z" style="fill:#a8a8a8;fill-rule:nonzero;"/><path d="M440.317,345.563l-30.248,0c-0.818,0 -1.48,-0.662 -1.48,-1.48c0,-0.816 0.662,-1.479 1.48,-1.479l30.248,0c0.816,0 1.479,0.663 1.479,1.479c0,0.818 -0.663,1.48 -1.479,1.48Z" style="fill:#a8a8a8;fill-rule:nonzero;"/><path d="M419.649,353.514l-16.601,0c-0.818,0 -1.48,-0.662 -1.48,-1.479c0,-0.818 0.662,-1.48 1.48,-1.48l16.601,0c0.817,0 1.479,0.662 1.479,1.48c0,0.817 -0.662,1.479 -1.479,1.479Z" style="fill:#a8a8a8;fill-rule:nonzero;"/><path d="M433.06,362.835l-21.712,0c-0.817,0 -1.479,-0.662 -1.479,-1.479c0,-0.818 0.662,-1.48 1.479,-1.48l21.712,0c0.818,0 1.48,0.662 1.48,1.48c0,0.817 -0.662,1.479 -1.48,1.479Z" style="fill:#a8a8a8;fill-rule:nonzero;"/></g><g><path d="M581.298,134.081c-0.985,-1 -1.528,-2.322 -1.528,-3.729l0,-36.084c0,-1.461 0.587,-2.822 1.652,-3.836c-0.288,0.286 -0.448,0.678 -0.44,1.084c0.01,0.419 0.196,0.815 0.514,1.089l21.06,18.179l-19.763,-17.059c-0.042,0.176 -0.063,0.358 -0.063,0.543l0,36.084c0,0.082 0.004,0.165 0.013,0.245l11.041,-11.04l-12.459,12.457c-0.278,0.279 -0.434,0.655 -0.434,1.048c0,0.38 0.147,0.744 0.407,1.019Zm3.536,-1.39l2.084,-2.084l-2.084,2.084Z" style="fill:#a8a8a8;fill-rule:nonzero;"/><path d="M634.664,128.318c-0.381,0 -0.763,-0.148 -1.053,-0.441c0.291,0.293 0.673,0.441 1.054,0.441c0.017,0 0.035,-0.001 0.052,-0.001c-0.017,0 -0.035,0.001 -0.053,0.001Zm-13.904,-17.662l0,0l14.87,-12.836l-14.87,12.836Z" style="fill:#a8a8a8;fill-rule:nonzero;"/><path d="M654.616,135.663l-69.535,0c-1.419,0 -2.751,-0.552 -3.756,-1.555c-0.009,-0.009 -0.018,-0.018 -0.027,-0.027c-0.26,-0.275 -0.407,-0.639 -0.407,-1.019c0,-0.393 0.156,-0.769 0.434,-1.048l12.459,-12.457l8.772,-8.773l8.035,6.935l-5.789,-4.996l-17.884,17.884l-2.084,2.084c0.081,0.009 0.164,0.013 0.247,0.013l70.818,0c0.817,0 1.479,0.662 1.479,1.479c0,0.152 -0.022,0.297 -0.064,0.434c-0.933,0.277 -1.835,0.628 -2.698,1.046Z" style="fill:#a8a8a8;fill-rule:nonzero;"/><path d="M655.899,135.663l-1.283,0c0.863,-0.418 1.765,-0.769 2.698,-1.046c-0.186,0.606 -0.749,1.046 -1.415,1.046Z" style="fill:#a8a8a8;fill-rule:nonzero;"/><path d="M634.665,128.318c-0.381,0 -0.763,-0.148 -1.054,-0.441l-15.098,-15.282l-5.963,5.147l7.011,-6.052l1.199,-1.034l0,0l14.958,15.142c0.282,0.286 0.423,0.658 0.426,1.031c0.002,0.384 -0.144,0.77 -0.439,1.062c-0.276,0.271 -0.63,0.413 -0.988,0.426c-0.017,0 -0.035,0.001 -0.052,0.001Zm-23.082,-10.216c-0.228,0 -0.457,-0.054 -0.665,-0.159c0.031,0.016 0.063,0.031 0.096,0.044c0,0 0.001,0.001 0.003,0.001c0.002,0.002 0.005,0.003 0.008,0.004c0.175,0.071 0.36,0.107 0.546,0.109l0.014,0c0.171,0 0.343,-0.03 0.507,-0.09c0.164,-0.059 0.319,-0.149 0.458,-0.269c-0.278,0.24 -0.622,0.36 -0.967,0.36Zm-0.671,-0.161c-0.001,-0.001 -0.002,-0.002 -0.004,-0.003c0.002,0.001 0.003,0.002 0.004,0.003Z" style="fill:#a8a8a8;fill-rule:nonzero;"/><path d="M611.584,118.101c-0.001,0 -0.002,0 -0.002,0c0,0 0.001,0 0.002,0Zm-0.013,0c-0.186,-0.002 -0.371,-0.038 -0.546,-0.109c0.174,0.071 0.359,0.107 0.546,0.109Zm0.521,-0.09c0.163,-0.059 0.318,-0.149 0.458,-0.269c-0.139,0.12 -0.294,0.21 -0.458,0.269Zm-1.075,-0.023c-0.002,0 -0.003,-0.001 -0.003,-0.001c0,0 0.001,0.001 0.003,0.001Zm-0.426,-0.269l-8.035,-6.935l-21.06,-18.179c-0.318,-0.274 -0.504,-0.67 -0.514,-1.089c-0.008,-0.406 0.152,-0.798 0.44,-1.084c0.009,-0.008 0.017,-0.017 0.025,-0.025c0.995,-0.935 2.285,-1.45 3.634,-1.45l79.518,0c0.817,0 1.48,0.663 1.48,1.48c0,0.817 -0.663,1.479 -1.48,1.479l-79.372,0l26.357,22.751l22.114,-19.087c0.278,-0.242 0.621,-0.361 0.964,-0.361l0.001,0c-0.342,0.001 -0.686,0.119 -0.965,0.361l-16.069,13.87l-7.012,6.051c-0.34,0.293 -0.514,0.705 -0.514,1.12c0,0.343 0.118,0.688 0.36,0.967c0.04,0.047 0.083,0.091 0.128,0.131Zm25.501,-20.63l0,-0.001l0,0.001Zm0.004,-0.016c0.001,-0.002 0.001,-0.003 0.002,-0.004c-0.001,0.001 -0.001,0.002 -0.002,0.004Zm0.005,-0.017c0,-0.002 0.001,-0.004 0.002,-0.007c-0.001,0.003 -0.002,0.005 -0.002,0.007Zm0.002,-0.012c0.027,-0.113 0.041,-0.228 0.041,-0.344c0,-0.24 -0.058,-0.481 -0.175,-0.7c0.118,0.22 0.176,0.461 0.175,0.702c0,0.115 -0.014,0.23 -0.041,0.342Zm-0.137,-1.047c-0.001,-0.003 -0.003,-0.006 -0.004,-0.01c0.001,0.004 0.003,0.007 0.004,0.01Zm-0.008,-0.016c-0.001,-0.003 -0.003,-0.005 -0.004,-0.008c0.001,0.003 0.003,0.005 0.004,0.008Zm-0.009,-0.015c-0.001,-0.003 -0.003,-0.005 -0.004,-0.008c0.001,0.003 0.003,0.005 0.004,0.008Zm-0.009,-0.016c-0.001,-0.003 -0.002,-0.004 -0.004,-0.007c0.002,0.003 0.003,0.004 0.004,0.007Zm-0.009,-0.016c-0.002,-0.002 -0.003,-0.003 -0.004,-0.006c0.001,0.003 0.002,0.004 0.004,0.006Zm-0.011,-0.017c0,0 -0.001,-0.002 -0.002,-0.004c0.001,0.002 0.002,0.004 0.002,0.004Zm-0.011,-0.017l-0.001,-0.001l0.001,0.001Zm-0.043,-0.063c0,0 0,-0.001 0,-0.001c0,0 0,0.001 0,0.001Zm-0.01,-0.014c-0.001,-0.001 -0.001,-0.002 -0.001,-0.002c0,0 0,0.001 0.001,0.002Zm-0.011,-0.015c-0.001,-0.001 -0.001,-0.002 -0.002,-0.002c0.001,0 0.001,0.001 0.002,0.002Zm-0.011,-0.014c-0.001,-0.001 -0.002,-0.003 -0.002,-0.003c0,0 0.001,0.002 0.002,0.003Zm-0.011,-0.015c-0.001,-0.001 -0.002,-0.002 -0.003,-0.004c0.001,0.002 0.002,0.003 0.003,0.004Zm-0.012,-0.015c-0.001,0 -0.002,-0.001 -0.002,-0.003c0,0.002 0.001,0.003 0.002,0.003Zm-0.013,-0.015c0,0 -0.001,-0.001 -0.001,-0.002c0,0.001 0.001,0.002 0.001,0.002Z" style="fill:#a8a8a8;fill-rule:nonzero;"/><path d="M619.561,111.69c0.34,-0.292 0.513,-0.705 0.513,-1.12c0,-0.342 -0.117,-0.687 -0.36,-0.967c-0.291,-0.338 -0.705,-0.513 -1.121,-0.513c-0.342,0 -0.686,0.118 -0.964,0.36l16.069,-13.87c0.279,-0.242 0.623,-0.36 0.965,-0.361c0.416,0 0.829,0.175 1.121,0.514c0.004,0.004 0.009,0.009 0.013,0.014c0,0.001 0.001,0.002 0.001,0.002c0.004,0.004 0.007,0.008 0.011,0.012c0,0.002 0.001,0.003 0.002,0.003c0.003,0.004 0.006,0.008 0.009,0.011c0.001,0.002 0.002,0.003 0.003,0.004c0.002,0.004 0.005,0.008 0.009,0.012c0,0 0.001,0.002 0.002,0.003c0.003,0.004 0.006,0.008 0.009,0.012c0.001,0 0.001,0.001 0.002,0.002c0.003,0.004 0.006,0.009 0.01,0.013c0,0 0,0.001 0.001,0.002c0.003,0.005 0.007,0.009 0.01,0.013c0,0 0,0.001 0,0.001c0.016,0.021 0.029,0.041 0.042,0.062l0.001,0.001c0.003,0.005 0.006,0.009 0.009,0.013c0.001,0.002 0.002,0.004 0.002,0.004c0.003,0.004 0.005,0.008 0.007,0.011c0.001,0.003 0.002,0.004 0.004,0.006c0.001,0.003 0.004,0.006 0.005,0.009c0.002,0.003 0.003,0.004 0.004,0.007c0.002,0.003 0.003,0.005 0.005,0.008c0.001,0.003 0.003,0.005 0.004,0.008c0.001,0.002 0.003,0.004 0.005,0.007c0.001,0.003 0.003,0.005 0.004,0.008c0.001,0.002 0.002,0.004 0.004,0.006c0.001,0.004 0.003,0.007 0.004,0.01c0.001,0.001 0.002,0.002 0.003,0.003c0.117,0.219 0.175,0.46 0.175,0.7c0,0.116 -0.014,0.231 -0.041,0.344c0,0.001 0,0.003 0,0.005c-0.001,0.003 -0.002,0.005 -0.002,0.007c-0.002,0.004 -0.002,0.008 -0.003,0.013c-0.001,0.001 -0.001,0.002 -0.002,0.004c-0.001,0.005 -0.002,0.01 -0.004,0.015l0,0.001c-0.074,0.275 -0.229,0.531 -0.462,0.731l-14.87,12.836l-1.199,1.034Z" style="fill:#a8a8a8;fill-rule:nonzero;"/><path d="M611.585,118.101l-0.001,0c-0.001,0 -0.002,0 -0.002,0c-0.004,0 -0.007,0 -0.011,0c-0.187,-0.002 -0.372,-0.038 -0.546,-0.109c-0.003,-0.001 -0.006,-0.002 -0.008,-0.004c-0.002,0 -0.003,-0.001 -0.003,-0.001c-0.033,-0.013 -0.065,-0.028 -0.096,-0.044c-0.003,-0.001 -0.004,-0.001 -0.006,-0.002c-0.001,-0.001 -0.002,-0.002 -0.004,-0.003c-0.113,-0.057 -0.22,-0.13 -0.317,-0.219c-0.045,-0.04 -0.088,-0.084 -0.128,-0.131c-0.242,-0.279 -0.36,-0.624 -0.36,-0.967c0,-0.415 0.174,-0.827 0.514,-1.12l7.012,-6.051c0.278,-0.242 0.622,-0.36 0.964,-0.36c0.416,0 0.83,0.175 1.121,0.513c0.243,0.28 0.36,0.625 0.36,0.967c0,0.415 -0.173,0.828 -0.513,1.12l-7.011,6.052c-0.14,0.12 -0.295,0.21 -0.458,0.269c-0.164,0.06 -0.336,0.09 -0.507,0.09Z" style="fill:#a8a8a8;fill-rule:nonzero;"/><path d="M658.133,101.378l-18.201,0c-0.817,0 -1.48,-0.662 -1.48,-1.479c0,-0.818 0.663,-1.48 1.48,-1.48l18.201,0c0.818,0 1.48,0.662 1.48,1.48c0,0.817 -0.662,1.479 -1.48,1.479Z" style="fill:#a8a8a8;fill-rule:nonzero;"/><path d="M674.011,110.29l-30.248,0c-0.817,0 -1.48,-0.662 -1.48,-1.479c0,-0.817 0.663,-1.48 1.48,-1.48l30.248,0c0.818,0 1.48,0.663 1.48,1.48c0,0.817 -0.662,1.479 -1.48,1.479Z" style="fill:#a8a8a8;fill-rule:nonzero;"/><path d="M653.343,118.242l-16.6,0c-0.818,0 -1.48,-0.662 -1.48,-1.48c0,-0.817 0.662,-1.48 1.48,-1.48l16.6,0c0.817,0 1.48,0.663 1.48,1.48c0,0.818 -0.663,1.48 -1.48,1.48Z" style="fill:#a8a8a8;fill-rule:nonzero;"/><path d="M666.755,127.563l-21.712,0c-0.817,0 -1.48,-0.662 -1.48,-1.48c0,-0.817 0.663,-1.48 1.48,-1.48l21.712,0c0.817,0 1.479,0.663 1.479,1.48c0,0.818 -0.662,1.48 -1.479,1.48Z" style="fill:#a8a8a8;fill-rule:nonzero;"/></g><g><path d="M289.926,248.419c-0.006,-0.006 -0.013,-0.012 -0.018,-0.018c-1.003,-1.002 -1.555,-2.336 -1.555,-3.756l0,-36.083c0,-1.474 0.596,-2.846 1.679,-3.863c0.006,-0.005 0.013,-0.012 0.019,-0.017c-0.006,0.006 -0.013,0.012 -0.02,0.019c-0.305,0.287 -0.474,0.69 -0.465,1.11c0.008,0.419 0.195,0.814 0.512,1.088l1.298,1.12c-0.042,0.176 -0.064,0.358 -0.064,0.543l0,36.083c0,0.083 0.004,0.165 0.013,0.246l11.041,-11.041l-12.458,12.459c-0.278,0.277 -0.434,0.653 -0.434,1.046c0,0.393 0.156,0.769 0.434,1.047c0.006,0.005 0.012,0.011 0.018,0.017Zm17.736,-30.252l-13.852,-11.956l13.852,11.956Z" style="fill:#a8a8a8;fill-rule:nonzero;"/><path d="M343.246,242.611c-0.041,0 -0.083,-0.001 -0.125,-0.005c0.042,0.004 0.083,0.005 0.125,0.005c0.376,0 0.752,-0.142 1.04,-0.427c-0.288,0.285 -0.663,0.427 -1.04,0.427Z" style="fill:#a8a8a8;fill-rule:nonzero;"/><path d="M364.482,249.957l-70.819,0c-1.409,0 -2.736,-0.546 -3.737,-1.538c-0.006,-0.006 -0.012,-0.012 -0.018,-0.017c-0.278,-0.278 -0.434,-0.654 -0.434,-1.047c0,-0.393 0.156,-0.769 0.434,-1.046l12.458,-12.459l8.772,-8.772l2.247,1.939l-19.968,19.967c0.081,0.01 0.163,0.013 0.246,0.013l70.819,0c0.817,0 1.479,0.663 1.479,1.481c0,0.816 -0.662,1.479 -1.479,1.479Zm-21.236,-7.346c-0.042,0 -0.083,-0.001 -0.125,-0.005c-0.338,-0.029 -0.669,-0.174 -0.927,-0.435l-15.097,-15.283l-5.964,5.147l7.012,-6.051l1.197,-1.033l14.957,15.14c0.283,0.287 0.425,0.659 0.428,1.032c0.001,0.385 -0.145,0.77 -0.441,1.061c-0.288,0.285 -0.664,0.427 -1.04,0.427Zm-23.08,-10.216c-0.223,0 -0.446,-0.05 -0.65,-0.15c0.001,0 0.003,0.001 0.005,0.003c0.005,0.001 0.009,0.004 0.014,0.006c0.001,0.001 0.003,0.002 0.005,0.002c0.001,0.001 0.004,0.002 0.006,0.003c0.178,0.082 0.37,0.127 0.562,0.134c0.006,0.001 0.011,0.001 0.016,0.001l0.013,0c0.003,0.001 0.007,0.001 0.011,0.001l0.018,0c0.269,0 0.537,-0.073 0.776,-0.219c0.001,-0.001 0.003,-0.002 0.004,-0.004c0.004,-0.001 0.006,-0.003 0.009,-0.005c0.062,-0.039 0.121,-0.082 0.178,-0.132c-0.278,0.24 -0.622,0.36 -0.967,0.36Zm-0.651,-0.15c-0.004,-0.003 -0.008,-0.004 -0.012,-0.007c0.004,0.003 0.008,0.004 0.012,0.007Z" style="fill:#a8a8a8;fill-rule:nonzero;"/><path d="M320.166,232.395l-0.001,0l0.001,0Zm-0.013,0c-0.002,0 -0.003,0 -0.005,0c0.002,0 0.003,0 0.005,0Zm-0.016,-0.001c-0.002,0 -0.005,0 -0.007,0c0.002,0 0.005,0 0.007,0Zm-0.013,0c-0.005,0 -0.01,0 -0.016,-0.001c0.006,0.001 0.011,0.001 0.016,0.001Zm-0.016,-0.001c-0.192,-0.007 -0.384,-0.052 -0.562,-0.134c0.177,0.082 0.369,0.127 0.562,0.134Zm-0.568,-0.137c-0.002,0 -0.004,-0.001 -0.005,-0.002c0.001,0.001 0.003,0.002 0.005,0.002Zm1.402,-0.08c0.001,-0.001 0.003,-0.002 0.004,-0.004c-0.001,0.002 -0.003,0.003 -0.004,0.004Zm0.013,-0.009c0.062,-0.039 0.121,-0.082 0.178,-0.132c-0.057,0.05 -0.116,0.093 -0.178,0.132Zm-1.769,-0.143l-5.801,-5.007l-2.247,-1.939l-19.762,-17.059l-1.298,-1.12c-0.317,-0.274 -0.504,-0.669 -0.512,-1.088c-0.009,-0.42 0.16,-0.823 0.465,-1.11c0.007,-0.007 0.014,-0.013 0.02,-0.019c0.99,-0.923 2.272,-1.432 3.612,-1.432l65.812,0c-0.249,0.343 -0.396,0.763 -0.396,1.219c0,0.73 0.378,1.372 0.949,1.742l-66.218,0l13.852,11.956l12.504,10.793l22.114,-19.087c0.28,-0.24 0.624,-0.358 0.966,-0.358c0.415,0 0.828,0.173 1.121,0.512c-0.293,-0.339 -0.706,-0.512 -1.121,-0.512c-0.342,0 -0.686,0.118 -0.966,0.358l-16.07,13.871l-7.011,6.051c-0.339,0.293 -0.512,0.705 -0.512,1.12c0,0.343 0.118,0.687 0.358,0.967c0.045,0.051 0.092,0.099 0.141,0.142Z" style="fill:#a8a8a8;fill-rule:nonzero;"/><path d="M373.182,206.211l-13.154,0c-0.571,-0.37 -0.949,-1.012 -0.949,-1.742c0,-0.456 0.147,-0.876 0.396,-1.219l13.707,0c0.817,0 1.479,0.663 1.479,1.48c0,0.818 -0.662,1.481 -1.479,1.481Z" style="fill:#a8a8a8;fill-rule:nonzero;"/><path d="M344.227,212.102c0.001,0 0.002,-0.001 0.002,-0.001c0,0 -0.001,0.001 -0.002,0.001Zm0.014,-0.012c0,-0.001 0.002,-0.002 0.003,-0.003c-0.001,0.001 -0.003,0.002 -0.003,0.003Zm0.014,-0.013c0.001,-0.001 0.002,-0.002 0.004,-0.003c-0.002,0.001 -0.003,0.002 -0.004,0.003Zm0.013,-0.013c0.002,-0.001 0.003,-0.003 0.005,-0.004c-0.002,0.001 -0.003,0.003 -0.005,0.004Zm0.012,-0.012c0.003,-0.002 0.006,-0.004 0.007,-0.007c-0.001,0.003 -0.004,0.005 -0.007,0.007Zm0.013,-0.011c0.003,-0.004 0.006,-0.007 0.009,-0.01c-0.003,0.003 -0.006,0.006 -0.009,0.01Zm0.013,-0.014c0.004,-0.004 0.007,-0.008 0.011,-0.012c-0.003,0.004 -0.007,0.008 -0.011,0.012Zm0.014,-0.013c0.268,-0.283 0.406,-0.651 0.406,-1.021c0,-0.191 -0.036,-0.383 -0.112,-0.564c0.076,0.181 0.113,0.374 0.113,0.567c-0.001,0.369 -0.139,0.735 -0.407,1.018Zm0.293,-1.59c-0.002,-0.003 -0.003,-0.006 -0.004,-0.01c0.001,0.004 0.002,0.007 0.004,0.01Zm-0.007,-0.017c-0.001,-0.002 -0.003,-0.005 -0.003,-0.007c0,0.002 0.002,0.005 0.003,0.007Zm-0.008,-0.017c-0.001,-0.002 -0.001,-0.003 -0.002,-0.005c0.001,0.002 0.001,0.003 0.002,0.005Zm-0.008,-0.019c-0.001,0 -0.001,-0.001 -0.001,-0.001c0,0 0,0.001 0.001,0.001Z" style="fill:#a8a8a8;fill-rule:nonzero;"/><path d="M328.145,225.984c0.338,-0.292 0.512,-0.705 0.512,-1.12c0,-0.343 -0.118,-0.687 -0.36,-0.967c-0.293,-0.339 -0.705,-0.512 -1.12,-0.512c-0.343,0 -0.687,0.118 -0.967,0.359l16.07,-13.871c0.28,-0.24 0.624,-0.358 0.966,-0.358c0.415,0 0.828,0.173 1.121,0.512c0.091,0.106 0.166,0.222 0.222,0.343c0,0 0,0.001 0.001,0.001c0.001,0.005 0.004,0.009 0.006,0.014c0.001,0.002 0.001,0.003 0.002,0.005c0.001,0.003 0.003,0.006 0.005,0.01c0,0.002 0.002,0.005 0.003,0.007c0,0.003 0.002,0.005 0.003,0.007c0.001,0.004 0.002,0.007 0.004,0.01c0.001,0.001 0.001,0.003 0.001,0.005c0.076,0.181 0.112,0.373 0.112,0.564c0,0.37 -0.138,0.738 -0.406,1.021c-0.001,0 -0.002,0 -0.003,0.001c-0.004,0.004 -0.007,0.008 -0.011,0.012c-0.001,0.002 -0.003,0.003 -0.004,0.004c-0.003,0.003 -0.006,0.006 -0.009,0.01c-0.002,0.001 -0.003,0.003 -0.006,0.004c-0.001,0.003 -0.004,0.005 -0.007,0.007l-0.021,0.022c-0.002,0.001 -0.003,0.002 -0.004,0.003c-0.004,0.004 -0.007,0.007 -0.011,0.01c-0.001,0.001 -0.003,0.002 -0.003,0.003c-0.004,0.004 -0.008,0.007 -0.012,0.011c0,0 -0.001,0.001 -0.002,0.001c-0.005,0.004 -0.009,0.008 -0.013,0.011l-14.872,12.838l-1.197,1.033Z" style="fill:#a8a8a8;fill-rule:nonzero;"/><path d="M320.166,232.395l-0.001,0l-0.017,0c-0.004,0 -0.008,0 -0.011,-0.001l-0.013,0c-0.005,0 -0.01,0 -0.016,-0.001c-0.193,-0.007 -0.385,-0.052 -0.562,-0.134c-0.002,-0.001 -0.005,-0.002 -0.006,-0.003c-0.002,0 -0.004,-0.001 -0.005,-0.002c-0.005,-0.002 -0.009,-0.005 -0.014,-0.006c-0.002,-0.002 -0.004,-0.003 -0.005,-0.003l-0.001,0c-0.004,-0.003 -0.008,-0.004 -0.012,-0.007c-0.004,-0.001 -0.007,-0.003 -0.011,-0.005c-0.108,-0.056 -0.211,-0.125 -0.306,-0.209c-0.049,-0.043 -0.096,-0.091 -0.141,-0.142c-0.24,-0.28 -0.358,-0.624 -0.358,-0.967c0,-0.415 0.173,-0.827 0.512,-1.12l7.011,-6.051c0.28,-0.241 0.624,-0.359 0.967,-0.359c0.415,0 0.827,0.173 1.12,0.512c0.242,0.28 0.36,0.624 0.36,0.967c0,0.415 -0.174,0.828 -0.512,1.12l-7.012,6.051c-0.057,0.05 -0.116,0.093 -0.178,0.132c-0.003,0.002 -0.005,0.004 -0.009,0.005c-0.001,0.002 -0.003,0.003 -0.004,0.004c-0.239,0.146 -0.507,0.219 -0.776,0.219Z" style="fill:#a8a8a8;fill-rule:nonzero;"/><path d="M366.716,215.672l-18.201,0c-0.818,0 -1.48,-0.663 -1.48,-1.48c0,-0.817 0.662,-1.479 1.48,-1.479l18.201,0c0.817,0 1.48,0.662 1.48,1.479c0,0.817 -0.663,1.48 -1.48,1.48Z" style="fill:#a8a8a8;fill-rule:nonzero;"/><path d="M372.824,224.585l-20.478,0c-0.818,0 -1.48,-0.663 -1.48,-1.48c0,-0.817 0.662,-1.48 1.48,-1.48l20.478,0l0,2.96Z" style="fill:#a8a8a8;fill-rule:nonzero;"/><path d="M361.926,232.535l-16.6,0c-0.818,0 -1.48,-0.662 -1.48,-1.479c0,-0.818 0.662,-1.48 1.48,-1.48l16.6,0c0.817,0 1.479,0.662 1.479,1.48c0,0.817 -0.662,1.479 -1.479,1.479Z" style="fill:#a8a8a8;fill-rule:nonzero;"/><path d="M372.824,241.856l-19.198,0c-0.818,0 -1.48,-0.662 -1.48,-1.479c0,-0.818 0.662,-1.48 1.48,-1.48l19.198,0l0,2.959Z" style="fill:#a8a8a8;fill-rule:nonzero;"/><path d="M285.52,267.135l-7.138,0c-0.817,0 -1.479,-0.662 -1.479,-1.479c0,-0.817 0.662,-1.48 1.479,-1.48l7.138,0c0.818,0 1.48,0.663 1.48,1.48c0,0.817 -0.662,1.479 -1.48,1.479Z" style="fill:#a8a8a8;fill-rule:nonzero;"/><path d="M316.918,278.999l-35.168,0c-0.817,0 -1.479,-0.663 -1.479,-1.48c0,-0.817 0.662,-1.479 1.479,-1.479l35.168,0c0.817,0 1.48,0.662 1.48,1.479c0,0.817 -0.663,1.48 -1.48,1.48Z" style="fill:#a8a8a8;fill-rule:nonzero;"/></g><g><path d="M519.908,344.783c-0.985,-0.999 -1.529,-2.323 -1.529,-3.729l0,-17.385l2.96,0l0,17.385c0,0.082 0.004,0.165 0.013,0.246l9.968,-9.968l-11.385,11.385c-0.278,0.277 -0.434,0.653 -0.434,1.047c0,0.379 0.146,0.744 0.407,1.019Zm21.257,-23.297l-5.649,-4.877l0,-0.001l5.65,4.877l-0.001,0.001Z" style="fill:#a8a8a8;fill-rule:nonzero;"/><path d="M521.339,323.669l-2.96,0l0,-18.699c0,-1.463 0.589,-2.827 1.658,-3.841c-0.291,0.286 -0.454,0.68 -0.445,1.09c0.009,0.419 0.196,0.814 0.514,1.088l15.41,13.301l0,0.001l-14.113,-12.182c-0.042,0.176 -0.064,0.358 -0.064,0.543l0,18.699Z" style="fill:#a8a8a8;fill-rule:nonzero;"/><path d="M594.508,346.365l-70.818,0c-1.418,0 -2.751,-0.553 -3.755,-1.555c-0.01,-0.009 -0.018,-0.018 -0.027,-0.027c-0.261,-0.275 -0.407,-0.64 -0.407,-1.019c0,-0.394 0.156,-0.77 0.434,-1.047l11.385,-11.385l9.845,-9.846l0.001,-0.001l8.029,6.931l-5.783,-4.991l-1.431,1.431l-18.538,18.537c0.082,0.009 0.164,0.013 0.247,0.013l70.818,0c0.817,0 1.48,0.662 1.48,1.48c0,0.817 -0.663,1.479 -1.48,1.479Zm-21.235,-7.346c-0.101,0 -0.202,-0.01 -0.301,-0.031c-0.276,-0.057 -0.538,-0.193 -0.751,-0.409l-15.097,-15.283l1.047,-0.904l1.198,-1.034l0,0.001l14.958,15.141c0.282,0.286 0.424,0.658 0.426,1.031c0.003,0.385 -0.144,0.77 -0.439,1.061c-0.289,0.285 -0.665,0.427 -1.041,0.427Zm-23.08,-10.215c-0.206,0 -0.413,-0.044 -0.605,-0.13c0.011,0.005 0.023,0.01 0.035,0.015c0.001,0.001 0.002,0.001 0.003,0.002c0.003,0 0.006,0.002 0.008,0.003c0.175,0.071 0.361,0.107 0.547,0.109l0.013,0c0.15,0 0.3,-0.023 0.445,-0.069c0.159,-0.05 0.312,-0.128 0.451,-0.234c-0.265,0.202 -0.581,0.304 -0.897,0.304Zm-0.614,-0.134l0,0l0,0Z" style="fill:#a8a8a8;fill-rule:nonzero;"/><path d="M550.193,328.803c0,0 -0.001,0 -0.002,0c0.001,0 0.002,0 0.002,0Zm-0.012,0c-0.186,-0.002 -0.372,-0.038 -0.547,-0.109c0.174,0.071 0.36,0.107 0.547,0.109Zm0.458,-0.069c0.186,-0.058 0.363,-0.155 0.521,-0.291c-0.023,0.02 -0.046,0.039 -0.07,0.057c-0.139,0.106 -0.292,0.184 -0.451,0.234Zm-1.013,-0.043c-0.001,-0.001 -0.002,-0.001 -0.003,-0.002c0.001,0.001 0.002,0.001 0.003,0.002Zm-0.431,-0.275l-8.029,-6.931l-5.65,-4.877c0.379,-1.077 0.584,-2.22 0.597,-3.393l14.08,12.153l22.114,-19.086c0.279,-0.241 0.623,-0.359 0.965,-0.359l0.001,0c-0.343,0 -0.685,0.118 -0.966,0.359l-16.069,13.87l-7.011,6.051c-0.341,0.293 -0.513,0.705 -0.513,1.12c0,0.343 0.117,0.688 0.359,0.968c0.038,0.044 0.079,0.086 0.122,0.125Zm26.616,-25.797l-39.697,0l0,-2.96l39.697,0l0,2.96Z" style="fill:#a8a8a8;fill-rule:nonzero;"/><path d="M535.516,316.608l-15.41,-13.301c-0.318,-0.274 -0.505,-0.669 -0.514,-1.088c-0.009,-0.41 0.154,-0.804 0.445,-1.09c0.007,-0.007 0.014,-0.013 0.02,-0.019c0.994,-0.936 2.284,-1.451 3.633,-1.451l12.424,0l0,2.96l-12.277,0l12.276,10.596c-0.013,1.173 -0.218,2.316 -0.597,3.393Z" style="fill:#a8a8a8;fill-rule:nonzero;"/><path d="M558.171,322.392c0.34,-0.292 0.513,-0.705 0.513,-1.12c0,-0.343 -0.118,-0.687 -0.36,-0.967c-0.292,-0.338 -0.704,-0.512 -1.12,-0.512c-0.343,0 -0.686,0.118 -0.966,0.359l16.069,-13.87c0.281,-0.241 0.623,-0.359 0.966,-0.359c0.416,0 0.828,0.173 1.121,0.512c0.004,0.005 0.008,0.01 0.012,0.014l0,0.001c0.004,0.005 0.008,0.01 0.012,0.014l0.001,0c0.072,0.088 0.132,0.183 0.181,0.281c0.001,0.002 0.003,0.005 0.004,0.008c0.001,0.002 0.002,0.004 0.003,0.007c0.002,0.003 0.004,0.007 0.006,0.011c0,0.001 0.001,0.002 0.001,0.003c0.002,0.005 0.005,0.01 0.007,0.014c0.089,0.196 0.132,0.405 0.132,0.614c0,0.127 -0.016,0.254 -0.048,0.377c-0.001,0.003 -0.002,0.006 -0.003,0.009c0,0.002 0,0.003 -0.001,0.006c-0.001,0.004 -0.002,0.008 -0.004,0.013l0,0.001c-0.076,0.268 -0.229,0.518 -0.457,0.714l-14.871,12.836l-1.198,1.034Z" style="fill:#a8a8a8;fill-rule:nonzero;"/><path d="M550.194,328.803l-0.001,0l-0.012,0c-0.187,-0.002 -0.373,-0.038 -0.547,-0.109c-0.002,-0.001 -0.005,-0.003 -0.008,-0.003c-0.001,-0.001 -0.002,-0.001 -0.003,-0.002c-0.012,-0.005 -0.024,-0.01 -0.035,-0.015c-0.003,-0.001 -0.005,-0.002 -0.009,-0.004l0,0c-0.138,-0.063 -0.268,-0.147 -0.384,-0.254c-0.043,-0.039 -0.084,-0.081 -0.122,-0.125c-0.242,-0.28 -0.359,-0.625 -0.359,-0.968c0,-0.415 0.172,-0.827 0.513,-1.12l7.011,-6.051c0.28,-0.241 0.623,-0.359 0.966,-0.359c0.416,0 0.828,0.174 1.12,0.512c0.242,0.28 0.36,0.624 0.36,0.967c0,0.415 -0.173,0.828 -0.513,1.12l-1.047,0.904l-5.964,5.147c-0.158,0.136 -0.335,0.233 -0.521,0.291c-0.145,0.046 -0.295,0.069 -0.445,0.069Z" style="fill:#a8a8a8;fill-rule:nonzero;"/><path d="M579.077,312.08l-0.535,0c-0.818,0 -1.48,-0.662 -1.48,-1.479c0,-0.346 0.118,-0.663 0.316,-0.915c0.468,0.853 1.036,1.655 1.699,2.394Z" style="fill:#a8a8a8;fill-rule:nonzero;"/><path d="M596.743,312.08l-17.666,0c-0.663,-0.739 -1.231,-1.541 -1.699,-2.394c0.271,-0.344 0.692,-0.565 1.164,-0.565l18.201,0c0.817,0 1.48,0.662 1.48,1.48c0,0.817 -0.663,1.479 -1.48,1.479Z" style="fill:#a8a8a8;fill-rule:nonzero;"/><path d="M612.621,320.993l-30.248,0c-0.818,0 -1.48,-0.662 -1.48,-1.48c0,-0.817 0.662,-1.48 1.48,-1.48l30.248,0c0.817,0 1.479,0.663 1.479,1.48c0,0.818 -0.662,1.48 -1.479,1.48Z" style="fill:#a8a8a8;fill-rule:nonzero;"/><path d="M591.953,328.944l-16.601,0c-0.817,0 -1.48,-0.663 -1.48,-1.48c0,-0.817 0.663,-1.48 1.48,-1.48l16.601,0c0.817,0 1.479,0.663 1.479,1.48c0,0.817 -0.662,1.48 -1.479,1.48Z" style="fill:#a8a8a8;fill-rule:nonzero;"/><path d="M605.364,338.264l-21.711,0c-0.818,0 -1.48,-0.662 -1.48,-1.479c0,-0.818 0.662,-1.48 1.48,-1.48l21.711,0c0.818,0 1.48,0.662 1.48,1.48c0,0.817 -0.662,1.479 -1.48,1.479Z" style="fill:#a8a8a8;fill-rule:nonzero;"/><path d="M566.224,377.757l-19.651,0c-0.816,0 -1.479,-0.662 -1.479,-1.479c0,-0.818 0.663,-1.48 1.479,-1.48l19.651,0c0.816,0 1.479,0.662 1.479,1.48c0,0.817 -0.663,1.479 -1.479,1.479Z" style="fill:#a8a8a8;fill-rule:nonzero;"/><path d="M586.291,377.757l-11.818,0c-0.818,0 -1.48,-0.662 -1.48,-1.479c0,-0.818 0.662,-1.48 1.48,-1.48l11.818,0c0.818,0 1.48,0.662 1.48,1.48c0,0.817 -0.662,1.479 -1.48,1.479Z" style="fill:#a8a8a8;fill-rule:nonzero;"/></g><path d="M499.059,323.989l18.537,-18.537l-18.537,18.537Z" style="fill:#a8a8a8;fill-rule:nonzero;"/><path d="M548.889,319.615c-0.101,0 -0.202,-0.01 -0.301,-0.031c0.099,0.021 0.2,0.031 0.301,0.031c0.376,0 0.752,-0.142 1.041,-0.427c-0.289,0.286 -0.664,0.427 -1.041,0.427Zm-1.052,-0.439l-15.097,-15.284l15.097,15.284Zm-12.852,-17.221l0,-0.001l14.871,-12.836l-14.871,12.837Z" style="fill:#a8a8a8;fill-rule:nonzero;"/><path d="M550.313,288.404l0,-0.001l0,0.001Zm0.004,-0.014c0.001,-0.003 0.001,-0.004 0.001,-0.006c0,0.002 0,0.003 -0.001,0.006Zm0.004,-0.015c0.032,-0.123 0.048,-0.25 0.048,-0.377c0,-0.209 -0.043,-0.418 -0.132,-0.614c0.089,0.196 0.133,0.407 0.133,0.616c-0.001,0.127 -0.017,0.253 -0.049,0.375Zm-0.084,-0.991c-0.003,-0.004 -0.005,-0.009 -0.007,-0.014c0.002,0.005 0.004,0.01 0.007,0.014Zm-0.008,-0.017c-0.002,-0.004 -0.004,-0.008 -0.006,-0.011c0.002,0.004 0.004,0.007 0.006,0.011Zm-0.009,-0.018c-0.001,-0.003 -0.003,-0.006 -0.005,-0.008c0.002,0.002 0.004,0.005 0.005,0.008Zm-0.185,-0.289l-0.001,0l0.001,0Zm-0.013,-0.014l0,-0.001l0,0.001Z" style="fill:#a8a8a8;fill-rule:nonzero;"/><g><path d="M328.7,128.318l-46.95,0c-0.817,0 -1.479,-0.663 -1.479,-1.48c0,-0.818 0.662,-1.48 1.479,-1.48l46.95,0c0.817,0 1.479,0.662 1.479,1.48c0,0.817 -0.662,1.48 -1.479,1.48Z" style="fill:#a8a8a8;fill-rule:nonzero;"/><path d="M349.016,128.318l-11.819,0c-0.818,0 -1.48,-0.663 -1.48,-1.48c0,-0.818 0.662,-1.48 1.48,-1.48l11.819,0c0.818,0 1.48,0.662 1.48,1.48c0,0.817 -0.662,1.48 -1.48,1.48Z" style="fill:#a8a8a8;fill-rule:nonzero;"/></g><g><path d="M532.782,58.118l-19.65,0c-0.817,0 -1.48,-0.662 -1.48,-1.48c0,-0.817 0.663,-1.48 1.48,-1.48l19.65,0c0.817,0 1.479,0.663 1.479,1.48c0,0.818 -0.662,1.48 -1.479,1.48Z" style="fill:#a8a8a8;fill-rule:nonzero;"/><path d="M592.818,58.118l-51.786,0c-0.818,0 -1.48,-0.662 -1.48,-1.48c0,-0.817 0.662,-1.48 1.48,-1.48l51.786,0c0.817,0 1.479,0.663 1.479,1.48c0,0.818 -0.662,1.48 -1.479,1.48Z" style="fill:#a8a8a8;fill-rule:nonzero;"/></g><g><path d="M327.362,313.091l-5.936,0c-0.817,0 -1.479,-0.663 -1.479,-1.479c0,-0.818 0.662,-1.48 1.479,-1.48l5.936,0c0.817,0 1.48,0.662 1.48,1.48c0,0.816 -0.663,1.479 -1.48,1.479Z" style="fill:#a8a8a8;fill-rule:nonzero;"/><path d="M387.398,312.713l-51.787,0c-0.817,0 -1.48,-0.662 -1.48,-1.479c0,-0.818 0.663,-1.48 1.48,-1.48l51.787,0c0.817,0 1.48,0.662 1.48,1.48c0,0.817 -0.663,1.479 -1.48,1.479Z" style="fill:#a8a8a8;fill-rule:nonzero;"/></g><g><path d="M517.603,118.242l-14.491,0c-0.817,0 -1.48,-0.662 -1.48,-1.48c0,-0.817 0.663,-1.48 1.48,-1.48l14.491,0c0.817,0 1.479,0.663 1.479,1.48c0,0.818 -0.662,1.48 -1.479,1.48Z" style="fill:#a8a8a8;fill-rule:nonzero;"/><path d="M544.172,128.318l-26.569,0c-0.818,0 -1.48,-0.663 -1.48,-1.48c0,-0.818 0.662,-1.48 1.48,-1.48l26.569,0c0.817,0 1.48,0.662 1.48,1.48c0,0.817 -0.663,1.48 -1.48,1.48Z" style="fill:#a8a8a8;fill-rule:nonzero;"/></g></g><g id="banner"><path d="M306.499,262.11l0,38.521l-294.55,0l0,-31.064l0,-7.458l0,-30.394l105.017,0l0.143,30.394l189.39,0.001Z" style="fill:#fed756;fill-rule:nonzero;"/><g transform="matrix(0.792126,0,0,0.792126,-24.2173,-121.896)"><path d="M59.404,456.83l15.469,0l0,3.477l-11.563,0l0,8.32l11.172,0l0,3.496l-11.172,0l0,8.477l11.934,0l0,3.476l-15.84,0l0,-27.246Z" style="fill-rule:nonzero;"/><path d="M101.123,456.83l3.632,0l0,27.285l-3.925,0l0,-21.23l-8.399,10.547l-0.723,0l-8.476,-10.547l0,21.23l-3.906,0l0,-27.285l3.672,0l9.082,11.211l9.043,-11.211Z" style="fill-rule:nonzero;"/><path d="M119.345,456.674l2.754,0l12.207,27.441l-4.004,0l-3.633,-8.085l-11.601,0l-3.438,8.085l-4.004,0l11.719,-27.441Zm5.723,15.879l-4.395,-9.883l-4.082,9.883l8.477,0Z" style="fill-rule:nonzero;"/><rect x="137.353" y="456.83" width="3.906" height="27.285" style="fill-rule:nonzero;"/><path d="M147.314,456.83l3.906,0l0,23.731l12.285,0l0,3.554l-16.191,0l0,-27.285Z" style="fill-rule:nonzero;"/><path d="M57.08,496.791l22.793,0l0,3.477l-9.512,0l0,23.847l-3.926,0l0,-23.847l-9.355,0l0,-3.477Z" style="fill-rule:nonzero;"/><path d="M83.564,496.83l15.469,0l0,3.477l-11.563,0l0,8.32l11.172,0l0,3.496l-11.172,0l0,8.477l11.934,0l0,3.476l-15.84,0l0,-27.246Z" style="fill-rule:nonzero;"/><path d="M125.283,496.83l3.632,0l0,27.285l-3.925,0l0,-21.23l-8.399,10.547l-0.722,0l-8.477,-10.547l0,21.23l-3.906,0l0,-27.285l3.672,0l9.082,11.211l9.043,-11.211Z" style="fill-rule:nonzero;"/><path d="M134.58,524.115l0,-27.324l8.652,0c2.604,0 4.681,0.703 6.23,2.11c1.55,1.406 2.325,3.294 2.325,5.664c0,1.588 -0.398,2.995 -1.192,4.218c-0.794,1.224 -1.881,2.113 -3.262,2.666c-1.38,0.554 -3.359,0.831 -5.937,0.831l-2.891,0l0,11.835l-3.925,0Zm7.968,-23.847l-4.043,0l0,8.535l4.278,0c1.588,0 2.812,-0.374 3.672,-1.123c0.859,-0.749 1.289,-1.82 1.289,-3.213c0,-2.799 -1.732,-4.199 -5.196,-4.199Z" style="fill-rule:nonzero;"/><path d="M155.185,496.83l3.906,0l0,23.731l12.285,0l0,3.554l-16.191,0l0,-27.285Z" style="fill-rule:nonzero;"/><path d="M183.505,496.674l2.754,0l12.207,27.441l-4.004,0l-3.632,-8.085l-11.602,0l-3.438,8.085l-4.003,0l11.718,-27.441Zm5.723,15.879l-4.395,-9.883l-4.082,9.883l8.477,0Z" style="fill-rule:nonzero;"/><path d="M195.146,496.791l22.793,0l0,3.477l-9.512,0l0,23.847l-3.926,0l0,-23.847l-9.355,0l0,-3.477Z" style="fill-rule:nonzero;"/><path d="M221.63,496.83l15.469,0l0,3.477l-11.562,0l0,8.32l11.171,0l0,3.496l-11.171,0l0,8.477l11.933,0l0,3.476l-15.84,0l0,-27.246Z" style="fill-rule:nonzero;"/><rect x="240.224" y="513.354" width="9.727" height="3.809" style="fill-rule:nonzero;"/><path d="M263.798,524.115l-9.238,0l0,-27.285l7.148,0c2.253,0 4.011,0.303 5.274,0.909c1.263,0.605 2.226,1.438 2.891,2.5c0.664,1.061 0.996,2.288 0.996,3.681c0,2.682 -1.387,4.603 -4.161,5.762c1.993,0.378 3.578,1.198 4.756,2.461c1.179,1.263 1.768,2.773 1.768,4.531c0,1.393 -0.358,2.637 -1.074,3.731c-0.716,1.093 -1.768,1.985 -3.155,2.675c-1.386,0.69 -3.121,1.035 -5.205,1.035Zm-1.972,-23.808l-3.36,0l0,8.203l2.598,0c2.083,0 3.564,-0.397 4.443,-1.191c0.879,-0.795 1.319,-1.823 1.319,-3.086c0,-2.618 -1.667,-3.926 -5,-3.926Zm0.293,11.68l-3.653,0l0,8.652l3.848,0c2.135,0 3.584,-0.166 4.346,-0.498c0.761,-0.332 1.373,-0.85 1.836,-1.553c0.462,-0.703 0.693,-1.458 0.693,-2.265c0,-0.834 -0.244,-1.596 -0.733,-2.286c-0.488,-0.69 -1.181,-1.204 -2.08,-1.543c-0.898,-0.338 -2.317,-0.507 -4.257,-0.507Z" style="fill-rule:nonzero;"/><path d="M296.064,496.83l3.926,0l0,15.489c0,2.096 -0.153,3.678 -0.459,4.746c-0.306,1.067 -0.684,1.956 -1.133,2.666c-0.449,0.709 -0.999,1.344 -1.65,1.904c-2.162,1.862 -4.987,2.793 -8.477,2.793c-3.555,0 -6.406,-0.924 -8.555,-2.773c-0.651,-0.573 -1.201,-1.215 -1.65,-1.924c-0.449,-0.71 -0.82,-1.579 -1.113,-2.608c-0.293,-1.028 -0.44,-2.643 -0.44,-4.843l0,-15.45l3.926,0l0,15.489c0,2.565 0.293,4.349 0.879,5.351c0.586,1.003 1.478,1.807 2.676,2.412c1.198,0.606 2.61,0.908 4.238,0.908c2.318,0 4.206,-0.605 5.664,-1.816c0.768,-0.651 1.322,-1.419 1.66,-2.305c0.339,-0.885 0.508,-2.402 0.508,-4.55l0,-15.489Z" style="fill-rule:nonzero;"/><rect x="305.439" y="496.83" width="3.906" height="27.285" style="fill-rule:nonzero;"/><path d="M315.4,496.83l3.906,0l0,23.731l12.285,0l0,3.554l-16.191,0l0,-27.285Z" style="fill-rule:nonzero;"/><path d="M335.048,524.076l0,-27.246l9.2,0c3.71,0 6.647,0.557 8.808,1.67c2.162,1.114 3.88,2.751 5.156,4.912c1.276,2.162 1.914,4.519 1.914,7.071c0,1.823 -0.351,3.567 -1.054,5.234c-0.703,1.667 -1.706,3.132 -3.008,4.395c-1.328,1.302 -2.871,2.285 -4.629,2.949c-1.029,0.403 -1.973,0.674 -2.832,0.81c-0.859,0.137 -2.5,0.205 -4.922,0.205l-8.633,0Zm8.789,-23.769l-4.882,0l0,20.293l5,0c1.953,0 3.47,-0.134 4.55,-0.401c1.081,-0.266 1.983,-0.605 2.705,-1.015c0.723,-0.41 1.384,-0.915 1.983,-1.514c1.927,-1.953 2.89,-4.42 2.89,-7.402c0,-2.93 -0.989,-5.319 -2.968,-7.168c-0.729,-0.69 -1.566,-1.257 -2.51,-1.699c-0.944,-0.443 -1.839,-0.736 -2.686,-0.879c-0.846,-0.143 -2.207,-0.215 -4.082,-0.215Z" style="fill-rule:nonzero;"/><path d="M365.009,496.83l15.469,0l0,3.477l-11.563,0l0,8.32l11.172,0l0,3.496l-11.172,0l0,8.477l11.934,0l0,3.476l-15.84,0l0,-27.246Z" style="fill-rule:nonzero;"/><path d="M385.126,524.115l0,-27.285l6.836,0c2.761,0 4.952,0.684 6.573,2.051c1.621,1.367 2.431,3.216 2.431,5.547c0,1.589 -0.397,2.962 -1.191,4.121c-0.794,1.159 -1.934,2.025 -3.418,2.598c0.872,0.573 1.725,1.354 2.558,2.343c0.834,0.99 2.006,2.715 3.516,5.176c0.951,1.55 1.712,2.715 2.285,3.496l1.446,1.953l-4.649,0l-1.191,-1.796c-0.039,-0.065 -0.117,-0.176 -0.235,-0.332l-0.761,-1.075l-1.211,-1.992l-1.309,-2.129c-0.807,-1.12 -1.546,-2.011 -2.217,-2.676c-0.67,-0.664 -1.276,-1.142 -1.816,-1.435c-0.54,-0.293 -1.449,-0.44 -2.725,-0.44l-1.015,0l0,11.875l-3.907,0Zm5.079,-23.964l-1.172,0l0,8.613l1.484,0c1.979,0 3.337,-0.169 4.072,-0.508c0.736,-0.338 1.309,-0.849 1.719,-1.533c0.41,-0.684 0.615,-1.462 0.615,-2.334c0,-0.859 -0.228,-1.637 -0.683,-2.334c-0.456,-0.697 -1.097,-1.188 -1.924,-1.475c-0.827,-0.286 -2.197,-0.429 -4.111,-0.429Z" style="fill-rule:nonzero;"/></g></g><path d="M190.814,94.285c-12.86,2.728 -44.415,11.417 -62.581,33.617c-0.573,0.701 -0.747,1.656 -0.47,2.515c0.17,0.501 0.485,0.934 0.881,1.248c0.29,0.23 0.639,0.393 1.009,0.491l32.469,7.987c0.062,-0.095 0.093,-0.207 0.159,-0.295l28.533,-45.563Z" style="fill:#1f1f1f;fill-rule:nonzero;"/><path d="M241.222,216.009c17.051,-23.037 17.982,-55.681 17.602,-68.469l-37.834,38.601c-0.053,0.068 -0.104,0.094 -0.168,0.158l15.462,29.911c0.174,0.343 0.429,0.641 0.713,0.869c0.034,0.047 0.063,0.069 0.074,0.073c1.153,0.904 2.827,0.707 3.728,-0.435c0.195,-0.222 0.319,-0.468 0.423,-0.708Z" style="fill:#1f1f1f;fill-rule:nonzero;"/><path d="M297.562,90.534c7.902,-14.331 13.583,-36.959 8.795,-52.243c-0.12,-0.356 -0.184,-0.737 -0.296,-1.079c-0.313,-0.865 -0.711,-1.636 -1.092,-2.439c-0.229,-0.49 -0.417,-1.046 -0.664,-1.517c-0.293,-0.518 -0.662,-0.95 -0.975,-1.444c-0.44,-0.681 -0.86,-1.405 -1.367,-2.029c-0.241,-0.287 -0.557,-0.513 -0.805,-0.778c-0.691,-0.752 -1.387,-1.506 -2.2,-2.146c-0.586,-0.461 -1.239,-0.792 -1.882,-1.187c-0.553,-0.341 -1.076,-0.751 -1.665,-1.055c-0.926,-0.446 -1.91,-0.77 -2.912,-1.095c-0.341,-0.112 -0.657,-0.283 -1.009,-0.381c-0.817,-0.221 -1.663,-0.317 -2.5,-0.459c-0.601,-0.1 -1.156,-0.265 -1.764,-0.325c-0.365,-0.041 -0.753,-0.011 -1.134,-0.039c-11.521,-0.781 -25.473,4.592 -36.938,11.871c-1.923,1.207 -3.738,2.498 -5.485,3.8c-3.656,2.714 -6.939,5.534 -9.572,8.342c-0.98,1.03 -1.864,2.049 -2.661,3.06l-60.233,96.197c-1.188,1.736 -0.825,4.093 0.814,5.39l35.891,28.283c1.654,1.307 4.032,1.103 5.437,-0.457l79.635,-81.234c1.563,-1.984 3.097,-4.362 4.582,-7.036Zm-56.964,10.351c-6.741,-5.313 -7.902,-15.085 -2.587,-21.83c5.314,-6.741 15.091,-7.9 21.844,-2.57c6.729,5.309 7.896,15.083 2.583,21.823c-5.323,6.731 -15.091,7.881 -21.84,2.577Z" style="fill:#1f1f1f;fill-rule:nonzero;"/><path d="M188.498,185.193c-8.441,5.612 -16.129,9.051 -19.436,6.437c-3.319,-2.619 -1.782,-10.885 1.708,-20.415c-5.063,-1.157 -9.998,0.203 -14.271,5.616c-7.127,9.044 -28.875,50.37 -20.623,56.889c8.252,6.495 43.374,-24.288 50.501,-33.332c4.262,-5.417 4.415,-10.542 2.121,-15.195Z" style="fill:#1f1f1f;fill-rule:nonzero;"/><g id="main-color"><path d="M714.27,172.221c0,-3.088 -1.319,-5.85 -3.402,-7.809l-61.996,53.514l62.269,63.032c1.932,-1.941 3.129,-4.616 3.129,-7.575l0,-101.162Z" style="fill:#fbcc66;fill-rule:nonzero;"/><path d="M547.573,164.412c-2.082,1.959 -3.401,4.721 -3.401,7.809l0,101.162c0,2.97 1.204,5.655 3.147,7.599l62.683,-62.683l-62.429,-53.887Z" style="fill:#fbcc66;fill-rule:nonzero;"/><path d="M629.222,234.89l-19.22,-16.591l-62.683,62.683c1.944,1.944 4.63,3.144 7.597,3.144l148.612,0c2.976,0 5.666,-1.211 7.613,-3.168l-62.269,-63.032l-19.65,16.964Z" style="fill:#fbcc66;fill-rule:nonzero;"/><path d="M629.222,234.89l81.646,-70.478c-1.922,-1.806 -4.492,-2.934 -7.34,-2.934l-148.612,0c-2.846,0 -5.419,1.128 -7.343,2.934l81.649,70.478Z" style="fill:#fedb69;fill-rule:nonzero;"/><path d="M696.457,152.756l0,139.807l22.62,-3.746l0,-132.03l-22.62,-4.031Z" style="fill:#687695;fill-rule:nonzero;"/><path d="M719.077,288.817l138.77,-22.983l0,-84.294l-138.77,-24.753l0,132.03Z" style="fill:#616a7a;fill-rule:nonzero;"/><path d="M607.024,222.206c0,16.894 13.69,30.585 30.582,30.585l0,-61.165c-16.892,0 -30.582,13.692 -30.582,30.58Z" style="fill:#fed756;fill-rule:nonzero;"/><path d="M876.359,278.311l-18.512,0l0,-111.023l18.512,0" style="fill:#687695;fill-rule:nonzero;"/><path d="M804.212,274.719l0,46.944l30.062,0l0,-51.924l-30.062,4.98Z" style="fill:#687695;fill-rule:nonzero;"/><path d="M432.669,253.662l15.573,-13.438l35.319,-30.49l0,-24.154l0,-54.67l-101.43,0l0,79.131l35.311,30.479l15.227,13.142Z" style="fill:#f3f4f4;fill-rule:nonzero;"/><path d="M497.355,197.827l-49.113,42.397l49.331,49.936c1.532,-1.537 2.479,-3.657 2.479,-5.997l0,-80.15c0,-2.448 -1.048,-4.635 -2.697,-6.186Z" style="fill:#95ade0;fill-rule:nonzero;"/><path d="M367.981,197.827c-1.648,1.551 -2.691,3.738 -2.691,6.186l0,80.15c0,2.35 0.949,4.48 2.493,6.018l49.659,-49.661l-49.461,-42.693Z" style="fill:#95ade0;fill-rule:nonzero;"/><path d="M432.669,253.662l-15.227,-13.142l-49.659,49.661c1.538,1.54 3.664,2.491 6.016,2.491l117.741,0c2.36,0 4.49,-0.96 6.033,-2.512l-49.331,-49.936l-15.573,13.438Z" style="fill:#95ade0;fill-rule:nonzero;"/><path d="M382.131,185.261l-14.15,12.566l14.15,12.214l0,-24.78Z" style="fill:#687695;fill-rule:nonzero;"/><path d="M497.355,197.827l-13.794,-12.247l0,24.154l13.794,-11.907Z" style="fill:#687695;fill-rule:nonzero;"/><path d="M393.485,178.454c0,2.351 1.906,4.257 4.259,4.257l32.794,0c2.35,0 4.256,-1.906 4.256,-4.257l0,-30c0,-2.349 -1.906,-4.255 -4.256,-4.255l-32.794,0c-2.353,0 -4.259,1.906 -4.259,4.255l0,30Z" style="fill:#fed756;fill-rule:nonzero;"/><path d="M681.041,318.902c8.513,0 15.416,-6.903 15.416,-15.418l0,-162.55c0,-8.518 -6.903,-15.421 -15.416,-15.421l-28.015,0c-8.517,0 -15.42,6.903 -15.42,15.421l0,162.55c0,8.515 6.903,15.418 15.42,15.418l28.015,0Z" style="fill:#616a7a;fill-rule:nonzero;"/></g><g id="main-border"><path d="M653.026,127.089c-7.197,0 -13.052,5.855 -13.052,13.053l0,162.549c0,7.197 5.855,13.051 13.052,13.051l28.015,0c7.195,0 13.049,-5.854 13.049,-13.051l0,-162.549c0,-7.198 -5.854,-13.053 -13.049,-13.053l-28.015,0Zm28.015,193.388l-28.015,0c-9.807,0 -17.787,-7.978 -17.787,-17.786l0,-162.549c0,-9.808 7.98,-17.788 17.787,-17.788l28.015,0c9.806,0 17.784,7.98 17.784,17.788l0,162.549c0,9.808 -7.978,17.786 -17.784,17.786Z" style="fill:#303030;fill-rule:nonzero;"/><path d="M698.825,154.79l0,134.189l17.884,-2.962l0,-128.039l-17.884,-3.188Zm-2.368,139.348c-0.557,0 -1.1,-0.196 -1.531,-0.562c-0.53,-0.449 -0.836,-1.11 -0.836,-1.806l0,-139.806c0,-0.701 0.31,-1.365 0.847,-1.815c0.539,-0.45 1.253,-0.639 1.935,-0.515l22.62,4.03c1.13,0.201 1.953,1.184 1.953,2.331l0,132.029c0,1.159 -0.838,2.147 -1.981,2.336l-22.62,3.746c-0.129,0.022 -0.259,0.032 -0.387,0.032Z" style="fill:#303030;fill-rule:nonzero;"/><path d="M721.445,158.822l0,126.411l134.034,-22.198l0,-80.305l-134.034,-23.908Zm-2.368,131.57c-0.558,0 -1.1,-0.196 -1.532,-0.561c-0.529,-0.45 -0.836,-1.111 -0.836,-1.807l0,-132.029c0,-0.701 0.31,-1.365 0.848,-1.815c0.538,-0.449 1.247,-0.638 1.936,-0.516l138.774,24.753c1.125,0.201 1.949,1.184 1.949,2.331l0,84.294c0,1.158 -0.84,2.146 -1.981,2.336l-138.771,22.982c-0.13,0.022 -0.259,0.032 -0.387,0.032Z" style="fill:#303030;fill-rule:nonzero;"/><path d="M637.606,158.614l0,4.143l-82.69,0c-1.409,0 -2.779,0.348 -4.012,1.003l55.283,47.718c4.224,-13.327 16.711,-23.012 31.419,-23.012l0,65.9c-13.862,0 -25.752,-8.605 -30.61,-20.754c-1.021,-2.555 -1.731,-5.265 -2.084,-8.086l-21.867,21.867l-32.621,32.621c1.341,0.814 2.883,1.249 4.492,1.249l82.69,0l0,4.143l-82.69,0c-3.405,0 -6.606,-1.318 -9.021,-3.711c-0.014,-0.014 -0.028,-0.027 -0.042,-0.041c-2.42,-2.422 -3.753,-5.641 -3.753,-9.063l0,-101.162c0,-3.53 1.424,-6.822 4.011,-9.277c0.014,-0.014 0.029,-0.028 0.043,-0.042c2.4,-2.254 5.513,-3.496 8.762,-3.496l82.69,0Zm-84.194,12.784l-5.635,-4.864c-0.998,1.433 -1.533,3.121 -1.533,4.895l0,101.162c0,1.609 0.435,3.152 1.251,4.493l57.197,-57.198c0.06,-1.312 0.197,-2.605 0.407,-3.873l-51.687,-44.615Zm81.827,21.902c-14.454,1.206 -25.848,13.355 -25.848,28.113c0,14.762 11.394,26.913 25.848,28.121l0,-56.234Z" style="fill:#303030;fill-rule:nonzero;"/><path d="M876.359,279.886l-18.512,0c-1.307,0 -2.368,-1.06 -2.368,-2.367l0,-111.023c0,-1.308 1.061,-2.368 2.368,-2.368l18.512,0c1.307,0 2.369,1.06 2.369,2.368c0,1.307 -1.062,2.367 -2.369,2.367l-16.143,0l0,106.289l16.143,0c1.307,0 2.369,1.06 2.369,2.367c0,1.307 -1.062,2.367 -2.369,2.367Z" style="fill:#303030;fill-rule:nonzero;"/><path d="M806.573,318.503l25.332,0l0,-46.764l-25.332,4.195l0,42.569Zm27.701,4.735l-30.062,0c-1.315,0 -2.368,-1.059 -2.368,-2.367l0,-46.944c0,-1.159 0.832,-2.147 1.98,-2.336l30.061,-4.979c0.69,-0.114 1.387,0.08 1.917,0.53c0.531,0.449 0.84,1.109 0.84,1.805l0,51.924c0,1.308 -1.062,2.367 -2.368,2.367Z" style="fill:#303030;fill-rule:nonzero;"/><path d="M380.059,183.539l0,-53.421c0,-1.144 0.928,-2.072 2.072,-2.072l101.43,0c1.145,0 2.072,0.928 2.072,2.072l0,53.739l13.095,11.626c0.016,0.014 0.031,0.028 0.047,0.043c2.159,2.031 3.349,4.764 3.349,7.695l0,80.15c0,2.814 -1.095,5.464 -3.082,7.459c-0.013,0.013 -0.027,0.026 -0.04,0.039c-1.997,1.988 -4.644,3.082 -7.462,3.082l-117.741,0c-2.829,0 -5.486,-1.1 -7.482,-3.098c-0.011,-0.011 -0.022,-0.022 -0.033,-0.034c-1.977,-1.988 -3.066,-4.632 -3.066,-7.448l0,-80.15c0,-2.932 1.187,-5.665 3.342,-7.695c0.02,-0.018 0.04,-0.036 0.06,-0.054l13.439,-11.933Zm110.361,101.535l-42.291,-42.808l-14.107,12.172c-0.667,0.576 -1.609,0.658 -2.354,0.246l-0.005,-0.002l0,0l0,0l-0.009,-0.005c-0.119,-0.067 -0.232,-0.147 -0.339,-0.239l-13.769,-11.884l-23.48,23.481l-23.113,23.114c0.872,0.431 1.841,0.659 2.846,0.659l117.741,0c1.019,0 2,-0.236 2.884,-0.68l-4.004,-4.054Zm-122.181,-85.08c-0.573,0.971 -0.877,2.075 -0.877,3.227l0,80.15c0,1.007 0.228,1.976 0.659,2.85l46.38,-46.382l-33.624,-29.021l-12.538,-10.824Zm129.097,86.186c0.421,-0.865 0.644,-1.82 0.644,-2.809l0,-80.15c0,-1.152 -0.306,-2.257 -0.881,-3.229l-45.826,39.56l32.224,32.619l13.839,14.009Zm-78.796,-48.241l14.129,12.195l48.692,-42.029l0.129,-0.111l0,-75.804l-97.288,0l0,76.11l34.338,29.639Zm-47.415,-40.927l8.934,7.711l0,-15.644l-8.934,7.933Zm123.085,0l-8.577,-7.614l0,15.018l5.219,-4.505l3.358,-2.899Zm-63.672,-13.022l-32.794,0c-3.491,0 -6.331,-2.838 -6.331,-6.328l0,-30c0,-3.488 2.84,-6.327 6.331,-6.327l32.794,0c3.489,0 6.328,2.839 6.328,6.327l0,30c0,3.489 -2.838,6.327 -6.328,6.328Zm0,-38.512l-32.794,0c-1.207,0.001 -2.187,0.98 -2.187,2.184l0,30c0,1.204 0.98,2.185 2.187,2.185l32.794,0c1.205,0 2.185,-0.981 2.185,-2.185l0,-30c0,-1.204 -0.98,-2.183 -2.185,-2.184Z" style="fill:#303030;fill-rule:nonzero;"/><path d="M472.032,196.227l-120.487,0c-1.143,0 -2.072,-0.929 -2.072,-2.073c0,-1.143 0.929,-2.071 2.072,-2.071l120.487,0c1.144,0 2.071,0.928 2.071,2.071c0,1.144 -0.927,2.073 -2.071,2.073Z" style="fill:#303030;fill-rule:nonzero;"/><path d="M457.808,213.072l-46.952,0c-1.144,0 -2.071,-0.928 -2.071,-2.071c0,-1.144 0.927,-2.072 2.071,-2.072l46.952,0c1.144,0 2.072,0.928 2.072,2.072c0,1.143 -0.928,2.071 -2.072,2.071Z" style="fill:#303030;fill-rule:nonzero;"/><path d="M517.603,153.99l-71.638,0c-1.144,0 -2.072,-0.928 -2.072,-2.073c0,-1.143 0.928,-2.071 2.072,-2.071l71.638,0c1.144,0 2.071,0.928 2.071,2.071c0,1.145 -0.927,2.073 -2.071,2.073Z" style="fill:#303030;fill-rule:nonzero;"/><path d="M474.148,172.631l-28.183,0c-1.144,0 -2.072,-0.928 -2.072,-2.072c0,-1.143 0.928,-2.071 2.072,-2.071l28.183,0c1.145,0 2.072,0.928 2.072,2.071c0,1.144 -0.927,2.072 -2.072,2.072Z" style="fill:#303030;fill-rule:nonzero;"/></g></g></svg>