<?xml version="1.0" encoding="UTF-8" standalone="no"?>
<!DOCTYPE svg PUBLIC "-//W3C//DTD SVG 1.1//EN" "http://www.w3.org/Graphics/SVG/1.1/DTD/svg11.dtd">
<svg width="100%" height="100%" viewBox="0 0 900 400" version="1.1" xmlns="http://www.w3.org/2000/svg" xmlns:xlink="http://www.w3.org/1999/xlink" xml:space="preserve" xmlns:serif="http://www.serif.com/" style="fill-rule:evenodd;clip-rule:evenodd;stroke-linejoin:round;stroke-miterlimit:2;">
    <g transform="matrix(0.792126,0,0,0.792126,-28.5895,-60.7399)">
        <g transform="matrix(0.899017,0,0,0.899017,86.0838,14.5612)">
            <path d="M701.654,278.87L661.295,278.87L661.295,253.964C661.295,252.52 660.125,251.349 658.68,251.349L530.63,251.349C529.185,251.349 528.015,252.52 528.015,253.964L528.015,321.403L515.867,332.191L492.018,332.191C490.573,332.191 489.403,333.362 489.403,334.806C489.403,336.25 490.573,337.421 492.018,337.421L510.125,337.421C507.947,339.868 506.755,342.957 506.755,346.251L506.755,447.434C506.755,451.007 508.143,454.359 510.664,456.876L510.667,456.88L510.672,456.885L510.676,456.888C513.193,459.405 516.546,460.791 520.112,460.791L668.752,460.791C672.331,460.791 675.693,459.392 678.221,456.852L678.222,456.852L678.222,456.85L678.224,456.849L678.225,456.849C680.732,454.33 682.113,450.986 682.113,447.434L682.113,346.251C682.113,342.552 680.611,339.101 677.885,336.537L677.863,336.523L677.829,336.486L661.295,321.806L661.295,284.1L701.654,284.1C703.099,284.1 704.269,282.929 704.269,281.485C704.269,280.041 703.099,278.87 701.654,278.87Z" style="fill:rgb(193,193,193);fill-rule:nonzero;"/>
        </g>
        <g transform="matrix(0.899017,0,0,0.899017,86.0838,14.5612)">
            <path d="M1154.2,438.602L1154.2,304.421C1155.85,304.421 1157.19,303.083 1157.19,301.432C1157.19,299.782 1155.85,298.444 1154.2,298.444L1130.84,298.444C1129.19,298.444 1127.85,299.782 1127.85,301.432L1127.85,315.856L956.173,285.234L956.171,285.234L930.08,280.584L930.08,268.162C930.08,255.78 920.009,245.707 907.629,245.707L872.263,245.707C859.882,245.707 849.808,255.78 849.808,268.162L849.808,291.482L748.406,291.482C744.304,291.482 740.375,293.05 737.346,295.897L737.344,295.898C734.044,299.002 732.228,303.18 732.228,307.66L732.228,435.37C732.228,439.691 733.91,443.754 736.965,446.811L736.972,446.817C740.025,449.867 744.086,451.548 748.406,451.548L849.808,451.548L849.808,473.37C849.808,485.75 859.882,495.822 872.263,495.822L907.629,495.822C920.009,495.822 930.08,485.75 930.08,473.37L930.08,462.118L956.136,457.802L1060.13,440.579L1060.13,496.32C1060.13,497.97 1061.47,499.308 1063.12,499.308L1101.07,499.308C1102.73,499.308 1104.06,497.97 1104.06,496.32L1104.06,433.303L1127.85,429.364L1127.85,441.591C1127.85,443.242 1129.19,444.58 1130.84,444.58L1154.2,444.58C1155.85,444.58 1157.19,443.242 1157.19,441.591C1157.19,439.94 1155.85,438.602 1154.2,438.602Z" style="fill:rgb(193,193,193);fill-rule:nonzero;"/>
        </g>
        <g id="mail-fly" transform="matrix(0.899017,0,0,0.899017,86.0838,14.5612)">
            <g>
                <path d="M501.969,212.712L501.968,212.711C500.702,211.446 500.005,209.762 500.005,207.971L500.005,162.418C500.005,160.557 500.759,158.825 502.126,157.541C502.134,157.534 502.141,157.527 502.149,157.519C502.141,157.527 502.132,157.535 502.124,157.544C501.738,157.906 501.525,158.415 501.537,158.944C501.548,159.473 501.784,159.972 502.183,160.318L503.822,161.732C503.769,161.954 503.741,162.184 503.741,162.418L503.741,207.971C503.741,208.075 503.746,208.178 503.757,208.281L517.695,194.342L501.968,210.07C501.618,210.42 501.421,210.895 501.421,211.391C501.421,211.886 501.618,212.361 501.969,212.712ZM528.771,183.268L527.547,182.211L528.771,183.268ZM525.457,175.471L506.894,159.449L525.457,175.471Z" style="fill:rgb(168,168,168);fill-rule:nonzero;"/>
                <path d="M569.305,205.402C568.823,205.402 568.342,205.217 567.976,204.847C568.342,205.217 568.823,205.402 569.305,205.402C569.424,205.402 569.542,205.391 569.659,205.368C569.542,205.391 569.424,205.402 569.305,205.402Z" style="fill:rgb(168,168,168);fill-rule:nonzero;"/>
                <path d="M596.112,214.676L506.71,214.676C504.92,214.676 503.236,213.978 501.969,212.712C501.618,212.361 501.421,211.886 501.421,211.391C501.421,210.895 501.618,210.42 501.968,210.07L517.695,194.342L528.771,183.268L531.606,185.715L506.398,210.924C506.501,210.935 506.605,210.94 506.71,210.94L596.112,210.94C597.144,210.94 597.98,211.776 597.98,212.808C597.98,213.839 597.144,214.676 596.112,214.676ZM569.305,205.402C568.823,205.402 568.342,205.217 567.976,204.847L548.917,185.553L541.388,192.051L550.239,184.412L551.751,183.107L570.634,202.221C570.991,202.583 571.17,203.053 571.173,203.523C571.176,204.009 570.99,204.495 570.618,204.863C570.345,205.133 570.01,205.301 569.659,205.368C569.542,205.391 569.424,205.402 569.305,205.402ZM540.167,192.505C539.878,192.505 539.589,192.438 539.324,192.305C539.37,192.328 539.417,192.349 539.464,192.368C539.466,192.369 539.468,192.37 539.47,192.37C539.474,192.372 539.477,192.373 539.48,192.374C539.485,192.376 539.49,192.378 539.494,192.38C539.695,192.457 539.906,192.499 540.118,192.504L540.12,192.504C540.123,192.504 540.127,192.505 540.131,192.505L540.168,192.505C540.486,192.505 540.805,192.424 541.092,192.26C541.093,192.26 541.094,192.259 541.095,192.259C541.1,192.256 541.105,192.253 541.11,192.25C541.115,192.247 541.121,192.244 541.126,192.24L541.127,192.24C541.218,192.185 541.305,192.122 541.388,192.051C541.037,192.354 540.602,192.505 540.167,192.505ZM539.323,192.304C539.32,192.302 539.317,192.301 539.313,192.299C539.317,192.301 539.32,192.302 539.323,192.304ZM539.299,192.291C539.298,192.291 539.297,192.29 539.296,192.29C539.297,192.29 539.298,192.291 539.299,192.291Z" style="fill:rgb(168,168,168);fill-rule:nonzero;"/>
                <path d="M540.167,192.505L540.166,192.505L540.167,192.505ZM540.151,192.505L540.144,192.505L540.151,192.505ZM540.131,192.505C540.127,192.505 540.123,192.504 540.12,192.504C540.123,192.504 540.127,192.505 540.131,192.505ZM540.118,192.504C539.906,192.499 539.695,192.457 539.494,192.38C539.694,192.457 539.906,192.499 540.118,192.504ZM539.494,192.38C539.49,192.378 539.485,192.376 539.48,192.374C539.485,192.376 539.49,192.378 539.494,192.38ZM539.47,192.37C539.468,192.37 539.466,192.369 539.464,192.368C539.466,192.369 539.468,192.37 539.47,192.37ZM541.092,192.26C541.093,192.26 541.094,192.259 541.095,192.259C541.094,192.259 541.093,192.26 541.092,192.26ZM541.11,192.25C541.115,192.247 541.121,192.244 541.126,192.24C541.121,192.244 541.115,192.247 541.11,192.25ZM541.127,192.24C541.218,192.185 541.305,192.122 541.388,192.051C541.305,192.122 541.218,192.185 541.127,192.24ZM538.941,192.047L531.606,185.715L528.771,183.268L527.547,182.211L503.822,161.732L502.183,160.318C501.784,159.972 501.548,159.473 501.537,158.944C501.525,158.415 501.738,157.906 502.124,157.544C502.132,157.535 502.141,157.527 502.149,157.519C503.4,156.354 505.018,155.713 506.71,155.713L607.096,155.713C608.127,155.713 608.963,156.549 608.963,157.581C608.963,158.612 608.127,159.449 607.096,159.449L506.894,159.449L525.457,175.471L540.167,188.169L538.946,189.223C538.519,189.592 538.299,190.113 538.299,190.637C538.299,191.07 538.448,191.504 538.753,191.858C538.812,191.926 538.875,191.989 538.941,192.047ZM542.063,186.533L568.084,164.073C568.437,163.769 568.871,163.62 569.304,163.62C569.828,163.62 570.35,163.839 570.719,164.267C570.35,163.839 569.828,163.62 569.304,163.62C568.871,163.62 568.437,163.769 568.084,164.073L547.797,181.584L542.063,186.533ZM570.542,166.887C570.543,166.886 570.544,166.886 570.545,166.885C570.544,166.886 570.543,166.886 570.542,166.887ZM570.559,166.872C570.561,166.87 570.562,166.869 570.563,166.868C570.562,166.869 570.561,166.87 570.559,166.872ZM570.577,166.856C570.579,166.854 570.58,166.852 570.582,166.851C570.58,166.852 570.579,166.854 570.577,166.856ZM570.595,166.839C570.597,166.837 570.598,166.835 570.6,166.834C570.598,166.835 570.597,166.837 570.595,166.839ZM570.611,166.824C570.613,166.821 570.616,166.819 570.618,166.816C570.616,166.819 570.613,166.821 570.611,166.824ZM570.626,166.808C570.629,166.805 570.633,166.802 570.636,166.798C570.633,166.802 570.629,166.805 570.626,166.808ZM570.643,166.791C570.646,166.788 570.65,166.784 570.653,166.781C570.65,166.784 570.646,166.788 570.643,166.791ZM570.66,166.774C570.662,166.771 570.665,166.769 570.667,166.766C570.665,166.769 570.662,166.771 570.66,166.774ZM570.677,166.756C570.679,166.753 570.682,166.75 570.684,166.748C570.682,166.75 570.679,166.753 570.677,166.756ZM570.689,166.742C570.693,166.738 570.697,166.734 570.701,166.729C570.697,166.733 570.693,166.738 570.689,166.742ZM570.705,166.725C570.709,166.72 570.714,166.715 570.718,166.71C570.714,166.715 570.709,166.72 570.705,166.725ZM570.721,166.707C570.725,166.701 570.73,166.696 570.734,166.691C570.73,166.696 570.725,166.701 570.721,166.707ZM570.737,166.688C570.742,166.682 570.747,166.675 570.752,166.669C570.747,166.675 570.742,166.682 570.737,166.688ZM570.752,166.669C570.76,166.659 570.768,166.649 570.776,166.639C570.768,166.649 570.76,166.659 570.752,166.669ZM570.777,166.638C570.782,166.632 570.787,166.626 570.791,166.62C570.787,166.626 570.782,166.632 570.777,166.638ZM570.793,166.617C570.797,166.612 570.801,166.606 570.805,166.601C570.801,166.606 570.797,166.612 570.793,166.617ZM570.809,166.597C570.813,166.591 570.816,166.586 570.82,166.581C570.816,166.586 570.813,166.591 570.809,166.597ZM570.823,166.577C570.827,166.571 570.831,166.566 570.835,166.56C570.831,166.566 570.827,166.571 570.823,166.577ZM570.837,166.557C570.839,166.554 570.842,166.55 570.844,166.547C570.842,166.55 570.839,166.554 570.837,166.557ZM570.844,166.547C570.849,166.54 570.853,166.534 570.858,166.527C570.853,166.534 570.849,166.54 570.844,166.547ZM570.861,166.522C570.864,166.517 570.867,166.513 570.871,166.508C570.867,166.512 570.864,166.517 570.861,166.522ZM570.875,166.501C570.878,166.497 570.88,166.492 570.883,166.488C570.88,166.492 570.878,166.497 570.875,166.501ZM570.887,166.481C570.89,166.477 570.893,166.473 570.895,166.469C570.893,166.473 570.89,166.477 570.887,166.481ZM570.9,166.46C570.902,166.458 570.904,166.455 570.905,166.452C570.904,166.455 570.902,166.458 570.9,166.46ZM570.913,166.439C570.914,166.437 570.916,166.435 570.917,166.432C570.916,166.435 570.914,166.437 570.913,166.439ZM570.925,166.418C570.926,166.416 570.927,166.414 570.929,166.412C570.927,166.414 570.926,166.416 570.925,166.418ZM570.937,166.398C570.938,166.397 570.939,166.395 570.94,166.393C570.939,166.395 570.938,166.397 570.937,166.398ZM570.947,166.379C570.948,166.377 570.949,166.376 570.949,166.375C570.949,166.376 570.948,166.377 570.947,166.379ZM570.958,166.358C570.959,166.357 570.959,166.356 570.96,166.355C570.959,166.356 570.959,166.357 570.958,166.358ZM570.969,166.337C570.97,166.336 570.97,166.335 570.971,166.334C570.97,166.335 570.97,166.336 570.969,166.337ZM570.98,166.317C570.98,166.316 570.98,166.315 570.981,166.314C570.98,166.315 570.98,166.316 570.98,166.317ZM571.173,165.446C571.173,165.443 571.172,165.439 571.172,165.435C571.172,165.439 571.173,165.443 571.173,165.446ZM571.172,165.426L571.172,165.411L571.172,165.426ZM571.171,165.405C571.171,165.4 571.171,165.394 571.17,165.389C571.171,165.394 571.171,165.4 571.171,165.405ZM571.17,165.385C571.17,165.379 571.17,165.373 571.169,165.367C571.17,165.373 571.17,165.379 571.17,165.385ZM571.169,165.365C571.169,165.359 571.168,165.352 571.168,165.346C571.168,165.352 571.169,165.359 571.169,165.365ZM571.168,165.346C571.158,165.211 571.133,165.076 571.093,164.945C571.133,165.076 571.158,165.211 571.168,165.346ZM571.093,164.945C571.091,164.939 571.089,164.932 571.087,164.926C571.089,164.932 571.091,164.939 571.093,164.945ZM571.087,164.924C571.085,164.918 571.083,164.912 571.081,164.907C571.083,164.913 571.085,164.918 571.087,164.924ZM571.08,164.904C571.078,164.898 571.076,164.893 571.074,164.887C571.076,164.893 571.078,164.898 571.08,164.904ZM571.073,164.884C571.071,164.878 571.069,164.873 571.068,164.867C571.069,164.873 571.071,164.878 571.073,164.884ZM571.067,164.866C571.061,164.85 571.055,164.833 571.049,164.818C571.055,164.834 571.061,164.85 571.067,164.866ZM571.045,164.808C571.044,164.805 571.043,164.802 571.042,164.799C571.043,164.802 571.044,164.805 571.045,164.808ZM571.037,164.787C571.036,164.784 571.035,164.782 571.034,164.779C571.035,164.782 571.036,164.784 571.037,164.787ZM571.029,164.766C571.028,164.764 571.027,164.762 571.026,164.759C571.027,164.762 571.028,164.764 571.029,164.766ZM571.02,164.745C571.019,164.743 571.018,164.741 571.017,164.74C571.018,164.741 571.019,164.743 571.02,164.745ZM571.01,164.724C571.01,164.722 571.009,164.721 571.008,164.72C571.009,164.721 571.01,164.722 571.01,164.724ZM571,164.701C571,164.701 571,164.7 570.999,164.7C571,164.7 571,164.701 571,164.701ZM570.766,164.323L570.765,164.322C570.765,164.322 570.766,164.322 570.766,164.323ZM570.751,164.305C570.751,164.304 570.75,164.304 570.75,164.303C570.75,164.304 570.751,164.304 570.751,164.305ZM570.736,164.286C570.735,164.286 570.735,164.285 570.735,164.285C570.735,164.285 570.735,164.286 570.736,164.286Z" style="fill:rgb(168,168,168);fill-rule:nonzero;"/>
                <path d="M550.239,184.412C550.667,184.043 550.886,183.522 550.886,182.998C550.886,182.565 550.738,182.13 550.432,181.777C550.063,181.349 549.542,181.13 549.018,181.13C548.586,181.13 548.151,181.279 547.797,181.584L568.084,164.073C568.437,163.769 568.871,163.62 569.304,163.62C569.828,163.62 570.35,163.839 570.719,164.267C570.724,164.273 570.73,164.279 570.735,164.285C570.735,164.285 570.735,164.286 570.736,164.286C570.74,164.292 570.745,164.298 570.75,164.303C570.75,164.304 570.751,164.304 570.751,164.305C570.756,164.31 570.76,164.316 570.765,164.322L570.766,164.323C570.771,164.329 570.775,164.335 570.78,164.341C570.868,164.454 570.941,164.575 570.999,164.7C571,164.7 571,164.701 571,164.701C571.003,164.707 571.006,164.714 571.008,164.72C571.009,164.721 571.01,164.722 571.01,164.724C571.013,164.729 571.015,164.734 571.017,164.74C571.018,164.741 571.019,164.743 571.02,164.745C571.022,164.75 571.024,164.755 571.026,164.759C571.027,164.762 571.028,164.764 571.029,164.766C571.031,164.77 571.032,164.775 571.034,164.779C571.035,164.782 571.036,164.784 571.037,164.787C571.039,164.791 571.04,164.795 571.042,164.799C571.043,164.802 571.044,164.805 571.045,164.808C571.047,164.811 571.048,164.814 571.049,164.818C571.055,164.833 571.061,164.85 571.067,164.866C571.067,164.866 571.067,164.867 571.068,164.867C571.069,164.873 571.071,164.878 571.073,164.884C571.074,164.885 571.074,164.886 571.074,164.887C571.076,164.893 571.078,164.898 571.08,164.904C571.08,164.905 571.081,164.906 571.081,164.907C571.083,164.912 571.085,164.918 571.087,164.924L571.087,164.926C571.089,164.932 571.091,164.939 571.093,164.945C571.133,165.076 571.158,165.211 571.168,165.346C571.168,165.352 571.169,165.359 571.169,165.365L571.169,165.367C571.17,165.373 571.17,165.379 571.17,165.385L571.17,165.389C571.171,165.394 571.171,165.4 571.171,165.405C571.171,165.407 571.171,165.409 571.172,165.411L571.172,165.435C571.172,165.439 571.173,165.443 571.173,165.446L571.173,165.488C571.173,165.772 571.108,166.055 570.981,166.314C570.98,166.315 570.98,166.316 570.98,166.317C570.977,166.323 570.974,166.328 570.971,166.334C570.97,166.335 570.97,166.336 570.969,166.337C570.966,166.343 570.963,166.349 570.96,166.355C570.959,166.356 570.959,166.357 570.958,166.358C570.955,166.364 570.952,166.369 570.949,166.375C570.949,166.376 570.948,166.377 570.947,166.379C570.945,166.383 570.942,166.388 570.94,166.393C570.939,166.395 570.938,166.397 570.937,166.398C570.934,166.403 570.931,166.408 570.929,166.412C570.927,166.414 570.926,166.416 570.925,166.418C570.922,166.423 570.92,166.428 570.917,166.432C570.916,166.435 570.914,166.437 570.913,166.439C570.91,166.444 570.908,166.448 570.905,166.452C570.904,166.455 570.902,166.458 570.9,166.46C570.899,166.463 570.897,166.466 570.895,166.469C570.893,166.473 570.89,166.477 570.887,166.481C570.886,166.483 570.885,166.485 570.883,166.488C570.88,166.492 570.878,166.497 570.875,166.501C570.873,166.503 570.872,166.506 570.871,166.508C570.867,166.513 570.864,166.517 570.861,166.522C570.86,166.524 570.859,166.525 570.858,166.527C570.853,166.534 570.839,166.554 570.837,166.557C570.836,166.558 570.836,166.559 570.835,166.56C570.831,166.566 570.827,166.571 570.823,166.577C570.822,166.578 570.821,166.58 570.82,166.581C570.816,166.586 570.813,166.591 570.809,166.597C570.808,166.598 570.807,166.599 570.805,166.601C570.801,166.606 570.797,166.612 570.793,166.617C570.792,166.618 570.792,166.619 570.791,166.62C570.787,166.626 570.782,166.632 570.777,166.638L570.776,166.639C570.768,166.649 570.76,166.659 570.752,166.669C570.747,166.675 570.742,166.682 570.737,166.688C570.736,166.689 570.735,166.69 570.734,166.691C570.73,166.696 570.725,166.701 570.721,166.707C570.72,166.708 570.719,166.709 570.718,166.71C570.714,166.715 570.709,166.72 570.705,166.725C570.704,166.726 570.702,166.728 570.701,166.729C570.697,166.734 570.693,166.738 570.689,166.742C570.688,166.744 570.686,166.746 570.684,166.748C570.682,166.75 570.679,166.753 570.677,166.756C570.674,166.759 570.67,166.763 570.667,166.766C570.665,166.769 570.662,166.771 570.66,166.774C570.657,166.776 570.655,166.779 570.653,166.781C570.65,166.784 570.646,166.788 570.643,166.791C570.641,166.794 570.638,166.796 570.636,166.798C570.633,166.802 570.629,166.805 570.626,166.808C570.624,166.811 570.621,166.813 570.618,166.816C570.616,166.819 570.613,166.821 570.611,166.824C570.607,166.827 570.604,166.83 570.6,166.834C570.598,166.835 570.597,166.837 570.595,166.839C570.591,166.843 570.586,166.847 570.582,166.851C570.58,166.852 570.579,166.854 570.577,166.856C570.573,166.86 570.568,166.864 570.563,166.868C570.562,166.869 570.561,166.87 570.559,166.872C570.555,166.876 570.55,166.881 570.545,166.885C570.544,166.886 570.543,166.886 570.542,166.887C570.537,166.892 570.531,166.897 570.526,166.902L551.751,183.107L550.239,184.412Z" style="fill:rgb(168,168,168);fill-rule:nonzero;"/>
                <path d="M540.168,192.505L540.131,192.505C540.127,192.505 540.123,192.504 540.12,192.504L540.118,192.504C539.906,192.499 539.694,192.457 539.494,192.38C539.49,192.378 539.485,192.376 539.48,192.374C539.477,192.373 539.474,192.372 539.47,192.37C539.468,192.37 539.466,192.369 539.464,192.368C539.417,192.349 539.37,192.328 539.324,192.305C539.324,192.304 539.324,192.304 539.323,192.304C539.32,192.302 539.317,192.301 539.313,192.299C539.308,192.296 539.303,192.294 539.299,192.291C539.298,192.291 539.297,192.29 539.296,192.29C539.171,192.224 539.051,192.143 538.941,192.047C538.875,191.989 538.812,191.926 538.753,191.858C538.448,191.504 538.299,191.07 538.299,190.637C538.299,190.113 538.519,189.592 538.946,189.223L540.167,188.169L542.063,186.533L547.797,181.584C548.151,181.279 548.586,181.13 549.018,181.13C549.542,181.13 550.063,181.349 550.432,181.777C550.738,182.13 550.886,182.565 550.886,182.998C550.886,183.522 550.667,184.043 550.239,184.412L541.388,192.051C541.305,192.122 541.218,192.185 541.127,192.24L541.126,192.24C541.121,192.244 541.115,192.247 541.11,192.25C541.105,192.253 541.1,192.256 541.095,192.259C541.094,192.259 541.093,192.26 541.092,192.26C540.805,192.424 540.486,192.505 540.168,192.505Z" style="fill:rgb(168,168,168);fill-rule:nonzero;"/>
                <path d="M598.933,171.394L575.955,171.394C574.924,171.394 574.087,170.558 574.087,169.526C574.087,168.494 574.924,167.658 575.955,167.658L598.933,167.658C599.965,167.658 600.801,168.494 600.801,169.526C600.801,170.558 599.965,171.394 598.933,171.394Z" style="fill:rgb(168,168,168);fill-rule:nonzero;"/>
                <path d="M618.978,182.645L580.792,182.645C579.76,182.645 578.924,181.808 578.924,180.777C578.924,179.745 579.76,178.909 580.792,178.909L618.978,178.909C620.009,178.909 620.845,179.745 620.845,180.777C620.845,181.808 620.009,182.645 618.978,182.645Z" style="fill:rgb(168,168,168);fill-rule:nonzero;"/>
                <path d="M592.886,192.682L571.929,192.682C570.897,192.682 570.061,191.846 570.061,190.814C570.061,189.782 570.897,188.946 571.929,188.946L592.886,188.946C593.917,188.946 594.754,189.782 594.754,190.814C594.754,191.846 593.917,192.682 592.886,192.682Z" style="fill:rgb(168,168,168);fill-rule:nonzero;"/>
                <path d="M609.817,204.449L582.407,204.449C581.376,204.449 580.539,203.613 580.539,202.581C580.539,201.549 581.376,200.713 582.407,200.713L609.817,200.713C610.849,200.713 611.685,201.549 611.685,202.581C611.685,203.613 610.849,204.449 609.817,204.449Z" style="fill:rgb(168,168,168);fill-rule:nonzero;"/>
            </g>
            <g>
                <path d="M474.973,543.017C474.965,543.009 474.957,543.002 474.949,542.994C473.683,541.729 472.986,540.045 472.986,538.253L472.986,492.7C472.986,490.84 473.74,489.108 475.107,487.824C475.111,487.82 475.116,487.816 475.12,487.812C475.115,487.817 475.11,487.821 475.105,487.826C474.719,488.189 474.507,488.698 474.518,489.226C474.529,489.755 474.765,490.254 475.165,490.601L476.804,492.015C476.75,492.237 476.723,492.466 476.723,492.7L476.723,538.253C476.723,538.357 476.728,538.461 476.739,538.563L490.678,524.625L474.949,540.352C474.599,540.703 474.402,541.178 474.402,541.674C474.402,542.169 474.599,542.645 474.95,542.995C474.958,543.002 474.965,543.01 474.973,543.017ZM493.239,501.266L479.876,489.731L493.239,501.266Z" style="fill:rgb(168,168,168);fill-rule:nonzero;"/>
                <path d="M542.286,535.685C541.805,535.685 541.323,535.499 540.958,535.13C541.323,535.499 541.805,535.685 542.286,535.685L542.309,535.685L542.286,535.685ZM542.523,535.67C542.525,535.669 542.528,535.669 542.53,535.669C542.528,535.669 542.525,535.669 542.523,535.67ZM542.533,535.669C542.922,535.617 543.298,535.443 543.599,535.146C543.298,535.443 542.922,535.617 542.533,535.669ZM544.154,533.806C544.151,533.335 543.972,532.865 543.615,532.504L524.732,513.389L543.615,532.504C543.972,532.865 544.151,533.335 544.154,533.806Z" style="fill:rgb(168,168,168);fill-rule:nonzero;"/>
                <path d="M569.093,544.958L479.691,544.958C477.912,544.958 476.237,544.269 474.973,543.017C474.965,543.01 474.958,543.002 474.95,542.995C474.599,542.645 474.402,542.169 474.402,541.674C474.402,541.178 474.599,540.703 474.949,540.352L490.678,524.625L501.752,513.55L504.588,515.998L479.379,541.206C479.482,541.217 479.586,541.222 479.691,541.222L569.093,541.222C570.125,541.222 570.961,542.059 570.961,543.09C570.961,544.122 570.125,544.958 569.093,544.958ZM542.286,535.685C541.805,535.685 541.323,535.499 540.958,535.13L521.898,515.836L514.369,522.334L523.219,514.695L524.732,513.389L543.615,532.504C543.972,532.865 544.151,533.335 544.154,533.806C544.157,534.291 543.972,534.778 543.599,535.146C543.298,535.443 542.922,535.617 542.533,535.669L542.53,535.669C542.528,535.669 542.525,535.669 542.523,535.67C542.452,535.679 542.38,535.684 542.309,535.685L542.286,535.685ZM513.148,522.788C512.847,522.788 512.546,522.715 512.273,522.57C512.274,522.571 512.275,522.571 512.276,522.572C512.278,522.573 512.279,522.574 512.281,522.574C512.284,522.577 512.289,522.579 512.294,522.581C512.297,522.583 512.301,522.585 512.304,522.586C512.305,522.587 512.306,522.587 512.307,522.588C512.547,522.71 512.81,522.776 513.075,522.786L513.076,522.786C513.081,522.786 513.089,522.787 513.096,522.787L513.111,522.787C513.116,522.787 513.12,522.787 513.125,522.788L513.149,522.788C513.432,522.788 513.718,522.723 513.981,522.592C513.982,522.592 513.984,522.591 513.986,522.59C513.99,522.588 513.995,522.585 513.999,522.583C514.004,522.581 514.008,522.578 514.013,522.576C514.015,522.575 514.016,522.574 514.017,522.574C514.141,522.509 514.258,522.429 514.369,522.334C514.018,522.637 513.583,522.788 513.148,522.788ZM512.267,522.567C512.263,522.565 512.261,522.564 512.258,522.562C512.261,522.564 512.263,522.565 512.267,522.567Z" style="fill:rgb(168,168,168);fill-rule:nonzero;"/>
                <path d="M513.148,522.788L513.149,522.788L513.148,522.788ZM513.132,522.788L513.125,522.788L513.132,522.788ZM513.111,522.787L513.102,522.787L513.111,522.787ZM513.096,522.787C513.089,522.787 513.081,522.786 513.076,522.786C513.081,522.786 513.089,522.787 513.096,522.787ZM513.075,522.786C512.81,522.776 512.547,522.71 512.307,522.588C512.547,522.709 512.81,522.776 513.075,522.786ZM513.981,522.592C513.982,522.592 513.984,522.591 513.986,522.59C513.984,522.591 513.982,522.592 513.981,522.592ZM512.304,522.586C512.301,522.585 512.297,522.583 512.294,522.581C512.297,522.583 512.301,522.585 512.304,522.586ZM513.999,522.583C514.004,522.581 514.008,522.578 514.013,522.576C514.008,522.578 514.004,522.581 513.999,522.583ZM512.281,522.574C512.279,522.574 512.278,522.573 512.276,522.572C512.278,522.573 512.279,522.574 512.281,522.574ZM514.017,522.574C514.141,522.509 514.258,522.429 514.369,522.334C514.258,522.429 514.141,522.509 514.017,522.574ZM511.916,522.324L504.588,515.998L501.752,513.55L476.804,492.015L475.165,490.601C474.765,490.254 474.529,489.755 474.518,489.226C474.507,488.698 474.719,488.189 475.105,487.826C475.11,487.821 475.115,487.817 475.12,487.812C476.372,486.64 477.994,485.995 479.691,485.995L580.077,485.995C581.108,485.995 581.945,486.832 581.945,487.864C581.945,488.895 581.108,489.731 580.077,489.731L479.876,489.731L493.239,501.266L513.148,518.452L511.928,519.505C511.5,519.875 511.281,520.396 511.281,520.919C511.281,521.352 511.429,521.787 511.734,522.14C511.791,522.206 511.852,522.268 511.916,522.324ZM515.084,516.781L541.065,494.356C541.419,494.052 541.854,493.903 542.286,493.903C542.81,493.903 543.331,494.122 543.7,494.549C543.331,494.122 542.81,493.903 542.286,493.903C541.854,493.903 541.419,494.052 541.065,494.356L520.779,511.866L515.084,516.781ZM543.524,497.169L543.525,497.168L543.524,497.169ZM543.541,497.154C543.542,497.153 543.543,497.152 543.544,497.151C543.543,497.152 543.542,497.153 543.541,497.154ZM543.559,497.137C543.56,497.136 543.561,497.136 543.562,497.135C543.561,497.136 543.56,497.136 543.559,497.137ZM543.577,497.121C543.578,497.12 543.579,497.119 543.579,497.118C543.579,497.119 543.578,497.12 543.577,497.121ZM543.595,497.103L543.596,497.102L543.595,497.103ZM543.611,497.087C543.612,497.087 543.612,497.086 543.612,497.086C543.612,497.086 543.612,497.087 543.611,497.087ZM543.627,497.071C543.628,497.07 543.629,497.069 543.63,497.068C543.629,497.069 543.628,497.07 543.627,497.071ZM543.643,497.054C543.644,497.053 543.645,497.052 543.646,497.051C543.645,497.052 543.644,497.053 543.643,497.054ZM543.66,497.036C543.661,497.035 543.662,497.034 543.663,497.033C543.662,497.034 543.661,497.035 543.66,497.036ZM543.676,497.019C543.677,497.018 543.678,497.017 543.679,497.016C543.678,497.017 543.677,497.018 543.676,497.019ZM543.692,497C543.693,497 543.693,496.999 543.694,496.998C543.693,496.999 543.693,497 543.692,497ZM543.706,496.984C543.707,496.983 543.708,496.982 543.709,496.981C543.708,496.982 543.707,496.983 543.706,496.984ZM543.721,496.967C543.722,496.965 543.723,496.964 543.724,496.963C543.723,496.964 543.722,496.965 543.721,496.967ZM543.736,496.949C543.737,496.947 543.739,496.945 543.74,496.944C543.739,496.945 543.737,496.947 543.736,496.949ZM543.751,496.93C543.752,496.928 543.754,496.927 543.755,496.925C543.754,496.927 543.752,496.928 543.751,496.93ZM543.765,496.912C543.767,496.91 543.768,496.908 543.77,496.906C543.768,496.908 543.767,496.91 543.765,496.912ZM543.778,496.895C543.78,496.892 543.782,496.89 543.784,496.887C543.782,496.89 543.78,496.892 543.778,496.895ZM543.792,496.876C543.794,496.874 543.795,496.872 543.797,496.87C543.795,496.872 543.794,496.874 543.792,496.876ZM543.806,496.858C543.807,496.855 543.809,496.853 543.81,496.851C543.809,496.853 543.807,496.855 543.806,496.858ZM543.819,496.838C543.821,496.836 543.823,496.833 543.824,496.831C543.823,496.833 543.821,496.836 543.819,496.838ZM543.833,496.819C543.834,496.816 543.836,496.814 543.838,496.811C543.836,496.814 543.834,496.816 543.833,496.819ZM543.844,496.802C543.846,496.798 543.849,496.795 543.851,496.791C543.849,496.795 543.846,496.798 543.844,496.802ZM543.856,496.784C543.859,496.779 543.862,496.774 543.865,496.77C543.862,496.774 543.859,496.779 543.856,496.784ZM543.868,496.764C543.871,496.759 543.875,496.754 543.878,496.749C543.875,496.754 543.872,496.759 543.868,496.764ZM543.881,496.744C543.885,496.738 543.889,496.731 543.892,496.725C543.888,496.732 543.885,496.738 543.881,496.744ZM543.893,496.723C543.895,496.72 543.897,496.717 543.899,496.713C543.897,496.717 543.895,496.72 543.893,496.723ZM543.902,496.709C543.905,496.704 543.908,496.698 543.912,496.692C543.908,496.698 543.905,496.704 543.902,496.709ZM543.913,496.689C543.917,496.683 543.92,496.677 543.924,496.67C543.92,496.677 543.917,496.683 543.913,496.689ZM543.925,496.668C543.929,496.661 543.932,496.654 543.936,496.647C543.932,496.654 543.929,496.661 543.925,496.668ZM543.936,496.647C544.081,496.375 544.154,496.073 544.154,495.77C544.154,495.545 544.114,495.319 544.032,495.104C544.114,495.32 544.155,495.547 544.154,495.773C544.154,496.075 544.08,496.376 543.936,496.647ZM544.026,495.089C544.026,495.088 544.025,495.087 544.025,495.086C544.025,495.087 544.026,495.088 544.026,495.089ZM544.018,495.068C544.018,495.067 544.017,495.067 544.017,495.066C544.017,495.067 544.018,495.067 544.018,495.068Z" style="fill:rgb(168,168,168);fill-rule:nonzero;"/>
                <path d="M523.219,514.695C523.648,514.326 523.867,513.804 523.867,513.28C523.867,512.848 523.719,512.413 523.414,512.06C523.044,511.632 522.523,511.414 521.999,511.414C521.565,511.414 521.132,511.563 520.779,511.866L541.065,494.356C541.419,494.052 541.854,493.903 542.286,493.903C542.81,493.903 543.331,494.122 543.7,494.549C543.837,494.708 543.943,494.883 544.017,495.066C544.017,495.067 544.018,495.067 544.018,495.068C544.02,495.074 544.023,495.08 544.025,495.086C544.025,495.087 544.026,495.088 544.026,495.089C544.028,495.094 544.03,495.099 544.032,495.104C544.114,495.319 544.154,495.545 544.154,495.77C544.154,496.073 544.081,496.375 543.936,496.647C543.932,496.654 543.929,496.661 543.925,496.668C543.925,496.669 543.924,496.669 543.924,496.67C543.92,496.677 543.917,496.683 543.913,496.689C543.913,496.69 543.912,496.691 543.912,496.692C543.908,496.698 543.905,496.704 543.902,496.709C543.901,496.711 543.9,496.712 543.899,496.713C543.897,496.717 543.895,496.72 543.893,496.723C543.893,496.724 543.893,496.725 543.892,496.725C543.889,496.731 543.885,496.738 543.881,496.744C543.88,496.746 543.879,496.747 543.878,496.749C543.875,496.754 543.871,496.759 543.868,496.764C543.867,496.766 543.866,496.768 543.865,496.77C543.862,496.774 543.859,496.779 543.856,496.784C543.854,496.786 543.853,496.788 543.851,496.791C543.849,496.795 543.846,496.798 543.844,496.802C543.842,496.805 543.84,496.808 543.838,496.811C543.836,496.814 543.834,496.816 543.833,496.819C543.83,496.823 543.827,496.827 543.824,496.831C543.823,496.833 543.821,496.836 543.819,496.838C543.816,496.842 543.813,496.847 543.81,496.851C543.809,496.853 543.807,496.855 543.806,496.858C543.803,496.862 543.8,496.866 543.797,496.87C543.795,496.872 543.794,496.874 543.792,496.876C543.789,496.88 543.787,496.884 543.784,496.887C543.782,496.89 543.78,496.892 543.778,496.895C543.776,496.898 543.773,496.902 543.77,496.906C543.768,496.908 543.767,496.91 543.765,496.912C543.762,496.916 543.759,496.92 543.755,496.925C543.754,496.927 543.752,496.928 543.751,496.93C543.747,496.935 543.744,496.939 543.74,496.944C543.739,496.945 543.737,496.947 543.736,496.949C543.732,496.954 543.728,496.958 543.724,496.963C543.723,496.964 543.722,496.965 543.721,496.967C543.717,496.972 543.713,496.976 543.709,496.981C543.708,496.982 543.707,496.983 543.706,496.984C543.702,496.989 543.698,496.994 543.694,496.998C543.693,496.999 543.693,497 543.692,497C543.688,497.005 543.683,497.01 543.679,497.016C543.678,497.017 543.677,497.018 543.676,497.019C543.672,497.023 543.667,497.028 543.663,497.033C543.662,497.034 543.661,497.035 543.66,497.036C543.656,497.041 543.651,497.046 543.646,497.051C543.645,497.052 543.644,497.053 543.643,497.054C543.639,497.059 543.634,497.064 543.63,497.068C543.629,497.069 543.617,497.081 543.612,497.086C543.612,497.086 543.612,497.087 543.611,497.087C543.606,497.092 543.595,497.103 543.595,497.103C543.59,497.108 543.585,497.113 543.579,497.118C543.579,497.119 543.578,497.12 543.577,497.121C543.572,497.125 543.567,497.13 543.562,497.135C543.561,497.136 543.56,497.136 543.559,497.137C543.554,497.142 543.549,497.147 543.544,497.151C543.543,497.152 543.542,497.153 543.541,497.154C543.536,497.158 543.531,497.163 543.525,497.168L543.524,497.169C543.518,497.174 543.513,497.179 543.507,497.184L524.732,513.389L523.219,514.695Z" style="fill:rgb(168,168,168);fill-rule:nonzero;"/>
                <path d="M513.149,522.788L513.125,522.788C513.12,522.787 513.116,522.787 513.111,522.787L513.096,522.787C513.089,522.787 513.081,522.786 513.076,522.786L513.075,522.786C512.81,522.776 512.547,522.709 512.307,522.588C512.306,522.587 512.305,522.587 512.304,522.586C512.301,522.585 512.297,522.583 512.294,522.581C512.289,522.579 512.284,522.577 512.281,522.574C512.279,522.574 512.278,522.573 512.276,522.572C512.275,522.571 512.274,522.571 512.273,522.57C512.271,522.569 512.268,522.568 512.267,522.567C512.263,522.565 512.261,522.564 512.258,522.562C512.137,522.497 512.021,522.417 511.916,522.324C511.852,522.268 511.791,522.206 511.734,522.14C511.429,521.787 511.281,521.352 511.281,520.919C511.281,520.396 511.5,519.875 511.928,519.505L513.148,518.452L515.084,516.781L520.779,511.866C521.132,511.563 521.565,511.414 521.999,511.414C522.523,511.414 523.044,511.632 523.414,512.06C523.719,512.413 523.867,512.848 523.867,513.28C523.867,513.804 523.648,514.326 523.219,514.695L514.369,522.334C514.258,522.429 514.141,522.509 514.017,522.574C514.016,522.574 514.015,522.575 514.013,522.576C514.008,522.578 514.004,522.581 513.999,522.583C513.995,522.585 513.99,522.588 513.986,522.59C513.984,522.591 513.982,522.592 513.981,522.592C513.718,522.723 513.432,522.788 513.149,522.788Z" style="fill:rgb(168,168,168);fill-rule:nonzero;"/>
                <path d="M571.914,501.676L548.937,501.676C547.905,501.676 547.069,500.84 547.069,499.808C547.069,498.776 547.905,497.94 548.937,497.94L571.914,497.94C572.946,497.94 573.782,498.776 573.782,499.808C573.782,500.84 572.946,501.676 571.914,501.676Z" style="fill:rgb(168,168,168);fill-rule:nonzero;"/>
                <path d="M591.959,512.927L553.773,512.927C552.741,512.927 551.905,512.091 551.905,511.059C551.905,510.028 552.741,509.191 553.773,509.191L591.959,509.191C592.99,509.191 593.827,510.028 593.827,511.059C593.827,512.091 592.99,512.927 591.959,512.927Z" style="fill:rgb(168,168,168);fill-rule:nonzero;"/>
                <path d="M565.867,522.965L544.91,522.965C543.878,522.965 543.042,522.129 543.042,521.097C543.042,520.065 543.878,519.229 544.91,519.229L565.867,519.229C566.899,519.229 567.735,520.065 567.735,521.097C567.735,522.129 566.899,522.965 565.867,522.965Z" style="fill:rgb(168,168,168);fill-rule:nonzero;"/>
                <path d="M582.798,534.732L555.388,534.732C554.357,534.732 553.521,533.896 553.521,532.864C553.521,531.832 554.357,530.996 555.388,530.996L582.798,530.996C583.83,530.996 584.666,531.832 584.666,532.864C584.666,533.896 583.83,534.732 582.798,534.732Z" style="fill:rgb(168,168,168);fill-rule:nonzero;"/>
            </g>
            <g>
                <path d="M769.938,245.947C768.694,244.685 768.008,243.015 768.008,241.239L768.008,195.686C768.008,193.842 768.749,192.123 770.094,190.843C769.73,191.204 769.528,191.699 769.539,192.212C769.551,192.741 769.786,193.24 770.187,193.586L796.774,216.536L771.825,195C771.772,195.222 771.745,195.452 771.745,195.686L771.745,241.239C771.745,241.343 771.75,241.447 771.761,241.549L785.7,227.611L769.971,243.338C769.621,243.689 769.424,244.164 769.424,244.66C769.424,245.14 769.609,245.6 769.938,245.947ZM774.401,244.192L777.032,241.561L774.401,244.192Z" style="fill:rgb(168,168,168);fill-rule:nonzero;"/>
                <path d="M837.308,238.671C836.827,238.671 836.345,238.485 835.979,238.115C836.346,238.485 836.828,238.671 837.309,238.671C837.331,238.671 837.354,238.67 837.375,238.67C837.353,238.67 837.331,238.671 837.308,238.671ZM819.755,216.375L819.755,216.374L838.528,200.17L819.755,216.375Z" style="fill:rgb(168,168,168);fill-rule:nonzero;"/>
                <path d="M862.496,247.944L774.713,247.944C772.922,247.944 771.24,247.247 769.971,245.981C769.96,245.969 769.949,245.958 769.938,245.947C769.609,245.6 769.424,245.14 769.424,244.66C769.424,244.164 769.621,243.689 769.971,243.338L785.7,227.611L796.774,216.536L806.917,225.291L799.61,218.984L777.032,241.561L774.401,244.192C774.504,244.203 774.608,244.208 774.713,244.208L864.115,244.208C865.147,244.208 865.983,245.044 865.983,246.076C865.983,246.267 865.955,246.451 865.902,246.624C864.724,246.973 863.585,247.416 862.496,247.944Z" style="fill:rgb(168,168,168);fill-rule:nonzero;"/>
                <path d="M864.115,247.944L862.496,247.944C863.585,247.416 864.724,246.973 865.902,246.624C865.667,247.389 864.956,247.944 864.115,247.944Z" style="fill:rgb(168,168,168);fill-rule:nonzero;"/>
                <path d="M837.309,238.671C836.828,238.671 836.346,238.485 835.979,238.115L816.919,218.822L809.391,225.32L818.241,217.68L819.755,216.374L819.755,216.375L838.638,235.49C838.994,235.851 839.173,236.321 839.176,236.792C839.179,237.277 838.994,237.764 838.622,238.132C838.274,238.474 837.827,238.654 837.375,238.67C837.354,238.67 837.331,238.671 837.309,238.671ZM808.17,225.774C807.882,225.774 807.593,225.707 807.33,225.574C807.37,225.594 807.41,225.613 807.451,225.63C807.452,225.63 807.453,225.631 807.455,225.631C807.458,225.633 807.462,225.634 807.465,225.636C807.686,225.725 807.92,225.771 808.155,225.773L808.172,225.773C808.388,225.773 808.605,225.736 808.812,225.66C809.019,225.585 809.215,225.471 809.391,225.32C809.04,225.623 808.605,225.774 808.17,225.774ZM807.323,225.571C807.321,225.57 807.32,225.569 807.318,225.568C807.32,225.569 807.321,225.57 807.323,225.571Z" style="fill:rgb(168,168,168);fill-rule:nonzero;"/>
                <path d="M808.171,225.773L808.169,225.773L808.171,225.773ZM808.155,225.773C807.92,225.771 807.686,225.725 807.465,225.636C807.685,225.725 807.919,225.771 808.155,225.773ZM808.812,225.66C809.018,225.585 809.214,225.472 809.391,225.32C809.215,225.471 809.019,225.585 808.812,225.66ZM807.455,225.631C807.453,225.631 807.452,225.63 807.451,225.63C807.452,225.63 807.453,225.631 807.455,225.631ZM806.917,225.291L796.774,216.536L770.187,193.586C769.786,193.24 769.551,192.741 769.539,192.212C769.528,191.699 769.73,191.204 770.094,190.843C770.105,190.833 770.115,190.822 770.126,190.812C771.381,189.631 773.01,188.981 774.713,188.981L875.099,188.981C876.13,188.981 876.967,189.818 876.967,190.849C876.967,191.881 876.13,192.717 875.099,192.717L774.898,192.717L808.171,221.438L836.088,197.342C836.44,197.037 836.873,196.887 837.306,196.887L837.307,196.887C836.875,196.888 836.441,197.037 836.088,197.342L815.802,214.852L806.95,222.491C806.521,222.861 806.302,223.381 806.302,223.905C806.302,224.338 806.451,224.773 806.756,225.126C806.807,225.185 806.861,225.24 806.917,225.291ZM839.111,199.247L839.111,199.246L839.111,199.247ZM839.116,199.227C839.117,199.225 839.117,199.223 839.118,199.222C839.117,199.223 839.117,199.225 839.116,199.227ZM839.122,199.206C839.122,199.203 839.123,199.2 839.124,199.197C839.123,199.2 839.122,199.203 839.122,199.206ZM839.125,199.19C839.159,199.048 839.176,198.902 839.176,198.756C839.176,198.453 839.103,198.149 838.955,197.873C839.104,198.15 839.177,198.455 839.176,198.759C839.176,198.904 839.159,199.049 839.125,199.19ZM838.952,197.869C838.95,197.865 838.948,197.861 838.946,197.856C838.948,197.861 838.95,197.865 838.952,197.869ZM838.942,197.849C838.94,197.845 838.938,197.842 838.936,197.838C838.938,197.842 838.94,197.845 838.942,197.849ZM838.93,197.829C838.929,197.826 838.927,197.823 838.925,197.82C838.927,197.823 838.929,197.826 838.93,197.829ZM838.919,197.809C838.917,197.806 838.916,197.804 838.914,197.801C838.916,197.804 838.917,197.806 838.919,197.809ZM838.907,197.789C838.905,197.787 838.904,197.785 838.903,197.782C838.904,197.785 838.905,197.787 838.907,197.789ZM838.894,197.768C838.893,197.767 838.892,197.765 838.891,197.763C838.892,197.765 838.893,197.767 838.894,197.768ZM838.88,197.746L838.879,197.745L838.88,197.746ZM838.826,197.667C838.826,197.667 838.826,197.666 838.825,197.666C838.826,197.666 838.826,197.667 838.826,197.667ZM838.813,197.649C838.812,197.648 838.811,197.647 838.811,197.646C838.811,197.647 838.812,197.648 838.813,197.649ZM838.799,197.63C838.798,197.629 838.797,197.628 838.796,197.627C838.797,197.628 838.798,197.629 838.799,197.63ZM838.785,197.612C838.784,197.611 838.783,197.609 838.782,197.608C838.783,197.609 838.784,197.611 838.785,197.612ZM838.771,197.594C838.77,197.592 838.768,197.591 838.767,197.589C838.768,197.591 838.77,197.592 838.771,197.594ZM838.756,197.575C838.755,197.574 838.754,197.573 838.753,197.571C838.754,197.573 838.755,197.574 838.756,197.575ZM838.74,197.556C838.739,197.555 838.738,197.554 838.738,197.553C838.738,197.554 838.739,197.555 838.74,197.556Z" style="fill:rgb(168,168,168);fill-rule:nonzero;"/>
                <path d="M818.241,217.68C818.671,217.311 818.889,216.79 818.889,216.266C818.889,215.834 818.741,215.399 818.435,215.045C818.067,214.618 817.545,214.398 817.02,214.398C816.588,214.398 816.154,214.547 815.802,214.852L836.088,197.342C836.441,197.037 836.875,196.888 837.307,196.887C837.832,196.887 838.353,197.107 838.722,197.535C838.727,197.541 838.733,197.547 838.738,197.553C838.738,197.554 838.739,197.555 838.74,197.556C838.744,197.561 838.748,197.566 838.753,197.571C838.754,197.573 838.755,197.574 838.756,197.575C838.76,197.58 838.763,197.585 838.767,197.589C838.768,197.591 838.77,197.592 838.771,197.594C838.774,197.598 838.778,197.603 838.782,197.608C838.783,197.609 838.784,197.611 838.785,197.612C838.789,197.617 838.793,197.622 838.796,197.627C838.797,197.628 838.798,197.629 838.799,197.63C838.803,197.635 838.807,197.641 838.811,197.646C838.811,197.647 838.812,197.648 838.813,197.649C838.817,197.655 838.821,197.66 838.825,197.666C838.826,197.666 838.826,197.667 838.826,197.667C838.845,197.693 838.862,197.719 838.879,197.745L838.88,197.746C838.884,197.752 838.887,197.758 838.891,197.763C838.892,197.765 838.893,197.767 838.894,197.768C838.897,197.773 838.9,197.778 838.903,197.782C838.904,197.785 838.905,197.787 838.907,197.789C838.909,197.793 838.912,197.797 838.914,197.801C838.916,197.804 838.917,197.806 838.919,197.809C838.921,197.813 838.923,197.816 838.925,197.82C838.927,197.823 838.929,197.826 838.93,197.829C838.932,197.832 838.934,197.835 838.936,197.838C838.938,197.842 838.94,197.845 838.942,197.849C838.943,197.851 838.944,197.854 838.946,197.856C838.948,197.861 838.95,197.865 838.952,197.869C838.953,197.87 838.954,197.871 838.955,197.873C839.103,198.149 839.176,198.453 839.176,198.756C839.176,198.902 839.159,199.048 839.125,199.19C839.125,199.192 839.124,199.194 839.124,199.197C839.123,199.2 839.122,199.203 839.122,199.206C839.12,199.211 839.119,199.216 839.118,199.222C839.117,199.223 839.117,199.225 839.116,199.227C839.115,199.233 839.113,199.239 839.111,199.246L839.111,199.247C839.017,199.594 838.822,199.918 838.528,200.17L819.755,216.374L818.241,217.68Z" style="fill:rgb(168,168,168);fill-rule:nonzero;"/>
                <path d="M808.172,225.773L808.155,225.773C807.919,225.771 807.685,225.725 807.465,225.636C807.462,225.634 807.458,225.633 807.455,225.631C807.453,225.631 807.452,225.63 807.451,225.63C807.41,225.613 807.37,225.594 807.33,225.574C807.327,225.573 807.325,225.572 807.323,225.571C807.321,225.57 807.32,225.569 807.318,225.568C807.175,225.495 807.04,225.403 806.917,225.291C806.861,225.24 806.807,225.185 806.756,225.126C806.451,224.773 806.302,224.338 806.302,223.905C806.302,223.381 806.521,222.861 806.95,222.491L815.802,214.852C816.154,214.547 816.588,214.398 817.02,214.398C817.545,214.398 818.067,214.618 818.435,215.045C818.741,215.399 818.889,215.834 818.889,216.266C818.889,216.79 818.671,217.311 818.241,217.68L809.391,225.32C809.214,225.472 809.018,225.585 808.812,225.66C808.605,225.736 808.388,225.773 808.172,225.773Z" style="fill:rgb(168,168,168);fill-rule:nonzero;"/>
                <path d="M866.936,204.662L843.958,204.662C842.927,204.662 842.09,203.826 842.09,202.794C842.09,201.762 842.927,200.926 843.958,200.926L866.936,200.926C867.968,200.926 868.804,201.762 868.804,202.794C868.804,203.826 867.968,204.662 866.936,204.662Z" style="fill:rgb(168,168,168);fill-rule:nonzero;"/>
                <path d="M886.981,215.913L848.795,215.913C847.763,215.913 846.927,215.077 846.927,214.045C846.927,213.014 847.763,212.177 848.795,212.177L886.981,212.177C888.013,212.177 888.849,213.014 888.849,214.045C888.849,215.077 888.013,215.913 886.981,215.913Z" style="fill:rgb(168,168,168);fill-rule:nonzero;"/>
                <path d="M860.889,225.951L839.932,225.951C838.9,225.951 838.064,225.115 838.064,224.083C838.064,223.051 838.9,222.215 839.932,222.215L860.889,222.215C861.92,222.215 862.757,223.051 862.757,224.083C862.757,225.115 861.92,225.951 860.889,225.951Z" style="fill:rgb(168,168,168);fill-rule:nonzero;"/>
                <path d="M877.82,237.718L850.411,237.718C849.379,237.718 848.542,236.882 848.542,235.85C848.542,234.818 849.379,233.982 850.411,233.982L877.82,233.982C878.852,233.982 879.688,234.818 879.688,235.85C879.688,236.882 878.852,237.718 877.82,237.718Z" style="fill:rgb(168,168,168);fill-rule:nonzero;"/>
            </g>
            <g>
                <path d="M402.102,390.29C402.094,390.283 402.086,390.275 402.079,390.267C400.813,389.002 400.116,387.318 400.116,385.526L400.116,339.974C400.116,338.113 400.869,336.381 402.236,335.097C402.244,335.09 402.252,335.082 402.26,335.075C402.252,335.083 402.243,335.091 402.234,335.099C401.849,335.462 401.636,335.971 401.647,336.5C401.658,337.029 401.894,337.528 402.294,337.874L403.933,339.288C403.879,339.51 403.852,339.74 403.852,339.974L403.852,385.526C403.852,385.631 403.857,385.734 403.868,385.836L417.807,371.898L402.079,387.626C401.728,387.976 401.532,388.451 401.532,388.947C401.532,389.443 401.728,389.918 402.079,390.268C402.087,390.275 402.094,390.283 402.102,390.29ZM424.493,352.099L407.005,337.005L424.493,352.099Z" style="fill:rgb(168,168,168);fill-rule:nonzero;"/>
                <path d="M469.415,382.958C469.363,382.958 469.31,382.956 469.257,382.951C469.31,382.956 469.362,382.958 469.415,382.958C469.889,382.958 470.364,382.778 470.728,382.419C470.364,382.778 469.89,382.958 469.415,382.958Z" style="fill:rgb(168,168,168);fill-rule:nonzero;"/>
                <path d="M496.223,392.232L406.82,392.232C405.041,392.232 403.366,391.542 402.102,390.29C402.094,390.283 402.087,390.275 402.079,390.268C401.728,389.918 401.532,389.443 401.532,388.947C401.532,388.451 401.728,387.976 402.079,387.626L417.807,371.898L428.881,360.824L431.717,363.271L406.509,388.479C406.611,388.491 406.715,388.495 406.82,388.495L496.223,388.495C497.255,388.495 498.091,389.332 498.091,390.364C498.091,391.395 497.255,392.232 496.223,392.232ZM469.415,382.958C469.362,382.958 469.31,382.956 469.257,382.951C468.83,382.915 468.412,382.732 468.087,382.402L449.027,363.109L441.499,369.607L450.35,361.968L451.862,360.663L470.744,379.777C471.101,380.139 471.281,380.609 471.284,381.079C471.286,381.565 471.101,382.051 470.728,382.419C470.364,382.778 469.889,382.958 469.415,382.958ZM440.278,370.061C439.996,370.061 439.715,369.998 439.457,369.871C439.459,369.872 439.461,369.873 439.464,369.875C439.47,369.877 439.475,369.88 439.481,369.883C439.483,369.884 439.485,369.885 439.487,369.885C439.489,369.887 439.492,369.888 439.495,369.889C439.72,369.993 439.962,370.05 440.205,370.059C440.212,370.06 440.218,370.06 440.225,370.06L440.241,370.06C440.245,370.061 440.25,370.061 440.255,370.061L440.278,370.061C440.617,370.061 440.956,369.969 441.257,369.784C441.259,369.783 441.261,369.782 441.263,369.78C441.267,369.778 441.27,369.776 441.274,369.773C441.352,369.724 441.427,369.669 441.499,369.607C441.148,369.91 440.713,370.061 440.278,370.061ZM439.456,369.871C439.451,369.868 439.446,369.866 439.441,369.863C439.446,369.866 439.451,369.868 439.456,369.871Z" style="fill:rgb(168,168,168);fill-rule:nonzero;"/>
                <path d="M440.278,370.061L440.277,370.061L440.278,370.061ZM440.261,370.061L440.255,370.061L440.261,370.061ZM440.241,370.06L440.232,370.06L440.241,370.06ZM440.225,370.06C440.218,370.06 440.212,370.06 440.205,370.059C440.212,370.06 440.218,370.06 440.225,370.06ZM440.205,370.059C439.962,370.05 439.72,369.993 439.495,369.889C439.719,369.993 439.961,370.05 440.205,370.059ZM439.487,369.885C439.485,369.885 439.483,369.884 439.481,369.883C439.483,369.884 439.485,369.885 439.487,369.885ZM441.257,369.784C441.259,369.783 441.261,369.782 441.263,369.78C441.261,369.782 441.259,369.783 441.257,369.784ZM441.274,369.773C441.352,369.724 441.427,369.669 441.499,369.607C441.427,369.669 441.352,369.724 441.274,369.773ZM439.041,369.593L431.717,363.271L428.881,360.824L403.933,339.288L402.294,337.874C401.894,337.528 401.658,337.029 401.647,336.5C401.636,335.971 401.849,335.462 402.234,335.099C402.243,335.091 402.252,335.083 402.26,335.075C403.51,333.91 405.128,333.268 406.82,333.268L489.903,333.268C489.588,333.7 489.403,334.231 489.403,334.806C489.403,335.728 489.88,336.539 490.601,337.005L407.005,337.005L424.493,352.099L440.278,365.725L468.195,341.629C468.548,341.325 468.983,341.176 469.415,341.176C469.939,341.176 470.46,341.395 470.83,341.823C470.46,341.395 469.939,341.176 469.415,341.176C468.983,341.176 468.548,341.325 468.195,341.629L447.908,359.14L439.057,366.779C438.629,367.148 438.41,367.669 438.41,368.193C438.41,368.625 438.559,369.06 438.863,369.413C438.919,369.478 438.979,369.538 439.041,369.593Z" style="fill:rgb(168,168,168);fill-rule:nonzero;"/>
                <path d="M507.206,337.005L490.601,337.005C489.88,336.539 489.403,335.728 489.403,334.806C489.403,334.231 489.588,333.7 489.903,333.268L507.206,333.268C508.238,333.268 509.074,334.105 509.074,335.136C509.074,336.168 508.238,337.005 507.206,337.005Z" style="fill:rgb(168,168,168);fill-rule:nonzero;"/>
                <path d="M470.653,344.443C470.654,344.442 470.655,344.441 470.655,344.441C470.655,344.441 470.654,344.442 470.653,344.443ZM470.67,344.428C470.671,344.426 470.673,344.425 470.674,344.424C470.673,344.425 470.671,344.426 470.67,344.428ZM470.688,344.411C470.689,344.41 470.691,344.408 470.693,344.407C470.691,344.408 470.689,344.41 470.688,344.411ZM470.705,344.395C470.707,344.393 470.709,344.391 470.711,344.389C470.709,344.391 470.707,344.393 470.705,344.395ZM470.72,344.38C470.724,344.377 470.727,344.374 470.729,344.371C470.727,344.374 470.724,344.377 470.72,344.38ZM470.736,344.365C470.74,344.361 470.744,344.357 470.748,344.353C470.744,344.357 470.74,344.361 470.736,344.365ZM470.753,344.348C470.758,344.343 470.762,344.338 470.767,344.333C470.763,344.338 470.758,344.343 470.753,344.348ZM470.77,344.331C471.109,343.974 471.283,343.51 471.283,343.043C471.283,342.801 471.237,342.559 471.142,342.33C471.237,342.559 471.284,342.803 471.284,343.046C471.283,343.512 471.109,343.974 470.77,344.331ZM471.14,342.324C471.138,342.32 471.137,342.316 471.135,342.312C471.137,342.316 471.138,342.32 471.14,342.324ZM471.131,342.303C471.13,342.3 471.128,342.297 471.127,342.294C471.128,342.297 471.13,342.3 471.131,342.303ZM471.121,342.281C471.12,342.279 471.12,342.277 471.119,342.275C471.12,342.277 471.12,342.279 471.121,342.281ZM471.111,342.257C471.11,342.257 471.11,342.256 471.11,342.256C471.11,342.256 471.11,342.257 471.111,342.257Z" style="fill:rgb(168,168,168);fill-rule:nonzero;"/>
                <path d="M450.35,361.968C450.777,361.599 450.997,361.077 450.997,360.554C450.997,360.121 450.848,359.686 450.543,359.333C450.173,358.905 449.652,358.686 449.128,358.686C448.695,358.686 448.261,358.835 447.908,359.14L468.195,341.629C468.548,341.325 468.983,341.176 469.415,341.176C469.939,341.176 470.46,341.395 470.83,341.823C470.945,341.957 471.039,342.103 471.11,342.256C471.11,342.256 471.11,342.257 471.111,342.257C471.113,342.263 471.116,342.269 471.119,342.275C471.12,342.277 471.12,342.279 471.121,342.281C471.123,342.285 471.125,342.289 471.127,342.294C471.128,342.297 471.13,342.3 471.131,342.303C471.132,342.306 471.134,342.309 471.135,342.312C471.137,342.316 471.138,342.32 471.14,342.324C471.141,342.326 471.142,342.328 471.142,342.33C471.237,342.559 471.283,342.801 471.283,343.043C471.283,343.51 471.109,343.974 470.77,344.331C470.769,344.331 470.768,344.332 470.767,344.333C470.762,344.338 470.758,344.343 470.753,344.348C470.751,344.35 470.749,344.351 470.748,344.353C470.744,344.357 470.74,344.361 470.736,344.365C470.734,344.367 470.732,344.369 470.729,344.371C470.727,344.374 470.724,344.377 470.72,344.38C470.717,344.383 470.697,344.403 470.693,344.407C470.691,344.408 470.689,344.41 470.688,344.411C470.683,344.416 470.679,344.42 470.674,344.424C470.673,344.425 470.671,344.426 470.67,344.428C470.665,344.432 470.66,344.436 470.655,344.441C470.655,344.441 470.654,344.442 470.653,344.443C470.647,344.448 470.642,344.453 470.636,344.457L451.862,360.663L450.35,361.968Z" style="fill:rgb(168,168,168);fill-rule:nonzero;"/>
                <path d="M440.278,370.061L440.255,370.061C440.25,370.061 440.245,370.061 440.241,370.06L440.225,370.06C440.218,370.06 440.212,370.06 440.205,370.059C439.961,370.05 439.719,369.993 439.495,369.889C439.492,369.888 439.489,369.887 439.487,369.885C439.485,369.885 439.483,369.884 439.481,369.883C439.475,369.88 439.47,369.877 439.464,369.875C439.461,369.873 439.459,369.872 439.457,369.871L439.456,369.871C439.451,369.868 439.446,369.866 439.441,369.863C439.436,369.861 439.432,369.859 439.427,369.856C439.29,369.786 439.16,369.698 439.041,369.593C438.979,369.538 438.919,369.478 438.863,369.413C438.559,369.06 438.41,368.625 438.41,368.193C438.41,367.669 438.629,367.148 439.057,366.779L447.908,359.14C448.261,358.835 448.695,358.686 449.128,358.686C449.652,358.686 450.173,358.905 450.543,359.333C450.848,359.686 450.997,360.121 450.997,360.554C450.997,361.077 450.777,361.599 450.35,361.968L441.499,369.607C441.427,369.669 441.352,369.724 441.274,369.773C441.27,369.776 441.267,369.778 441.263,369.78C441.261,369.782 441.259,369.783 441.257,369.784C440.956,369.969 440.617,370.061 440.278,370.061Z" style="fill:rgb(168,168,168);fill-rule:nonzero;"/>
                <path d="M499.044,348.949L476.066,348.949C475.034,348.949 474.198,348.113 474.198,347.081C474.198,346.05 475.034,345.214 476.066,345.214L499.044,345.214C500.075,345.214 500.912,346.05 500.912,347.081C500.912,348.113 500.075,348.949 499.044,348.949Z" style="fill:rgb(168,168,168);fill-rule:nonzero;"/>
                <path d="M506.755,360.201L480.902,360.201C479.87,360.201 479.034,359.364 479.034,358.333C479.034,357.301 479.87,356.464 480.902,356.464L506.755,356.464L506.755,360.201Z" style="fill:rgb(168,168,168);fill-rule:nonzero;"/>
                <path d="M492.996,370.238L472.04,370.238C471.008,370.238 470.172,369.402 470.172,368.37C470.172,367.338 471.008,366.502 472.04,366.502L492.996,366.502C494.028,366.502 494.864,367.338 494.864,368.37C494.864,369.402 494.028,370.238 492.996,370.238Z" style="fill:rgb(168,168,168);fill-rule:nonzero;"/>
                <path d="M506.755,382.005L482.518,382.005C481.486,382.005 480.65,381.169 480.65,380.137C480.65,379.105 481.486,378.269 482.518,378.269L506.755,378.269L506.755,382.005Z" style="fill:rgb(168,168,168);fill-rule:nonzero;"/>
                <path d="M396.54,413.918L387.529,413.918C386.497,413.918 385.661,413.082 385.661,412.051C385.661,411.019 386.497,410.182 387.529,410.182L396.54,410.182C397.572,410.182 398.408,411.019 398.408,412.051C398.408,413.082 397.572,413.918 396.54,413.918Z" style="fill:rgb(168,168,168);fill-rule:nonzero;"/>
                <path d="M436.178,428.895L391.781,428.895C390.749,428.895 389.913,428.058 389.913,427.027C389.913,425.995 390.749,425.159 391.781,425.159L436.178,425.159C437.209,425.159 438.046,425.995 438.046,427.027C438.046,428.058 437.209,428.895 436.178,428.895Z" style="fill:rgb(168,168,168);fill-rule:nonzero;"/>
            </g>
            <g transform="matrix(1,0,0,1,30.783,24.4959)">
                <path d="M661.654,487.446C660.41,486.185 659.724,484.514 659.724,482.739L659.724,460.791L663.461,460.791L663.461,482.739C663.461,482.843 663.466,482.947 663.477,483.049L676.061,470.465L661.688,484.838C661.337,485.188 661.14,485.663 661.14,486.16C661.14,486.639 661.325,487.099 661.654,487.446ZM688.49,458.036L681.358,451.879L681.358,451.878L688.491,458.035L688.49,458.036Z" style="fill:rgb(168,168,168);fill-rule:nonzero;"/>
                <path d="M663.461,460.791L659.724,460.791L659.724,437.186C659.724,435.338 660.467,433.617 661.817,432.336C661.449,432.697 661.244,433.195 661.255,433.712C661.267,434.241 661.502,434.74 661.904,435.086L681.358,451.878L681.358,451.879L663.541,436.5C663.488,436.722 663.461,436.952 663.461,437.186L663.461,460.791Z" style="fill:rgb(168,168,168);fill-rule:nonzero;"/>
                <path d="M755.831,489.444L666.429,489.444C664.638,489.444 662.956,488.746 661.688,487.48C661.676,487.469 661.665,487.458 661.654,487.446C661.325,487.099 661.14,486.639 661.14,486.16C661.14,485.663 661.337,485.188 661.688,484.838L688.491,458.035L698.627,466.785L691.326,460.483L689.519,462.29L666.117,485.692C666.22,485.703 666.324,485.708 666.429,485.708L755.831,485.708C756.863,485.708 757.699,486.544 757.699,487.576C757.699,488.608 756.863,489.444 755.831,489.444ZM729.024,480.17C728.896,480.17 728.768,480.157 728.643,480.131C728.295,480.059 727.964,479.887 727.695,479.615L708.636,460.321L709.958,459.18L711.471,457.874L711.471,457.875L730.354,476.99C730.71,477.351 730.889,477.821 730.892,478.291C730.895,478.777 730.71,479.263 730.338,479.631C729.973,479.99 729.498,480.17 729.024,480.17ZM699.887,467.274C699.626,467.274 699.365,467.219 699.123,467.11C699.137,467.117 699.152,467.123 699.167,467.129C699.168,467.13 699.17,467.13 699.171,467.131C699.174,467.132 699.178,467.134 699.181,467.135C699.402,467.225 699.637,467.271 699.872,467.273L699.888,467.273C700.077,467.273 700.267,467.244 700.45,467.186C700.651,467.123 700.844,467.024 701.019,466.891C700.685,467.146 700.286,467.274 699.887,467.274ZM699.112,467.105L699.111,467.105L699.112,467.105Z" style="fill:rgb(168,168,168);fill-rule:nonzero;"/>
                <path d="M699.887,467.273L699.884,467.273L699.887,467.273ZM699.872,467.273C699.637,467.271 699.402,467.225 699.181,467.135C699.401,467.225 699.636,467.271 699.872,467.273ZM700.45,467.186C700.684,467.112 700.908,466.99 701.107,466.819C701.078,466.844 701.049,466.868 701.019,466.891C700.844,467.024 700.651,467.123 700.45,467.186ZM699.171,467.131C699.17,467.13 699.168,467.13 699.167,467.129C699.168,467.13 699.17,467.13 699.171,467.131ZM698.627,466.785L688.491,458.035L681.358,451.878C681.837,450.518 682.095,449.075 682.112,447.594L699.887,462.937L727.804,438.842C728.156,438.537 728.59,438.388 729.022,438.388L729.023,438.388C728.591,438.388 728.158,438.537 727.804,438.842L707.518,456.352L698.667,463.991C698.237,464.36 698.019,464.881 698.019,465.405C698.019,465.838 698.167,466.273 698.473,466.626C698.521,466.682 698.573,466.735 698.627,466.785ZM732.228,434.217L682.113,434.217L682.113,430.481L732.228,430.481L732.228,434.217Z" style="fill:rgb(168,168,168);fill-rule:nonzero;"/>
                <path d="M681.358,451.878L661.904,435.086C661.502,434.74 661.267,434.241 661.255,433.712C661.244,433.195 661.449,432.697 661.817,432.336C661.826,432.328 661.834,432.32 661.842,432.312C663.097,431.131 664.726,430.481 666.429,430.481L682.113,430.481L682.113,434.217L666.614,434.217L682.112,447.594C682.095,449.075 681.837,450.518 681.358,451.878Z" style="fill:rgb(168,168,168);fill-rule:nonzero;"/>
                <path d="M709.958,459.18C710.387,458.811 710.606,458.29 710.606,457.766C710.606,457.333 710.457,456.898 710.152,456.545C709.783,456.118 709.262,455.898 708.737,455.898C708.305,455.898 707.871,456.047 707.518,456.352L727.804,438.842C728.158,438.537 728.591,438.388 729.023,438.388C729.548,438.388 730.069,438.607 730.438,439.035C730.444,439.041 730.449,439.047 730.454,439.053L730.454,439.054C730.459,439.06 730.464,439.066 730.469,439.072L730.47,439.072C730.561,439.183 730.637,439.302 730.698,439.426C730.7,439.429 730.702,439.433 730.704,439.436C730.705,439.439 730.706,439.442 730.708,439.445C730.71,439.449 730.712,439.454 730.715,439.459C730.715,439.461 730.716,439.462 730.716,439.463C730.719,439.469 730.722,439.475 730.725,439.481C730.837,439.728 730.892,439.992 730.892,440.256C730.892,440.416 730.872,440.576 730.831,440.732C730.83,440.735 730.829,440.739 730.828,440.743C730.828,440.745 730.827,440.747 730.826,440.75C730.825,440.756 730.823,440.761 730.821,440.767L730.821,440.768C730.725,441.107 730.532,441.422 730.244,441.67L711.471,457.874L709.958,459.18Z" style="fill:rgb(168,168,168);fill-rule:nonzero;"/>
                <path d="M699.888,467.273L699.872,467.273C699.636,467.271 699.401,467.225 699.181,467.135C699.178,467.134 699.174,467.132 699.171,467.131C699.17,467.13 699.168,467.13 699.167,467.129C699.152,467.123 699.137,467.117 699.123,467.11C699.119,467.109 699.116,467.107 699.112,467.105L699.111,467.105C698.937,467.026 698.773,466.919 698.627,466.785C698.573,466.735 698.521,466.682 698.473,466.626C698.167,466.273 698.019,465.838 698.019,465.405C698.019,464.881 698.237,464.36 698.667,463.991L707.518,456.352C707.871,456.047 708.305,455.898 708.737,455.898C709.262,455.898 709.783,456.118 710.152,456.545C710.457,456.898 710.606,457.333 710.606,457.766C710.606,458.29 710.387,458.811 709.958,459.18L708.636,460.321L701.107,466.819C700.908,466.99 700.684,467.112 700.45,467.186C700.267,467.244 700.077,467.273 699.888,467.273Z" style="fill:rgb(168,168,168);fill-rule:nonzero;"/>
                <path d="M736.35,446.162L735.675,446.162C734.643,446.162 733.807,445.326 733.807,444.294C733.807,443.858 733.956,443.457 734.206,443.139C734.797,444.216 735.514,445.229 736.35,446.162Z" style="fill:rgb(168,168,168);fill-rule:nonzero;"/>
                <path d="M758.653,446.162L736.35,446.162C735.514,445.229 734.797,444.216 734.206,443.139C734.548,442.705 735.079,442.426 735.675,442.426L758.653,442.426C759.684,442.426 760.521,443.262 760.521,444.294C760.521,445.326 759.684,446.162 758.653,446.162Z" style="fill:rgb(168,168,168);fill-rule:nonzero;"/>
                <path d="M778.697,457.413L740.511,457.413C739.479,457.413 738.643,456.577 738.643,455.545C738.643,454.513 739.479,453.677 740.511,453.677L778.697,453.677C779.729,453.677 780.565,454.513 780.565,455.545C780.565,456.577 779.729,457.413 778.697,457.413Z" style="fill:rgb(168,168,168);fill-rule:nonzero;"/>
                <path d="M752.605,467.451L731.648,467.451C730.616,467.451 729.78,466.614 729.78,465.582C729.78,464.551 730.616,463.714 731.648,463.714L752.605,463.714C753.637,463.714 754.473,464.551 754.473,465.582C754.473,466.614 753.637,467.451 752.605,467.451Z" style="fill:rgb(168,168,168);fill-rule:nonzero;"/>
                <path d="M769.536,479.217L742.127,479.217C741.095,479.217 740.259,478.381 740.259,477.349C740.259,476.317 741.095,475.481 742.127,475.481L769.536,475.481C770.568,475.481 771.404,476.317 771.404,477.349C771.404,478.381 770.568,479.217 769.536,479.217Z" style="fill:rgb(168,168,168);fill-rule:nonzero;"/>
                <path d="M720.124,529.074L695.317,529.074C694.286,529.074 693.449,528.238 693.449,527.206C693.449,526.174 694.286,525.338 695.317,525.338L720.124,525.338C721.155,525.338 721.992,526.174 721.992,527.206C721.992,528.238 721.155,529.074 720.124,529.074Z" style="fill:rgb(168,168,168);fill-rule:nonzero;"/>
                <path d="M745.458,529.074L730.538,529.074C729.506,529.074 728.67,528.238 728.67,527.206C728.67,526.174 729.506,525.338 730.538,525.338L745.458,525.338C746.49,525.338 747.326,526.174 747.326,527.206C747.326,528.238 746.49,529.074 745.458,529.074Z" style="fill:rgb(168,168,168);fill-rule:nonzero;"/>
            </g>
            <path d="M666.117,485.692L689.519,462.29L666.117,485.692Z" style="fill:rgb(168,168,168);fill-rule:nonzero;"/>
            <path d="M729.024,480.17C728.896,480.17 728.768,480.157 728.643,480.131C728.768,480.157 728.896,480.17 729.024,480.17C729.498,480.17 729.973,479.99 730.338,479.631C729.973,479.991 729.499,480.17 729.024,480.17ZM727.695,479.615L708.636,460.321L727.695,479.615ZM711.471,457.875L711.471,457.874L730.244,441.67L711.471,457.875Z" style="fill:rgb(168,168,168);fill-rule:nonzero;"/>
            <path d="M730.821,440.768L730.821,440.767L730.821,440.768ZM730.826,440.75C730.827,440.747 730.828,440.745 730.828,440.743C730.828,440.745 730.827,440.747 730.826,440.75ZM730.831,440.732C730.872,440.576 730.892,440.416 730.892,440.256C730.892,439.992 730.837,439.728 730.725,439.481C730.838,439.728 730.893,439.994 730.893,440.258C730.892,440.418 730.872,440.577 730.831,440.732ZM730.725,439.481C730.722,439.475 730.719,439.469 730.716,439.463C730.719,439.469 730.722,439.475 730.725,439.481ZM730.715,439.459C730.712,439.454 730.71,439.449 730.708,439.445C730.71,439.45 730.712,439.454 730.715,439.459ZM730.704,439.436C730.702,439.433 730.7,439.429 730.698,439.426C730.7,439.429 730.702,439.433 730.704,439.436ZM730.47,439.072L730.469,439.072L730.47,439.072ZM730.454,439.054L730.454,439.053L730.454,439.054Z" style="fill:rgb(168,168,168);fill-rule:nonzero;"/>
            <g>
                <path d="M451.051,238.671L391.781,238.671C390.749,238.671 389.913,237.834 389.913,236.803C389.913,235.771 390.749,234.935 391.781,234.935L451.051,234.935C452.083,234.935 452.919,235.771 452.919,236.803C452.919,237.834 452.083,238.671 451.051,238.671Z" style="fill:rgb(168,168,168);fill-rule:nonzero;"/>
                <path d="M476.699,238.671L461.778,238.671C460.746,238.671 459.91,237.834 459.91,236.803C459.91,235.771 460.746,234.935 461.778,234.935L476.699,234.935C477.731,234.935 478.567,235.771 478.567,236.803C478.567,237.834 477.731,238.671 476.699,238.671Z" style="fill:rgb(168,168,168);fill-rule:nonzero;"/>
            </g>
            <g>
                <path d="M708.689,150.049L683.883,150.049C682.851,150.049 682.015,149.213 682.015,148.181C682.015,147.149 682.851,146.313 683.883,146.313L708.689,146.313C709.721,146.313 710.557,147.149 710.557,148.181C710.557,149.213 709.721,150.049 708.689,150.049Z" style="fill:rgb(168,168,168);fill-rule:nonzero;"/>
                <path d="M784.48,150.049L719.104,150.049C718.072,150.049 717.236,149.213 717.236,148.181C717.236,147.149 718.072,146.313 719.104,146.313L784.48,146.313C785.512,146.313 786.348,147.149 786.348,148.181C786.348,149.213 785.512,150.049 784.48,150.049Z" style="fill:rgb(168,168,168);fill-rule:nonzero;"/>
            </g>
            <g>
                <path d="M449.362,471.934L441.869,471.934C440.837,471.934 440.001,471.097 440.001,470.066C440.001,469.034 440.837,468.198 441.869,468.198L449.362,468.198C450.394,468.198 451.23,469.034 451.23,470.066C451.23,471.097 450.394,471.934 449.362,471.934Z" style="fill:rgb(168,168,168);fill-rule:nonzero;"/>
                <path d="M525.153,471.457L459.776,471.457C458.745,471.457 457.908,470.621 457.908,469.589C457.908,468.557 458.745,467.721 459.776,467.721L525.153,467.721C526.185,467.721 527.021,468.557 527.021,469.589C527.021,470.621 526.185,471.457 525.153,471.457Z" style="fill:rgb(168,168,168);fill-rule:nonzero;"/>
            </g>
            <g>
                <path d="M689.527,225.951L671.233,225.951C670.202,225.951 669.365,225.115 669.365,224.083C669.365,223.051 670.202,222.215 671.233,222.215L689.527,222.215C690.558,222.215 691.394,223.051 691.394,224.083C691.394,225.115 690.558,225.951 689.527,225.951Z" style="fill:rgb(168,168,168);fill-rule:nonzero;"/>
                <path d="M723.069,238.671L689.527,238.671C688.495,238.671 687.659,237.834 687.659,236.803C687.659,235.771 688.495,234.935 689.527,234.935L723.069,234.935C724.1,234.935 724.937,235.771 724.937,236.803C724.937,237.834 724.1,238.671 723.069,238.671Z" style="fill:rgb(168,168,168);fill-rule:nonzero;"/>
            </g>
        </g>
        <g id="banner" transform="matrix(1,0,0,1,-10.899,81.6104)">
            <path d="M433.923,325.964L433.923,374.593L62.076,374.593L62.076,287.592L194.652,287.592L194.832,325.962L433.923,325.964Z" style="fill:rgb(254,215,86);fill-rule:nonzero;"/>
            <g transform="matrix(1,0,0,1,16.4186,-158.815)">
                <g transform="matrix(40,0,0,40,56.396,484.115)">
                    <path d="M0.075,-0.682L0.462,-0.682L0.462,-0.595L0.173,-0.595L0.173,-0.387L0.452,-0.387L0.452,-0.3L0.173,-0.3L0.173,-0.088L0.471,-0.088L0.471,-0.001L0.075,-0.001L0.075,-0.682Z" style="fill-rule:nonzero;"/>
                </g>
                <g transform="matrix(40,0,0,40,76.396,484.115)">
                    <path d="M0.618,-0.682L0.709,-0.682L0.709,-0L0.611,-0L0.611,-0.531L0.401,-0.267L0.383,-0.267L0.171,-0.531L0.171,-0L0.073,-0L0.073,-0.682L0.165,-0.682L0.392,-0.402L0.618,-0.682Z" style="fill-rule:nonzero;"/>
                </g>
                <g transform="matrix(40,0,0,40,107.626,484.115)">
                    <path d="M0.293,-0.686L0.362,-0.686L0.667,-0L0.567,-0L0.476,-0.202L0.186,-0.202L0.1,-0L0,-0L0.293,-0.686ZM0.436,-0.289L0.326,-0.536L0.224,-0.289L0.436,-0.289Z" style="fill-rule:nonzero;"/>
                </g>
                <g transform="matrix(40,0,0,40,134.306,484.115)">
                    <rect x="0.076" y="-0.682" width="0.098" height="0.682" style="fill-rule:nonzero;"/>
                </g>
                <g transform="matrix(40,0,0,40,144.306,484.115)">
                    <path d="M0.075,-0.682L0.173,-0.682L0.173,-0.089L0.48,-0.089L0.48,-0L0.075,-0L0.075,-0.682Z" style="fill-rule:nonzero;"/>
                </g>
                <g transform="matrix(40,0,0,40,56.396,524.115)">
                    <path d="M0.017,-0.683L0.587,-0.683L0.587,-0.596L0.349,-0.596L0.349,-0L0.251,-0L0.251,-0.596L0.017,-0.596L0.017,-0.683Z" style="fill-rule:nonzero;"/>
                </g>
                <g transform="matrix(40,0,0,40,80.5561,524.115)">
                    <path d="M0.075,-0.682L0.462,-0.682L0.462,-0.595L0.173,-0.595L0.173,-0.387L0.452,-0.387L0.452,-0.3L0.173,-0.3L0.173,-0.088L0.471,-0.088L0.471,-0.001L0.075,-0.001L0.075,-0.682Z" style="fill-rule:nonzero;"/>
                </g>
                <g transform="matrix(40,0,0,40,100.556,524.115)">
                    <path d="M0.618,-0.682L0.709,-0.682L0.709,-0L0.611,-0L0.611,-0.531L0.401,-0.267L0.383,-0.267L0.171,-0.531L0.171,-0L0.073,-0L0.073,-0.682L0.165,-0.682L0.392,-0.402L0.618,-0.682Z" style="fill-rule:nonzero;"/>
                </g>
                <g transform="matrix(40,0,0,40,131.787,524.115)">
                    <path d="M0.07,-0L0.07,-0.683L0.286,-0.683C0.351,-0.683 0.403,-0.666 0.442,-0.63C0.481,-0.595 0.5,-0.548 0.5,-0.489C0.5,-0.449 0.49,-0.414 0.47,-0.383C0.45,-0.353 0.423,-0.33 0.389,-0.317C0.354,-0.303 0.305,-0.296 0.24,-0.296L0.168,-0.296L0.168,-0L0.07,-0ZM0.269,-0.596L0.168,-0.596L0.168,-0.383L0.275,-0.383C0.315,-0.383 0.345,-0.392 0.367,-0.411C0.388,-0.43 0.399,-0.456 0.399,-0.491C0.399,-0.561 0.356,-0.596 0.269,-0.596Z" style="fill-rule:nonzero;"/>
                </g>
                <g transform="matrix(40,0,0,40,152.177,524.115)">
                    <path d="M0.075,-0.682L0.173,-0.682L0.173,-0.089L0.48,-0.089L0.48,-0L0.075,-0L0.075,-0.682Z" style="fill-rule:nonzero;"/>
                </g>
                <g transform="matrix(40,0,0,40,171.787,524.115)">
                    <path d="M0.293,-0.686L0.362,-0.686L0.667,-0L0.567,-0L0.476,-0.202L0.186,-0.202L0.1,-0L0,-0L0.293,-0.686ZM0.436,-0.289L0.326,-0.536L0.224,-0.289L0.436,-0.289Z" style="fill-rule:nonzero;"/>
                </g>
                <g transform="matrix(40,0,0,40,194.462,524.115)">
                    <path d="M0.017,-0.683L0.587,-0.683L0.587,-0.596L0.349,-0.596L0.349,-0L0.251,-0L0.251,-0.596L0.017,-0.596L0.017,-0.683Z" style="fill-rule:nonzero;"/>
                </g>
                <g transform="matrix(40,0,0,40,218.623,524.115)">
                    <path d="M0.075,-0.682L0.462,-0.682L0.462,-0.595L0.173,-0.595L0.173,-0.387L0.452,-0.387L0.452,-0.3L0.173,-0.3L0.173,-0.088L0.471,-0.088L0.471,-0.001L0.075,-0.001L0.075,-0.682Z" style="fill-rule:nonzero;"/>
                </g>
                <g transform="matrix(40,0,0,40,238.623,524.115)">
                    <rect x="0.04" y="-0.269" width="0.243" height="0.095" style="fill-rule:nonzero;"/>
                </g>
                <g transform="matrix(40,0,0,40,251.552,524.115)">
                    <path d="M0.306,-0L0.075,-0L0.075,-0.682L0.254,-0.682C0.31,-0.682 0.354,-0.675 0.386,-0.659C0.417,-0.644 0.441,-0.623 0.458,-0.597C0.475,-0.57 0.483,-0.54 0.483,-0.505C0.483,-0.438 0.448,-0.39 0.379,-0.361C0.429,-0.351 0.468,-0.331 0.498,-0.299C0.527,-0.268 0.542,-0.23 0.542,-0.186C0.542,-0.151 0.533,-0.12 0.515,-0.093C0.497,-0.065 0.471,-0.043 0.436,-0.026C0.402,-0.009 0.358,-0 0.306,-0ZM0.257,-0.595L0.173,-0.595L0.173,-0.39L0.238,-0.39C0.29,-0.39 0.327,-0.4 0.349,-0.42C0.371,-0.44 0.382,-0.465 0.382,-0.497C0.382,-0.563 0.34,-0.595 0.257,-0.595ZM0.264,-0.303L0.173,-0.303L0.173,-0.087L0.269,-0.087C0.322,-0.087 0.359,-0.091 0.378,-0.099C0.397,-0.108 0.412,-0.121 0.424,-0.138C0.435,-0.156 0.441,-0.175 0.441,-0.195C0.441,-0.216 0.435,-0.235 0.423,-0.252C0.41,-0.269 0.393,-0.282 0.371,-0.291C0.348,-0.299 0.313,-0.303 0.264,-0.303Z" style="fill-rule:nonzero;"/>
                </g>
                <g transform="matrix(40,0,0,40,274.072,524.115)">
                    <path d="M0.55,-0.682L0.648,-0.682L0.648,-0.295C0.648,-0.243 0.644,-0.203 0.636,-0.176C0.629,-0.15 0.619,-0.127 0.608,-0.11C0.597,-0.092 0.583,-0.076 0.567,-0.062C0.513,-0.015 0.442,0.008 0.355,0.008C0.266,0.008 0.195,-0.015 0.141,-0.062C0.125,-0.076 0.111,-0.092 0.1,-0.11C0.089,-0.127 0.079,-0.149 0.072,-0.175C0.065,-0.201 0.061,-0.241 0.061,-0.296L0.061,-0.682L0.159,-0.682L0.159,-0.295C0.159,-0.231 0.167,-0.186 0.181,-0.161C0.196,-0.136 0.218,-0.116 0.248,-0.101C0.278,-0.086 0.313,-0.078 0.354,-0.078C0.412,-0.078 0.459,-0.093 0.496,-0.124C0.515,-0.14 0.529,-0.159 0.537,-0.181C0.546,-0.203 0.55,-0.241 0.55,-0.295L0.55,-0.682Z" style="fill-rule:nonzero;"/>
                </g>
                <g transform="matrix(40,0,0,40,302.392,524.115)">
                    <rect x="0.076" y="-0.682" width="0.098" height="0.682" style="fill-rule:nonzero;"/>
                </g>
                <g transform="matrix(40,0,0,40,312.392,524.115)">
                    <path d="M0.075,-0.682L0.173,-0.682L0.173,-0.089L0.48,-0.089L0.48,-0L0.075,-0L0.075,-0.682Z" style="fill-rule:nonzero;"/>
                </g>
                <g transform="matrix(40,0,0,40,332.001,524.115)">
                    <path d="M0.076,-0.001L0.076,-0.682L0.306,-0.682C0.399,-0.682 0.472,-0.668 0.526,-0.64C0.58,-0.613 0.623,-0.572 0.655,-0.518C0.687,-0.464 0.703,-0.405 0.703,-0.341C0.703,-0.295 0.694,-0.252 0.677,-0.21C0.659,-0.168 0.634,-0.132 0.602,-0.1C0.568,-0.068 0.53,-0.043 0.486,-0.026C0.46,-0.016 0.437,-0.01 0.415,-0.006C0.394,-0.003 0.353,-0.001 0.292,-0.001L0.076,-0.001ZM0.296,-0.595L0.174,-0.595L0.174,-0.088L0.299,-0.088C0.348,-0.088 0.386,-0.091 0.413,-0.098C0.44,-0.105 0.462,-0.113 0.48,-0.123C0.498,-0.134 0.515,-0.146 0.53,-0.161C0.578,-0.21 0.602,-0.272 0.602,-0.346C0.602,-0.419 0.577,-0.479 0.528,-0.525C0.51,-0.543 0.489,-0.557 0.465,-0.568C0.441,-0.579 0.419,-0.586 0.398,-0.59C0.377,-0.593 0.343,-0.595 0.296,-0.595Z" style="fill-rule:nonzero;"/>
                </g>
                <g transform="matrix(40,0,0,40,362.001,524.115)">
                    <path d="M0.075,-0.682L0.462,-0.682L0.462,-0.595L0.173,-0.595L0.173,-0.387L0.452,-0.387L0.452,-0.3L0.173,-0.3L0.173,-0.088L0.471,-0.088L0.471,-0.001L0.075,-0.001L0.075,-0.682Z" style="fill-rule:nonzero;"/>
                </g>
                <g transform="matrix(40,0,0,40,382.001,524.115)">
                    <path d="M0.078,-0L0.078,-0.682L0.249,-0.682C0.318,-0.682 0.373,-0.665 0.413,-0.631C0.454,-0.597 0.474,-0.55 0.474,-0.492C0.474,-0.452 0.464,-0.418 0.444,-0.389C0.424,-0.36 0.396,-0.339 0.359,-0.324C0.381,-0.31 0.402,-0.29 0.423,-0.266C0.444,-0.241 0.473,-0.198 0.511,-0.136C0.535,-0.097 0.554,-0.068 0.568,-0.049L0.604,-0L0.488,-0L0.458,-0.045C0.457,-0.047 0.433,-0.08 0.433,-0.08L0.403,-0.13L0.37,-0.183C0.35,-0.211 0.331,-0.233 0.315,-0.25C0.298,-0.267 0.283,-0.279 0.269,-0.286C0.256,-0.293 0.233,-0.297 0.201,-0.297L0.176,-0.297L0.176,-0L0.078,-0ZM0.205,-0.599L0.176,-0.599L0.176,-0.384L0.213,-0.384C0.262,-0.384 0.296,-0.388 0.315,-0.396C0.333,-0.405 0.347,-0.418 0.358,-0.435C0.368,-0.452 0.373,-0.471 0.373,-0.493C0.373,-0.515 0.367,-0.534 0.356,-0.552C0.345,-0.569 0.329,-0.581 0.308,-0.588C0.287,-0.596 0.253,-0.599 0.205,-0.599Z" style="fill-rule:nonzero;"/>
                </g>
            </g>
        </g>
        <g id="main-color" transform="matrix(0.899017,0,0,0.899017,86.0838,15.4602)">
            <path d="M937.805,293.096C937.805,289.198 936.14,285.711 933.51,283.238L855.245,350.795L933.854,430.368C936.294,427.918 937.805,424.541 937.805,420.805L937.805,293.096Z" style="fill:rgb(251,204,102);fill-rule:nonzero;"/>
            <path d="M727.362,283.238C724.734,285.711 723.069,289.198 723.069,293.096L723.069,420.805C723.069,424.554 724.589,427.944 727.041,430.398L806.174,351.266L727.362,283.238Z" style="fill:rgb(251,204,102);fill-rule:nonzero;"/>
            <path d="M830.438,372.211L806.174,351.266L727.041,430.398C729.496,432.852 732.886,434.368 736.632,434.368L924.243,434.368C928.001,434.368 931.397,432.838 933.854,430.368L855.245,350.795L830.438,372.211Z" style="fill:rgb(251,204,102);fill-rule:nonzero;"/>
            <path d="M830.438,372.211L933.51,283.238C931.083,280.957 927.839,279.533 924.243,279.533L736.632,279.533C733.039,279.533 729.791,280.957 727.362,283.238L830.438,372.211Z" style="fill:rgb(254,219,105);fill-rule:nonzero;"/>
            <path d="M915.317,268.523L915.317,445.018L943.873,440.289L943.873,273.612L915.317,268.523Z" style="fill:rgb(104,118,149);fill-rule:nonzero;"/>
            <path d="M943.873,440.289L1119.06,411.275L1119.06,304.86L943.873,273.612L943.873,440.289Z" style="fill:rgb(97,106,122);fill-rule:nonzero;"/>
            <path d="M802.415,356.198C802.415,377.525 819.697,394.809 841.022,394.809L841.022,317.593C819.697,317.593 802.415,334.878 802.415,356.198Z" style="fill:rgb(254,215,86);fill-rule:nonzero;"/>
            <path d="M1142.43,427.026L1119.06,427.026L1119.06,286.868L1142.43,286.868" style="fill:rgb(104,118,149);fill-rule:nonzero;"/>
            <path d="M1051.35,422.492L1051.35,481.755L1089.3,481.755L1089.3,416.205L1051.35,422.492Z" style="fill:rgb(104,118,149);fill-rule:nonzero;"/>
            <path d="M582.304,395.909L601.964,378.945L646.552,340.453L646.552,240.944L518.504,240.944L518.504,340.841L563.081,379.318L582.304,395.909Z" style="fill:rgb(243,244,244);fill-rule:nonzero;"/>
            <path d="M663.966,325.421L601.964,378.945L664.241,441.985C666.175,440.044 667.37,437.368 667.37,434.414L667.37,333.231C667.37,330.14 666.048,327.38 663.966,325.421Z" style="fill:rgb(149,173,224);fill-rule:nonzero;"/>
            <path d="M500.64,325.421C498.56,327.38 497.244,330.14 497.244,333.231L497.244,434.414C497.244,437.381 498.442,440.07 500.391,442.011L563.081,379.318L500.64,325.421Z" style="fill:rgb(149,173,224);fill-rule:nonzero;"/>
            <path d="M582.304,395.909L563.081,379.318L500.391,442.011C502.332,443.955 505.016,445.156 507.985,445.156L656.625,445.156C659.604,445.156 662.293,443.944 664.241,441.985L601.964,378.945L582.304,395.909Z" style="fill:rgb(149,173,224);fill-rule:nonzero;"/>
            <path d="M518.504,309.558L500.64,325.421L518.504,340.841L518.504,309.558Z" style="fill:rgb(104,118,149);fill-rule:nonzero;"/>
            <path d="M663.966,325.421L646.552,309.961L646.552,340.453L663.966,325.421Z" style="fill:rgb(104,118,149);fill-rule:nonzero;"/>
            <path d="M532.837,300.965C532.837,303.933 535.244,306.338 538.214,306.338L579.614,306.338C582.581,306.338 584.987,303.933 584.987,300.965L584.987,263.092C584.987,260.126 582.581,257.72 579.614,257.72L538.214,257.72C535.244,257.72 532.837,260.126 532.837,263.092L532.837,300.965Z" style="fill:rgb(254,215,86);fill-rule:nonzero;"/>
            <path d="M895.855,478.269C906.603,478.269 915.317,469.555 915.317,458.805L915.317,253.598C915.317,242.845 906.603,234.131 895.855,234.131L860.489,234.131C849.736,234.131 841.022,242.845 841.022,253.598L841.022,458.805C841.022,469.555 849.736,478.269 860.489,478.269L895.855,478.269Z" style="fill:rgb(97,106,122);fill-rule:nonzero;"/>
        </g>
        <g id="main-border" transform="matrix(0.899017,0,0,0.899017,86.0838,14.5612)">
            <path d="M860.489,237.12C851.403,237.12 844.011,244.512 844.011,253.598L844.011,458.805C844.011,467.89 851.403,475.28 860.489,475.28L895.855,475.28C904.938,475.28 912.329,467.89 912.329,458.805L912.329,253.598C912.329,244.512 904.938,237.12 895.855,237.12L860.489,237.12ZM895.855,481.258L860.489,481.258C848.108,481.258 838.034,471.186 838.034,458.805L838.034,253.598C838.034,241.216 848.108,231.142 860.489,231.142L895.855,231.142C908.235,231.142 918.306,241.216 918.306,253.598L918.306,458.805C918.306,471.186 908.235,481.258 895.855,481.258Z" style="fill:rgb(48,48,48);fill-rule:nonzero;"/>
            <path d="M918.306,272.091L918.306,441.494L940.884,437.755L940.884,276.115L918.306,272.091ZM915.317,448.007C914.614,448.007 913.928,447.759 913.384,447.298C912.715,446.73 912.329,445.896 912.329,445.018L912.329,268.523C912.329,267.638 912.72,266.799 913.398,266.232C914.078,265.664 914.98,265.425 915.841,265.581L944.397,270.669C945.823,270.923 946.862,272.163 946.862,273.612L946.862,440.289C946.862,441.752 945.804,442.999 944.362,443.238L915.806,447.967C915.643,447.994 915.479,448.007 915.317,448.007Z" style="fill:rgb(48,48,48);fill-rule:nonzero;"/>
            <path d="M946.862,277.18L946.862,436.765L1116.07,408.741L1116.07,307.363L946.862,277.18ZM943.873,443.278C943.169,443.278 942.484,443.03 941.939,442.569C941.271,442.001 940.884,441.167 940.884,440.289L940.884,273.612C940.884,272.727 941.275,271.888 941.954,271.32C942.634,270.753 943.529,270.515 944.398,270.669L1119.59,301.918C1121.01,302.172 1122.05,303.412 1122.05,304.86L1122.05,411.275C1122.05,412.737 1120.99,413.985 1119.55,414.224L944.362,443.238C944.198,443.265 944.035,443.278 943.873,443.278Z" style="fill:rgb(48,48,48);fill-rule:nonzero;"/>
            <path d="M841.022,276.918L841.022,282.148L736.632,282.148C734.853,282.149 733.124,282.587 731.567,283.414L801.358,343.654C806.691,326.831 822.455,314.604 841.022,314.604L841.022,397.798C823.522,397.798 808.512,386.935 802.379,371.597C801.09,368.372 800.194,364.95 799.748,361.389L772.142,388.995L730.961,430.176C732.654,431.204 734.601,431.753 736.632,431.753L841.022,431.753L841.022,436.983L736.632,436.983C732.333,436.983 728.292,435.32 725.244,432.298C725.226,432.281 725.208,432.264 725.191,432.247C722.136,429.189 720.453,425.126 720.453,420.805L720.453,293.096C720.453,288.639 722.25,284.483 725.516,281.385C725.534,281.367 725.552,281.349 725.571,281.332C728.601,278.486 732.53,276.918 736.632,276.918L841.022,276.918ZM734.734,293.056L727.62,286.916C726.36,288.726 725.684,290.856 725.684,293.096L725.684,420.805C725.684,422.837 726.234,424.784 727.263,426.478L799.47,354.27C799.546,352.613 799.72,350.981 799.985,349.379L734.734,293.056ZM838.034,320.706C819.787,322.229 805.403,337.566 805.403,356.197C805.403,374.833 819.787,390.172 838.034,391.697L838.034,320.706Z" style="fill:rgb(48,48,48);fill-rule:nonzero;"/>
            <path d="M1142.43,430.015L1119.06,430.015C1117.41,430.015 1116.07,428.677 1116.07,427.027L1116.07,286.868C1116.07,285.217 1117.41,283.879 1119.06,283.879L1142.43,283.879C1144.08,283.879 1145.42,285.217 1145.42,286.868C1145.42,288.518 1144.08,289.857 1142.43,289.857L1122.05,289.857L1122.05,424.038L1142.43,424.038C1144.08,424.038 1145.42,425.376 1145.42,427.027C1145.42,428.677 1144.08,430.015 1142.43,430.015Z" style="fill:rgb(48,48,48);fill-rule:nonzero;"/>
            <path d="M1054.33,478.766L1086.31,478.766L1086.31,419.73L1054.33,425.026L1054.33,478.766ZM1089.3,484.744L1051.35,484.744C1049.69,484.744 1048.36,483.406 1048.36,481.755L1048.36,422.492C1048.36,421.029 1049.41,419.781 1050.86,419.543L1088.81,413.257C1089.68,413.113 1090.56,413.358 1091.23,413.926C1091.9,414.493 1092.29,415.327 1092.29,416.205L1092.29,481.755C1092.29,483.406 1090.95,484.744 1089.3,484.744Z" style="fill:rgb(48,48,48);fill-rule:nonzero;"/>
            <path d="M515.888,308.384L515.888,240.944C515.888,239.5 517.06,238.328 518.504,238.328L646.552,238.328C647.997,238.328 649.168,239.5 649.168,240.944L649.168,308.785L665.699,323.462C665.719,323.48 665.739,323.498 665.758,323.516C668.484,326.081 669.986,329.531 669.986,333.231L669.986,434.414C669.986,437.967 668.604,441.312 666.095,443.831C666.078,443.848 666.062,443.864 666.045,443.88C663.524,446.389 660.182,447.771 656.625,447.771L507.985,447.771C504.414,447.771 501.06,446.382 498.54,443.86C498.526,443.846 498.512,443.832 498.498,443.817C496.002,441.307 494.628,437.969 494.628,434.414L494.628,333.231C494.628,329.529 496.126,326.079 498.847,323.517C498.872,323.494 498.897,323.471 498.922,323.449L515.888,308.384ZM655.211,436.565L601.821,382.522L584.012,397.889C583.17,398.616 581.981,398.719 581.041,398.2L581.034,398.196L581.023,398.19C580.873,398.106 580.73,398.005 580.595,397.889L563.212,382.886L533.571,412.528L504.392,441.709C505.494,442.253 506.717,442.54 507.985,442.54L656.625,442.54C657.911,442.54 659.15,442.243 660.266,441.682L655.211,436.565ZM500.966,329.157C500.243,330.382 499.859,331.776 499.859,333.231L499.859,434.414C499.859,435.685 500.147,436.909 500.691,438.012L559.242,379.459L516.794,342.821L500.966,329.157ZM663.942,437.961C664.473,436.869 664.755,435.663 664.755,434.414L664.755,333.231C664.755,331.776 664.368,330.382 663.643,329.155L605.791,379.096L646.471,420.275L663.942,437.961ZM564.468,377.06L582.304,392.455L643.774,339.396L643.937,339.256L643.937,243.559L521.119,243.559L521.119,339.643L564.468,377.06ZM504.61,325.393L515.888,335.127L515.888,315.378L504.61,325.393ZM659.996,325.393L649.168,315.78L649.168,334.74L655.756,329.053L659.996,325.393ZM579.614,308.953L538.214,308.953C533.807,308.953 530.222,305.37 530.222,300.965L530.222,263.092C530.222,258.688 533.807,255.105 538.214,255.105L579.614,255.105C584.019,255.105 587.603,258.688 587.603,263.092L587.603,300.965C587.603,305.37 584.019,308.953 579.614,308.953ZM579.614,260.335L538.214,260.335C536.691,260.335 535.453,261.572 535.453,263.092L535.453,300.965C535.453,302.485 536.691,303.723 538.214,303.723L579.614,303.723C581.135,303.723 582.372,302.485 582.372,300.965L582.372,263.092C582.372,261.572 581.135,260.335 579.614,260.335Z" style="fill:rgb(48,48,48);fill-rule:nonzero;"/>
            <path d="M631.997,324.401L479.892,324.401C478.448,324.401 477.276,323.229 477.276,321.785C477.276,320.341 478.448,319.17 479.892,319.17L631.997,319.17C633.441,319.17 634.612,320.341 634.612,321.785C634.612,323.229 633.441,324.401 631.997,324.401Z" style="fill:rgb(48,48,48);fill-rule:nonzero;"/>
            <path d="M614.041,345.667L554.767,345.667C553.323,345.667 552.152,344.496 552.152,343.052C552.152,341.608 553.323,340.437 554.767,340.437L614.041,340.437C615.485,340.437 616.656,341.608 616.656,343.052C616.656,344.496 615.485,345.667 614.041,345.667Z" style="fill:rgb(48,48,48);fill-rule:nonzero;"/>
            <path d="M689.527,271.08L599.089,271.08C597.645,271.08 596.474,269.909 596.474,268.464C596.474,267.02 597.645,265.849 599.089,265.849L689.527,265.849C690.971,265.849 692.142,267.02 692.142,268.464C692.142,269.909 690.971,271.08 689.527,271.08Z" style="fill:rgb(48,48,48);fill-rule:nonzero;"/>
            <path d="M634.669,294.613L599.089,294.613C597.645,294.613 596.474,293.442 596.474,291.998C596.474,290.554 597.645,289.383 599.089,289.383L634.669,289.383C636.114,289.383 637.284,290.554 637.284,291.998C637.284,293.442 636.114,294.613 634.669,294.613Z" style="fill:rgb(48,48,48);fill-rule:nonzero;"/>
        </g>
    </g>
    <g transform="matrix(1.90415,0,0,1.90415,132.751,54.989)">
        <path d="M86.263,98.481L62.784,98.481C62.804,98.293 62.816,90.646 62.816,90.646L80.309,90.646C83.197,90.646 85.539,88.304 85.539,85.416L85.539,73.799C85.539,71.671 84.71,69.669 83.204,68.165L62.552,47.512C62.642,44.161 62.712,40.809 62.77,37.457C63.341,27.231 60.439,16.685 53.648,8.859C51.901,6.849 49.958,4.966 47.623,3.545C46.529,2.928 45.496,2.362 44.102,2.336C42.706,2.373 41.682,2.941 40.594,3.565C38.275,5.004 36.353,6.9 34.629,8.921C34.391,9.203 34.165,9.493 33.936,9.782L33.936,2.329C33.936,1.043 32.894,0 31.607,0L8.845,0C7.559,0 6.516,1.043 6.516,2.329L6.516,66.648L5,68.165C3.494,69.669 2.666,71.671 2.666,73.799L2.666,85.417C2.666,87.827 4.298,89.851 6.516,90.456L6.516,98.481L1.941,98.481C0.869,98.481 0,99.35 0,100.422L0,101.198C0,102.27 0.869,103.139 1.941,103.139L86.263,103.139C87.334,103.139 88.203,102.27 88.203,101.198L88.203,100.422C88.203,99.35 87.334,98.481 86.263,98.481ZM26.225,27.42C26.107,28.12 26.007,28.823 25.927,29.528L20.323,34.422L12.305,27.42L26.225,27.42ZM14.38,22.762L20.2,16.107L26.019,22.762L14.38,22.762ZM25.855,45.364C25.856,45.417 25.857,45.471 25.858,45.524L14.19,45.524L20.092,38.765L25.855,45.364ZM25.745,39.157L22.344,36.186L25.702,32.34C25.7,32.394 25.695,32.447 25.692,32.501C25.697,34.72 25.717,36.938 25.745,39.157ZM29.35,17.261C29.095,17.813 28.855,18.371 28.626,18.933L22.45,13.533L29.278,5.724L29.278,16.713C29.278,16.903 29.307,17.085 29.35,17.261ZM28.099,4.658L20.2,11.565L12.3,4.658L28.099,4.658ZM11.174,5.785L17.949,13.533L11.174,19.457L11.174,5.785ZM11.174,28.551L18.04,36.414L11.174,42.41L11.174,28.551ZM11.174,50.182L22.982,50.182L11.174,61.99L11.174,50.182ZM11.174,90.646L25.388,90.646C25.388,90.646 25.4,98.293 25.421,98.481L11.174,98.481L11.174,90.646ZM46.44,98.481C46.463,95.965 46.454,93.449 46.402,90.934C46.363,87.9 46.279,84.867 46.165,81.834C45.944,75.767 45.642,69.7 44.811,63.634C44.769,63.323 44.525,63.066 44.199,63.021C43.807,62.968 43.446,63.242 43.393,63.634C42.562,69.7 42.26,75.767 42.039,81.834C41.925,84.867 41.841,87.9 41.802,90.934C41.75,93.449 41.741,95.965 41.764,98.481L30.617,98.481C30.303,98.481 30.046,98.224 30.046,97.91L30.046,87.929C30.046,86.857 29.177,85.988 28.105,85.988L7.895,85.988C7.581,85.988 7.324,85.731 7.324,85.417L7.324,73.799C7.324,72.921 7.672,72.079 8.293,71.458C8.293,71.458 10.493,69.259 10.494,69.257L26.069,53.682C26.312,61.177 26.662,68.671 27.095,76.165C27.114,76.474 27.361,76.729 27.678,76.748C28.022,76.77 28.317,76.509 28.339,76.165C29.194,62.457 29.538,48.748 29.777,35.037C29.845,26.707 32.803,18.34 38.285,12.057C39.971,10.221 41.807,8.315 44.093,7.374C46.364,8.347 48.183,10.264 49.846,12.12C51.788,14.38 53.387,16.956 54.694,19.663C57.399,25.159 58.297,31.369 58.204,37.457C58.428,50.373 58.821,63.277 59.888,76.165C59.912,76.451 60.14,76.687 60.436,76.713C60.767,76.741 61.058,76.496 61.087,76.165C61.701,68.748 62.087,61.325 62.351,53.898L79.911,71.458C80.532,72.079 80.881,72.921 80.881,73.799L80.881,85.416C80.881,85.732 80.625,85.988 80.309,85.988L60.099,85.988C59.027,85.988 58.158,86.857 58.158,87.929L58.158,97.91C58.158,98.224 57.901,98.481 57.587,98.481L46.44,98.481Z" style="fill:rgb(0,0,9);fill-rule:nonzero;"/>
    </g>
</svg>
