<svg xmlns="http://www.w3.org/2000/svg" viewBox="0 0 113.62 132.85" fill="none">
  <path fill="#000" d="M111.11414,126.85254H80.87122c0.02612-0.24176,0.04187-10.09229,0.04187-10.09229h22.53223
    c3.72034,0,6.73633-3.01593,6.73633-6.73633V95.05957c0-2.74121-1.06738-5.31885-3.00684-7.25732L80.57288,61.20032
    c0.11548-4.31641,0.20642-8.63397,0.28125-12.9527c0.73547-13.1712-3.00342-26.7558-11.75061-36.83685
    c-2.24988-2.58862-4.75305-5.01471-7.76086-6.84509c-1.40845-0.7937-2.73975-1.52374-4.53516-1.55688
    c-1.79883,0.04791-3.11755,0.77979-4.51917,1.5835c-2.98706,1.85278-5.46228,4.29596-7.68286,6.89905
    c-0.30615,0.3634-0.59827,0.73718-0.89258,1.10925V3c0-1.65674-1.34277-3-3-3H11.39355c-1.65723,0-3,1.34326-3,3v82.84912
    l-1.95312,1.95312c-1.93945,1.93848-3.00684,4.51611-3.00684,7.25732v14.96533c0,3.10431,2.10291,5.71106,4.95996,6.49103
    v10.33661H2.50012C1.11926,126.85254,0,127.97192,0,129.35272v0.99969c0,1.3808,1.11926,2.50012,2.50012,2.50012h108.61401
    c1.38074,0,2.50012-1.11932,2.50012-2.50012v-0.99969C113.61426,127.97192,112.49487,126.85254,111.11414,126.85254z
    M33.78003,35.31982c-0.15125,0.90161-0.28003,1.80664-0.38391,2.7149l-7.21875,6.30341l-10.32788-9.01831H33.78003z
    M18.52271,29.31982l7.49646-8.57312l7.49634,8.57312H18.52271z M33.30334,58.43243
    c0.00146,0.06909,0.00244,0.13812,0.00391,0.20721H18.27771l7.60327-8.70728L33.30334,58.43243z M33.16223,50.43744
    l-4.38147-3.82599l4.32593-4.9541c-0.00305,0.06909-0.00977,0.13794-0.01257,0.20703
    C33.09961,44.72223,33.12622,47.5799,33.16223,50.43744z M37.80518,22.23401c-0.32849,0.71021-0.63721,1.42908-0.93213,2.15393
    l-7.95532-6.95618l8.79517-10.05841v14.15497C37.71289,21.77258,37.75012,22.00665,37.80518,22.23401z M36.19421,6
    l-10.17505,8.89716L15.84412,6H36.19421z M14.39355,7.45142l8.72693,9.98035l-8.72693,7.63092V7.45142z M14.39355,36.77679
    l8.84399,10.1283l-8.84399,7.7226V36.77679z M14.39355,64.63965h15.20947L14.39355,79.84912V64.63965z M14.39355,116.76025
    h18.30859c0,0,0.01575,9.85052,0.04187,10.09229H14.39355V116.76025z M59.81934,126.85254
    c0.02893-3.24054,0.01831-6.48114-0.04932-9.72168c-0.04968-3.90723-0.15845-7.81439-0.30481-11.72162
    c-0.28479-7.81439-0.67407-15.62878-1.7439-23.44318c-0.05493-0.3996-0.36951-0.73126-0.7887-0.78864
    c-0.50464-0.06915-0.96973,0.284-1.03882,0.78864c-1.06995,7.81439-1.45911,15.62878-1.7439,23.44318
    c-0.14648,3.90723-0.25513,7.81439-0.30493,11.72162c-0.0675,3.24054-0.07825,6.48114-0.04932,9.72168H39.4375
    c-0.40442,0-0.73535-0.33087-0.73535-0.73535v-12.85675c0-1.3808-1.11938-2.50018-2.50012-2.50018H10.16895
    c-0.40442,0-0.73535-0.33087-0.73535-0.73535V95.05957c0-1.1308,0.44922-2.21533,1.2489-3.01495l2.82971-2.82971
    c0.00171-0.00171,0.00342-0.00342,0.00513-0.00513l20.06226-20.06232c0.31287,9.65405,0.76306,19.30719,1.3208,28.96008
    c0.02441,0.39868,0.34253,0.72601,0.75146,0.75146c0.4425,0.02753,0.82361-0.3089,0.85107-0.75146
    c1.10193-17.65649,1.54504-35.3158,1.85217-52.97626c0.08838-10.73053,3.89795-21.50781,10.95923-29.60065
    c2.17163-2.36517,4.5376-4.82043,7.48218-6.03186c2.92456,1.25305,5.26782,3.72162,7.41016,6.11249
    c2.5011,2.91095,4.56116,6.2301,6.24438,9.71674c3.48364,7.07892,4.64038,15.0777,4.52124,22.91956
    c0.28857,16.6377,0.79443,33.25879,2.16919,49.85999c0.03137,0.36884,0.32434,0.67285,0.70557,0.70557
    c0.42627,0.03662,0.80151-0.2793,0.83813-0.70557c0.79126-9.55426,1.28906-19.11517,1.62866-28.68182l22.6189,22.6189
    c0.79968,0.79962,1.2489,1.88416,1.2489,3.01495v14.96436c0,0.40668-0.32971,0.73633-0.73633,0.73633h-26.0321
    c-1.38086,0-2.50012,1.11938-2.50012,2.50018v12.85675c0,0.40448-0.33093,0.73535-0.73535,0.73535H59.81934z"/>
</svg>
